<svg width="390" height="265" viewBox="0 0 390 265" fill="none" xmlns="http://www.w3.org/2000/svg">
<g opacity="0.2">
<mask id="mask0_568_10274" style="mask-type:alpha" maskUnits="userSpaceOnUse" x="-187" y="-185" width="832" height="450">
<path fill-rule="evenodd" clip-rule="evenodd" d="M644.013 -96.6363L599.038 -86.3316C554.734 -76.1807 464.785 -55.5713 378.339 -25.2975C291.893 4.97636 194.372 31.8488 113.592 81.7589C32.8115 131.669 -18.5914 190.698 -69.7752 243.839L-110.519 264.653L-187 -0.437699L-142.025 -10.7424C-97.7216 -20.8933 -7.77197 -41.5028 81.5064 -61.9584C170.785 -82.4141 260.734 -103.024 350.013 -123.479C439.291 -143.935 529.241 -164.544 573.544 -174.695L618.519 -185L644.013 -96.6363Z" fill="#0099FF"/>
</mask>
<g mask="url(#mask0_568_10274)">
<g clip-path="url(#clip0_568_10274)">
<path d="M114.934 324.508L73.462 302.323L97.3864 263.867L138.858 286.052L114.934 324.508Z" fill="#8338EC"/>
<path d="M73.462 302.323L31.9904 280.138L55.9149 241.682L97.3864 263.867L73.462 302.323Z" fill="#FFBE0B"/>
<path d="M97.3864 263.867C90.7799 274.486 76.1405 278.129 64.6884 272.003C53.2364 265.877 49.3083 252.302 55.9149 241.682L76.6506 252.775L97.3864 263.867Z" fill="#FF006E"/>
<path d="M138.858 286.052L55.9149 241.682L103.764 164.77L186.707 209.14L138.858 286.052Z" fill="#3A86FF"/>
<path d="M138.858 286.052L97.3864 263.867L145.235 186.955L186.707 209.14L138.858 286.052Z" fill="#FFBE0B"/>
<path d="M186.707 209.14L145.235 186.955L169.16 148.499L210.631 170.684L186.707 209.14Z" fill="#FF006E"/>
<path d="M186.707 209.14L145.235 186.955L210.631 170.684L186.707 209.14Z" fill="#3A86FF"/>
<path d="M145.235 186.955L103.764 164.77L127.688 126.314L169.16 148.499L145.235 186.955Z" fill="#8338EC"/>
<path d="M210.631 170.684L169.16 148.499L193.084 110.043L234.556 132.228L210.631 170.684Z" fill="#FB5607"/>
<path d="M193.084 110.043L234.556 132.228L169.16 148.499L193.084 110.043Z" fill="#FF006E"/>
<path d="M169.16 148.499L127.688 126.314L151.613 87.8582L193.084 110.043L169.16 148.499Z" fill="#FF006E"/>
<path d="M151.613 87.8582L172.348 98.9506L148.424 137.407L127.688 126.314L151.613 87.8582Z" fill="#3A86FF"/>
<path d="M234.556 132.228L151.613 87.8582L199.461 10.9461L282.405 55.3158L234.556 132.228Z" fill="#FB5607"/>
<path d="M282.405 55.3157C269.192 76.5544 239.913 83.8392 217.009 71.5869C194.105 59.3346 186.248 32.1848 199.462 10.9461L240.933 33.1309L282.405 55.3157Z" fill="#8338EC"/>
<path d="M282.405 55.3158L240.933 33.131L264.857 -5.32503L306.329 16.8598L282.405 55.3158Z" fill="#FFBE0B"/>
<path d="M264.857 -5.32503L306.329 16.8598L240.933 33.131L264.857 -5.32503Z" fill="#FB5607"/>
<path d="M240.933 33.131L199.461 10.9462L223.386 -27.5098L264.857 -5.32503L240.933 33.131Z" fill="#FFBE0B"/>
<path d="M223.386 -27.5098L264.857 -5.32503L199.461 10.9462L223.386 -27.5098Z" fill="#3A86FF"/>
<path d="M306.329 16.8597L264.857 -5.32507L288.782 -43.7811L330.253 -21.5963L306.329 16.8597Z" fill="#FF006E"/>
<path d="M330.253 -21.5963L306.329 16.8597L288.782 -43.7811L330.253 -21.5963Z" fill="#8338EC"/>
<path d="M8.06598 318.594L-33.4056 296.409L-9.48114 257.953L31.9904 280.138L8.06598 318.594Z" fill="#FB5607"/>
<path d="M8.06598 318.594L-33.4056 296.409L31.9904 280.138L8.06598 318.594Z" fill="#8338EC"/>
<path d="M31.9904 280.138L-9.48114 257.953L14.4433 219.497L55.9149 241.682L31.9904 280.138Z" fill="#FB5607"/>
<path d="M55.9149 241.682L43.9526 260.91L2.48108 238.725L14.4433 219.497L55.9149 241.682Z" fill="#3A86FF"/>
<path d="M-9.48111 257.953L-50.9527 235.769L-27.0282 197.313L14.4433 219.497L-9.48111 257.953Z" fill="#FF006E"/>
<path d="M55.9149 241.682L14.4433 219.497L38.3677 181.041L79.8393 203.226L55.9149 241.682Z" fill="#FB5607"/>
<path d="M14.4433 219.497C21.0499 208.878 35.6892 205.236 47.1413 211.362C58.5934 217.488 62.5214 231.063 55.9149 241.682L35.1791 230.59L14.4433 219.497Z" fill="#FFBE0B"/>
<path d="M14.4433 219.497L-27.0282 197.313L-3.10379 158.857L38.3678 181.041L14.4433 219.497Z" fill="#FF006E"/>
<path d="M14.4433 219.497L-6.29245 208.405L17.632 169.949L38.3678 181.041L14.4433 219.497Z" fill="#8338EC"/>
<path d="M79.8393 203.226L38.3677 181.041L62.2922 142.585L103.764 164.77L79.8393 203.226Z" fill="#FF006E"/>
<path d="M103.764 164.77L79.8393 203.226L62.2922 142.585L103.764 164.77Z" fill="#3A86FF"/>
<path d="M38.3678 181.041L-3.10379 158.857L20.8207 120.401L62.2922 142.585L38.3678 181.041Z" fill="#FB5607"/>
<path d="M62.2922 142.585L50.33 161.813L8.85843 139.629L20.8207 120.401L62.2922 142.585Z" fill="#8338EC"/>
<path d="M103.764 164.77L62.2922 142.585L86.2166 104.129L127.688 126.314L103.764 164.77Z" fill="#FB5607"/>
<path d="M86.2166 104.129C97.6687 110.255 101.597 123.83 94.9902 134.45C88.3836 145.069 73.7442 148.711 62.2922 142.585L74.2544 123.357L86.2166 104.129Z" fill="#FFBE0B"/>
<path d="M62.2922 142.585L20.8206 120.401L44.7451 81.9445L86.2166 104.129L62.2922 142.585Z" fill="#FFBE0B"/>
<path d="M44.7451 81.9445L65.4808 93.0369L41.5564 131.493L20.8206 120.401L44.7451 81.9445Z" fill="#FB5607"/>
<path d="M127.688 126.314L86.2166 104.129L110.141 65.6734L151.613 87.8582L127.688 126.314Z" fill="#FF006E"/>
<path d="M86.2166 104.129C92.8232 93.5101 107.463 89.8676 118.915 95.9938C130.367 102.12 134.295 115.695 127.688 126.314L106.952 115.222L86.2166 104.129Z" fill="#8338EC"/>
<path d="M86.2166 104.129L44.7451 81.9446L68.6695 43.4886L110.141 65.6734L86.2166 104.129Z" fill="#FF006E"/>
<path d="M151.613 87.8582L110.141 65.6733L134.066 27.2173L175.537 49.4021L151.613 87.8582Z" fill="#FFBE0B"/>
<path d="M110.141 65.6733C116.748 55.054 131.387 51.4116 142.839 57.5377C154.291 63.6639 158.219 77.2388 151.613 87.8582L130.877 76.7657L110.141 65.6733Z" fill="#FF006E"/>
<path d="M110.141 65.6733L68.6695 43.4885L92.594 5.03252L134.066 27.2173L110.141 65.6733Z" fill="#FB5607"/>
<path d="M175.537 49.4021L134.066 27.2173L157.99 -11.2387L199.462 10.9461L175.537 49.4021Z" fill="#FFBE0B"/>
<path d="M157.99 -11.2387L178.726 -0.146321L154.801 38.3097L134.066 27.2173L157.99 -11.2387Z" fill="#FF006E"/>
<path d="M134.066 27.2173L92.594 5.03247L116.518 -33.4235L157.99 -11.2387L134.066 27.2173Z" fill="#FF006E"/>
<path d="M199.461 10.9462L116.518 -33.4235L164.367 -110.335L247.31 -65.9659L199.461 10.9462Z" fill="#3A86FF"/>
<path d="M-3.10379 158.857L-44.5753 136.672L-20.6509 98.2157L20.8206 120.401L-3.10379 158.857Z" fill="#3A86FF"/>
<path d="M-20.6509 98.2157C-9.19886 104.342 -5.2708 117.917 -11.8774 128.536C-18.4839 139.155 -33.1233 142.798 -44.5753 136.672L-32.6131 117.444L-20.6509 98.2157Z" fill="#FFBE0B"/>
<path d="M20.8206 120.401L-20.6509 98.2157L3.2735 59.7597L44.7451 81.9445L20.8206 120.401Z" fill="#3A86FF"/>
<path d="M20.8206 120.401C9.36857 114.274 5.44051 100.699 12.0471 90.0801C18.6536 79.4608 33.293 75.8183 44.7451 81.9445L32.7828 101.173L20.8206 120.401Z" fill="#FF006E"/>
<path d="M-20.6509 98.2158L-62.1225 76.031L-38.198 37.575L3.27353 59.7598L-20.6509 98.2158Z" fill="#3A86FF"/>
<path d="M44.7451 81.9446L3.27353 59.7598L27.198 21.3038L68.6695 43.4886L44.7451 81.9446Z" fill="#FF006E"/>
<path d="M3.27353 59.7598L-38.198 37.575L-14.2736 -0.881059L27.198 21.3038L3.27353 59.7598Z" fill="#8338EC"/>
<path d="M-14.2736 -0.881059L27.198 21.3038L-38.198 37.575L-14.2736 -0.881059Z" fill="#FFBE0B"/>
<path d="M68.6695 43.4885L-14.2736 -0.881098L33.5753 -77.7931L116.518 -33.4235L68.6695 43.4885Z" fill="#FB5607"/>
<path d="M116.518 -33.4235L68.6695 43.4885L33.5753 -77.7931L116.518 -33.4235Z" fill="#8338EC"/>
<path d="M114.934 324.508L73.462 302.323L97.3864 263.867L138.858 286.052L114.934 324.508Z" fill="#8338EC"/>
<path d="M97.3864 263.867L138.858 286.052L73.462 302.323L97.3864 263.867Z" fill="#FB5607"/>
<path d="M73.462 302.323L31.9904 280.138L55.9149 241.682L97.3864 263.867L73.462 302.323Z" fill="#3A86FF"/>
<path d="M73.462 302.323L31.9904 280.138L97.3864 263.867L73.462 302.323Z" fill="#FF006E"/>
<path d="M138.858 286.052L55.9149 241.682L103.764 164.77L186.707 209.14L138.858 286.052Z" fill="#FF006E"/>
<path d="M186.707 209.14L145.235 186.955L169.16 148.499L210.631 170.684L186.707 209.14Z" fill="#3A86FF"/>
<path d="M210.631 170.684L186.707 209.14L169.16 148.499L210.631 170.684Z" fill="#FFBE0B"/>
<path d="M145.235 186.955L103.764 164.77L127.688 126.314L169.16 148.499L145.235 186.955Z" fill="#FB5607"/>
<path d="M103.764 164.77L115.726 145.542L157.198 167.727L145.235 186.955L103.764 164.77Z" fill="#FFBE0B"/>
<path d="M210.631 170.684L169.16 148.499L193.084 110.043L234.556 132.228L210.631 170.684Z" fill="#FF006E"/>
<path d="M169.16 148.499L127.688 126.314L151.613 87.8582L193.084 110.043L169.16 148.499Z" fill="#3A86FF"/>
<path d="M234.556 132.228L193.084 110.043L217.009 71.587L258.48 93.7718L234.556 132.228Z" fill="#8338EC"/>
<path d="M258.48 93.7718L234.556 132.228L217.009 71.587L258.48 93.7718Z" fill="#FB5607"/>
<path d="M193.084 110.043L151.613 87.8582L175.537 49.4021L217.009 71.587L193.084 110.043Z" fill="#FB5607"/>
<path d="M193.084 110.043L151.613 87.8582L217.009 71.587L193.084 110.043Z" fill="#8338EC"/>
<path d="M258.48 93.7717L217.009 71.5869L240.933 33.1309L282.405 55.3157L258.48 93.7717Z" fill="#8338EC"/>
<path d="M217.009 71.5869L175.537 49.4021L199.462 10.9461L240.933 33.1309L217.009 71.5869Z" fill="#FFBE0B"/>
<path d="M199.462 10.9461L220.197 22.0385L196.273 60.4945L175.537 49.4021L199.462 10.9461Z" fill="#8338EC"/>
<path d="M282.405 55.3158L199.461 10.9462L247.31 -65.9659L330.253 -21.5962L282.405 55.3158Z" fill="#3A86FF"/>
<path d="M199.461 10.9462L247.31 -65.9659L282.405 55.3158L199.461 10.9462Z" fill="#FF006E"/>
<path d="M8.06598 318.594L-74.8771 274.225L-27.0283 197.313L55.9149 241.682L8.06598 318.594Z" fill="#FB5607"/>
<path d="M-27.0283 197.313L55.9149 241.682L-74.8771 274.225L-27.0283 197.313Z" fill="#FF006E"/>
<path d="M55.9149 241.682L-27.0283 197.313L20.8206 120.401L103.764 164.77L55.9149 241.682Z" fill="#3A86FF"/>
<path d="M55.9149 241.682C33.0108 229.43 25.1546 202.28 38.3677 181.041C51.5808 159.803 80.8596 152.518 103.764 164.77L79.8393 203.226L55.9149 241.682Z" fill="#FB5607"/>
<path d="M103.764 164.77L20.8206 120.401L68.6695 43.4885L151.613 87.8581L103.764 164.77Z" fill="#FB5607"/>
<path d="M20.8206 120.401L44.7451 81.9445L127.688 126.314L103.764 164.77L20.8206 120.401Z" fill="#FFBE0B"/>
<path d="M151.613 87.8582L68.6695 43.4885L116.518 -33.4235L199.462 10.9461L151.613 87.8582Z" fill="#FFBE0B"/>
<path d="M199.462 10.9461C186.248 32.1848 156.97 39.4696 134.066 27.2173C111.161 14.965 103.305 -12.1849 116.518 -33.4235L157.99 -11.2387L199.462 10.9461Z" fill="#FF006E"/>
<path d="M199.461 10.9462L116.518 -33.4235L164.367 -110.335L247.31 -65.9659L199.461 10.9462Z" fill="#3A86FF"/>
<path d="M-27.0283 197.313L-109.971 152.943L-62.1225 76.031L20.8206 120.401L-27.0283 197.313Z" fill="#FB5607"/>
<path d="M20.8206 120.401L-20.6509 98.2157L3.2735 59.7597L44.7451 81.9445L20.8206 120.401Z" fill="#FB5607"/>
<path d="M20.8206 120.401C9.36857 114.274 5.44051 100.699 12.0471 90.0801C18.6536 79.4608 33.293 75.8183 44.7451 81.9445L32.7828 101.173L20.8206 120.401Z" fill="#3A86FF"/>
<path d="M-20.6509 98.2158L-62.1225 76.031L-38.198 37.575L3.27353 59.7598L-20.6509 98.2158Z" fill="#FB5607"/>
<path d="M3.27353 59.7598L-8.68869 78.9878L-50.1602 56.803L-38.198 37.575L3.27353 59.7598Z" fill="#FFBE0B"/>
<path d="M44.7451 81.9446L3.27353 59.7598L27.198 21.3038L68.6695 43.4886L44.7451 81.9446Z" fill="#8338EC"/>
<path d="M27.198 21.3038C38.65 27.4299 42.5781 41.0048 35.9715 51.6242C29.365 62.2435 14.7256 65.8859 3.27353 59.7598L15.2357 40.5318L27.198 21.3038Z" fill="#3A86FF"/>
<path d="M3.27353 59.7598L-38.198 37.575L-14.2736 -0.881059L27.198 21.3038L3.27353 59.7598Z" fill="#3A86FF"/>
<path d="M-14.2736 -0.881059L27.198 21.3038L-38.198 37.575L-14.2736 -0.881059Z" fill="#FB5607"/>
<path d="M68.6695 43.4885L-14.2736 -0.881098L33.5753 -77.7931L116.518 -33.4235L68.6695 43.4885Z" fill="#FFBE0B"/>
<path d="M68.6695 43.4885L27.198 21.3037L75.0468 -55.6083L116.518 -33.4235L68.6695 43.4885Z" fill="#FB5607"/>
</g>
</g>
</g>
<defs>
<clipPath id="clip0_568_10274">
<rect width="470.325" height="452.907" fill="white" transform="matrix(-0.881764 -0.471691 0.528242 -0.849094 91.0091 362.964)"/>
</clipPath>
</defs>
</svg>
