<svg width="261" height="193" viewBox="0 0 261 193" fill="none" xmlns="http://www.w3.org/2000/svg">
<g clip-path="url(#clip0_42_1382)">
<path opacity="0.3" d="M22.124 185.361H242.037C253.201 185.361 261.969 176.195 260.949 165.552C260.134 156.793 256.004 148.34 249.021 142.789C244.484 139.174 238.927 136.679 235.257 132.197C227.611 122.777 231.434 108.773 237.704 98.4351C243.821 88.3523 251.926 79.237 255.801 68.1866C259.675 57.1362 257.84 42.7757 247.491 36.7668C240.813 32.8966 232.504 33.4568 224.705 33.2531C216.905 32.9984 208.137 31.1652 204.161 24.647C200.797 19.0454 202.02 11.6106 198.401 6.16177C193.099 -1.7823 180.967 -1.12029 171.689 1.78235C153.083 7.5367 134.935 8.65701 115.462 9.52271C100.271 10.2356 85.5388 4.53221 70.3478 3.66651C50.467 2.5462 14.0187 14.004 1.63141 49.5995C-0.815465 56.6779 3.46657 67.8301 7.54469 74.1446C11.7757 80.6119 19.3203 84.6858 22.9906 91.5095C28.2922 101.389 23.8062 113.559 17.5871 122.878C11.3679 132.197 3.26266 140.854 0.764808 151.752C-1.42718 161.224 1.2236 171.612 7.69762 178.996L7.7486 179.047C11.317 183.121 16.6185 185.361 22.124 185.361Z" fill="#D2E4FF"/>
<path d="M201.306 15.7354H185.198C185.096 15.7354 184.994 15.6335 184.994 15.5317C184.994 15.4299 185.096 15.328 185.198 15.328H201.306C201.408 15.328 201.51 15.4299 201.51 15.5317C201.51 15.6335 201.408 15.7354 201.306 15.7354ZM201.306 23.6795H185.198C185.096 23.6795 184.994 23.5776 184.994 23.4758C184.994 23.3739 185.096 23.2721 185.198 23.2721H201.306C201.408 23.2721 201.51 23.3739 201.51 23.4758C201.51 23.5776 201.408 23.6795 201.306 23.6795ZM198.35 19.7074H175.563C175.461 19.7074 175.359 19.6056 175.359 19.5037C175.359 19.4019 175.461 19.3 175.563 19.3H198.35C198.452 19.3 198.554 19.4019 198.554 19.5037C198.554 19.6056 198.452 19.7074 198.35 19.7074Z" fill="#C6E2FA"/>
<path d="M188.511 15.7354C188.409 15.7354 188.307 15.6336 188.307 15.5317V12.1198C188.307 12.018 188.409 11.9161 188.511 11.9161C188.613 11.9161 188.715 12.018 188.715 12.1198V15.5317C188.715 15.6336 188.613 15.7354 188.511 15.7354ZM194.17 19.7074C194.068 19.7074 193.966 19.6056 193.966 19.5037V15.5317C193.966 15.4299 194.068 15.328 194.17 15.328C194.272 15.328 194.374 15.4299 194.374 15.5317V19.5037C194.374 19.6056 194.272 19.7074 194.17 19.7074ZM189.837 23.5776C189.735 23.5776 189.633 23.4758 189.633 23.3739V19.5037C189.633 19.4019 189.735 19.3 189.837 19.3C189.939 19.3 190.041 19.4019 190.041 19.5037V23.3739C190.041 23.4758 189.939 23.5776 189.837 23.5776ZM96.9574 134.845H78.3C78.1981 134.845 78.0961 134.744 78.0961 134.642C78.0961 134.54 78.1981 134.438 78.3 134.438H96.9574C97.0594 134.438 97.1614 134.54 97.1614 134.642C97.1614 134.744 97.0594 134.845 96.9574 134.845ZM96.9574 144.114H78.3C78.1981 144.114 78.0961 144.012 78.0961 143.91C78.0961 143.808 78.1981 143.706 78.3 143.706H96.9574C97.0594 143.706 97.1614 143.808 97.1614 143.91C97.1614 144.012 97.0594 144.114 96.9574 144.114ZM93.542 139.479H67.1362C67.0342 139.479 66.9323 139.378 66.9323 139.276C66.9323 139.174 67.0342 139.072 67.1362 139.072H93.542C93.644 139.072 93.7459 139.174 93.7459 139.276C93.7459 139.378 93.644 139.479 93.542 139.479Z" fill="#C6E2FA"/>
<path d="M82.1232 134.845C82.0213 134.845 81.9193 134.743 81.9193 134.642V130.721C81.9193 130.619 82.0213 130.517 82.1232 130.517C82.2252 130.517 82.3271 130.619 82.3271 130.721V134.642C82.3271 134.743 82.2252 134.845 82.1232 134.845ZM88.6992 139.479C88.5972 139.479 88.4953 139.378 88.4953 139.276V134.642C88.4953 134.54 88.5972 134.438 88.6992 134.438C88.8011 134.438 88.9031 134.54 88.9031 134.642V139.276C88.8521 139.378 88.8011 139.479 88.6992 139.479ZM83.7035 143.961C83.6015 143.961 83.4996 143.859 83.4996 143.757V139.276C83.4996 139.174 83.6015 139.072 83.7035 139.072C83.8054 139.072 83.9074 139.174 83.9074 139.276V143.757C83.8564 143.859 83.8054 143.961 83.7035 143.961Z" fill="#C6E2FA"/>
<path d="M41.24 82.9543L41.8007 83.6673C41.5458 83.6673 41.4439 83.6673 41.4439 83.6673L41.24 82.9543Z" fill="#FF7545"/>
<path d="M48.3258 184.699V182.968H38.0285C37.8756 186.278 37.6207 192.593 37.5697 192.593H54.341C54.9017 187.093 48.3258 184.699 48.3258 184.699Z" fill="#6193F6"/>
<path d="M54.0861 190.199C54.29 190.912 54.392 191.727 54.341 192.593H37.5697C37.6207 192.593 37.6717 191.625 37.7226 190.199H54.0861Z" fill="#060405"/>
<path d="M22.2768 184.699V182.968H11.9285C11.7756 186.278 11.5207 192.593 11.4697 192.593H28.241C28.8018 187.093 22.2768 184.699 22.2768 184.699Z" fill="#6193F6"/>
<path d="M27.9861 190.199C28.19 190.912 28.292 191.727 28.241 192.593H11.4697C11.5207 192.593 11.5717 191.625 11.6227 190.199H27.9861ZM11.4697 184.75C11.4697 185.565 23.5512 185.565 23.5512 184.75L31.4016 133.267L37.3658 184.139C37.3658 185.005 49.4473 185.005 49.4473 184.139L48.0709 112.745H14.5283L11.4697 184.75Z" fill="#060405"/>
<path d="M63.9246 78.0658C62.7521 81.7832 56.3801 81.9869 51.2314 82.4961L48.5297 69.5616L52.7098 69.5106L45.0633 55.4557C45.0633 55.4557 42.5654 54.59 42.2596 53.7243C41.9537 52.8077 43.6359 52.7568 43.6359 52.7568C43.6359 52.7568 35.4797 46.7987 41.0871 45.271C46.7455 43.7433 48.7846 50.4652 48.7846 50.4652C48.7846 50.4652 67.1871 67.8811 63.9246 78.0658Z" fill="white"/>
<path d="M51.2825 82.8016C51.1805 82.8016 51.0785 82.6998 51.0276 82.5979L48.3258 69.6634C48.3258 69.6124 48.3258 69.5106 48.3768 69.4597C48.4278 69.4087 48.4787 69.3578 48.5807 69.3578L52.353 69.3069L44.9614 55.7103C44.4516 55.5066 42.3616 54.7428 42.1067 53.8261C42.0047 53.4697 42.1067 53.266 42.2086 53.1132C42.4125 52.8586 42.7694 52.7058 43.1262 52.604C41.8518 51.5855 38.6403 48.8356 38.9971 46.7987C39.15 45.9839 39.8637 45.3728 41.1381 45.0164C46.6436 43.5396 48.8866 49.5995 49.0905 50.3124C50.3139 51.4837 67.391 68.0847 64.1795 78.1676C63.058 81.6813 57.5526 82.1905 52.7098 82.6488C52.251 82.6998 51.7922 82.7507 51.2825 82.8016ZM48.8865 69.8161L51.4354 82.2415C51.8432 82.1905 52.251 82.1396 52.6588 82.1396C57.3487 81.6813 62.6502 81.223 63.6698 78.0148C66.8303 68.0847 48.8356 50.8217 48.6317 50.618C48.5807 50.567 48.5807 50.567 48.5807 50.5161C48.4787 50.2615 46.5416 44.0488 41.1891 45.4747C40.1186 45.7802 39.5578 46.2386 39.4049 46.8496C39.0991 48.632 42.4635 51.5346 43.7889 52.5021C43.8908 52.5531 43.8909 52.6549 43.8909 52.8077C43.8399 52.9095 43.7889 52.9605 43.636 53.0114C43.2791 53.0114 42.6674 53.1132 42.5145 53.3678C42.4635 53.4188 42.4635 53.4697 42.4635 53.6225C42.6164 54.1826 44.1967 54.8955 45.1143 55.2011C45.1653 55.2011 45.2162 55.252 45.2672 55.3029L52.9137 69.3578C52.9647 69.4597 52.9647 69.5106 52.9137 69.6124C52.8627 69.7143 52.8117 69.7143 52.7098 69.7143L48.8865 69.8161Z" fill="#060405"/>
<path d="M51.8431 83.7182C47.1023 84.4312 43.1771 83.7182 41.8007 83.6673L41.24 82.9544L37.4167 70.6309L41.0871 65.5895L49.855 67.9829C52.4548 71.8021 53.2195 79.186 51.8431 83.7182Z" fill="#FF7545"/>
<path d="M13.1519 66.7607C15.4459 62.9414 41.0361 62.2794 45.4201 68.3393C49.957 74.6029 48.9884 116.156 48.9884 116.156C49.2943 120.383 11.9285 120.587 11.6226 116.36C11.6226 116.309 10.807 70.6818 13.1519 66.7607Z" fill="#FF7545"/>
<path d="M27.1705 117.175H36.0914C36.3462 117.175 36.5501 117.022 36.7031 116.819L43.279 103.375C43.4829 102.916 43.1771 102.458 42.6673 102.458H33.7464C33.4915 102.458 33.2876 102.611 33.1347 102.815L26.5587 116.258C26.3548 116.666 26.7117 117.175 27.1705 117.175Z" fill="white"/>
<path d="M36.0914 117.43H27.1705C26.8647 117.43 26.5588 117.277 26.4059 117.022C26.253 116.768 26.202 116.411 26.3549 116.157L32.9309 102.713C33.0838 102.407 33.3897 102.203 33.7465 102.203H42.6674C42.9733 102.203 43.2791 102.356 43.4321 102.611C43.585 102.865 43.636 103.222 43.483 103.477L36.9071 116.92C36.7541 117.226 36.4483 117.43 36.0914 117.43ZM33.7465 102.662C33.5936 102.662 33.4407 102.764 33.3897 102.865L26.8137 116.309C26.7627 116.411 26.7627 116.564 26.8137 116.717C26.8647 116.819 27.0176 116.92 27.1705 116.92H36.0914C36.2444 116.92 36.3973 116.819 36.4483 116.717L43.0242 103.273C43.0752 103.171 43.0752 103.018 43.0242 102.865C42.9733 102.764 42.8203 102.662 42.6674 102.662H33.7465Z" fill="#060405"/>
<path d="M0.254859 93.7501C0.560719 98.7916 24.6217 110.046 24.6217 110.046C24.6217 110.046 30.1271 118.092 34.766 114.17C39.3539 110.249 30.5859 108.111 30.5859 108.111L31.7584 105.666C31.7074 104.24 28.0881 106.175 28.0881 106.175L12.7951 92.6807L16.3635 86.519L4.43494 81.0702C4.33298 81.1211 0.050953 90.6438 0.254859 93.7501Z" fill="white"/>
<path d="M31.9623 115.545C31.7584 115.545 31.5545 115.545 31.3506 115.494C27.8842 115.036 24.8256 110.809 24.4178 110.249C22.7865 109.485 0.305843 98.8424 -1.61598e-05 93.7501C-0.203922 90.5928 3.92518 81.3757 4.12909 81.0192C4.18006 80.9683 4.23104 80.9174 4.28202 80.8665C4.33299 80.8665 4.43494 80.8665 4.48592 80.8665L16.4144 86.3153C16.4654 86.3662 16.5164 86.4171 16.5674 86.468C16.6183 86.519 16.5674 86.6208 16.5674 86.6717L13.05 92.6807L28.0371 105.921C28.7508 105.564 30.7389 104.597 31.5545 105.055C31.7074 105.157 31.9113 105.31 31.9113 105.717C31.9113 105.768 31.9113 105.819 31.8603 105.819L30.7898 108.009C31.9113 108.314 35.6326 109.485 36.1424 111.573C36.3463 112.49 35.8875 113.457 34.766 114.425C34.0014 115.138 32.9818 115.545 31.9623 115.545ZM0.509749 93.7501C0.815609 98.5878 24.4687 109.74 24.7236 109.842C24.7746 109.842 24.8256 109.893 24.8256 109.944C24.8765 109.995 28.0371 114.578 31.4525 115.036C32.574 115.189 33.6445 114.883 34.5621 114.069C35.5307 113.254 35.9385 112.439 35.7855 111.726C35.2758 109.638 30.5349 108.467 30.484 108.467C30.433 108.467 30.331 108.416 30.331 108.314C30.2801 108.263 30.2801 108.161 30.331 108.111L31.5035 105.717C31.5035 105.615 31.4525 105.564 31.4015 105.564C30.9428 105.31 29.2605 105.972 28.19 106.532C28.0881 106.583 27.9861 106.583 27.8842 106.481L12.5912 92.9862C12.4892 92.8844 12.4892 92.7825 12.5402 92.6807L15.9556 86.7736L4.48592 81.4775C3.82323 82.9543 0.305843 91.0002 0.509749 93.7501Z" fill="#060405"/>
<path d="M14.6303 65.6404C14.3244 65.8441 11.1639 67.0662 8.56407 70.9873C6.72891 73.7881 2.95665 81.7322 2.95665 81.7322C1.83516 83.0562 13.6108 92.0188 14.9871 90.2874C14.9871 90.2874 20.2887 82.0377 20.4926 77.6074C20.7984 71.9549 14.6303 65.6404 14.6303 65.6404Z" fill="#FF7545"/>
<path d="M14.4264 90.7457C14.3754 90.7457 14.3245 90.7457 14.3245 90.7457C11.8776 90.5929 4.58793 85.5005 3.00766 82.8525C2.95668 82.7507 2.95668 82.5979 3.10961 82.4961C3.21157 82.4451 3.3645 82.4451 3.46645 82.5979C4.94477 85.0932 12.1325 90.0837 14.3754 90.2364C14.5793 90.2364 14.7323 90.2364 14.7832 90.1346C14.8342 90.0837 20.0338 81.9359 20.2377 77.6074C20.2377 77.4546 20.3397 77.3528 20.4926 77.3528C20.6455 77.3528 20.7475 77.4546 20.7475 77.6074C20.5436 82.0377 15.395 90.0327 15.1911 90.3892C14.9872 90.6438 14.7832 90.7457 14.4264 90.7457Z" fill="#060405"/>
<path d="M33.6445 59.8351C33.6445 59.8351 31.9623 61.7702 33.2877 63.8071C34.2563 65.3348 35.2758 68.5939 33.5936 69.5105C30.8408 70.9364 25.4373 64.4182 25.4373 64.4182L25.2334 50.0068L33.6445 59.8351Z" fill="white"/>
<path d="M32.7269 69.9179C29.7193 69.9179 25.1824 64.2654 24.9785 64.0108L24.9275 63.9599V49.3448L34.0013 59.886L33.8484 60.0388C33.7974 60.0897 32.3191 61.872 33.4916 63.7053C34.1542 64.7237 35.0208 66.9134 34.613 68.4921C34.4601 69.0522 34.1542 69.5105 33.6445 69.7652C33.3896 69.867 33.0837 69.9179 32.7269 69.9179ZM25.4373 63.7562C27.0175 65.7422 31.3505 70.3253 33.4406 69.2559C33.7974 69.0522 34.0013 68.7467 34.1542 68.3393C34.5111 67.0153 33.7464 64.9783 33.0837 63.9599C31.9113 62.1776 32.9308 60.3952 33.3386 59.886L25.4373 50.7198V63.7562ZM40.9851 48.2245C38.2833 49.905 35.5816 49.1411 35.5816 49.1411L32.472 42.3683L34.8169 40.1277L41.4439 41.6045C41.4949 41.5535 43.6869 46.544 40.9851 48.2245Z" fill="#060405"/>
<path d="M25.4882 48.1227C25.6411 48.3264 26.9156 61.7192 35.0208 60.8026C43.1261 59.886 40.9851 43.234 37.3657 39.5675C33.7464 35.901 26.4058 39.1601 26.4058 39.1601L24.0099 44.9654L25.4882 48.1227Z" fill="white"/>
<path d="M34.2562 61.1081C29.8212 61.1081 26.7116 56.7287 25.3353 48.6319C25.2843 48.4282 25.2843 48.2754 25.2843 48.2245L23.755 44.9654L26.2529 38.9564L26.3548 38.9055C26.6607 38.7527 33.8993 35.5446 37.5697 39.3638C40.2714 42.1137 41.9536 51.1271 40.0165 56.6269C39.099 59.2749 37.3658 60.8026 35.0718 61.0572C34.7659 61.0572 34.5111 61.1081 34.2562 61.1081ZM25.7431 48.0208C25.7941 48.0717 25.7941 48.1736 25.845 48.53C27.2724 56.8815 30.382 61.0572 34.9698 60.548C37.1109 60.2934 38.5892 58.9184 39.5068 56.4741C41.3929 51.2799 39.7107 42.3683 37.2128 39.7712C34.0013 36.4612 27.4763 39.0583 26.6607 39.4147L24.3157 45.0163L25.7431 48.0208Z" fill="#060405"/>
<path d="M32.2502 49.0414C32.5596 49.0295 32.7965 48.6554 32.7791 48.2057C32.7618 47.756 32.4969 47.4011 32.1874 47.413C31.878 47.4249 31.6411 47.7991 31.6584 48.2488C31.6758 48.6984 31.9407 49.0533 32.2502 49.0414Z" fill="#060405"/>
<path d="M37.5517 48.9916C37.8611 48.9797 38.098 48.6056 38.0807 48.1559C38.0633 47.7062 37.7984 47.3513 37.4889 47.3632C37.1795 47.3751 36.9426 47.7493 36.96 48.199C36.9773 48.6486 37.2422 49.0035 37.5517 48.9916Z" fill="#060405"/>
<path d="M34.9189 53.3169L34.613 52.9095C34.8169 52.7568 35.0208 52.7058 35.2247 52.7058H35.3267C35.4796 52.7058 35.6325 52.604 35.6325 52.5531C35.6325 52.4512 35.5306 52.2984 35.4286 52.1966C34.613 51.3309 34.2562 50.0578 34.5111 48.9375L35.0208 49.0393C34.7659 50.0069 35.0718 51.1272 35.7855 51.8401C35.9894 52.0438 36.2443 52.2984 36.1423 52.6549C36.0913 52.9604 35.8365 53.1641 35.4286 53.2151H35.2757C35.1228 53.2151 34.9698 53.266 34.9189 53.3169ZM34.3581 57.1871C34.2562 56.8816 33.9503 56.576 33.6445 56.4742C33.3386 56.3214 32.9308 56.3214 32.6249 56.4742L32.421 56.0159C32.8798 55.8631 33.3896 55.8631 33.7974 56.0668C34.2562 56.2705 34.613 56.6269 34.7659 57.0853L34.3581 57.1871Z" fill="#060405"/>
<path d="M29.4134 44.3034C29.1585 45.5256 28.139 51.0253 27.5783 50.1087C26.5587 48.4282 26.1509 45.6784 26.0999 50.4652C26.1509 52.2475 25.5902 54.9465 25.5902 54.9465C24.0099 54.9465 19.1162 45.3728 23.0923 42.8776C22.9904 41.3499 22.7355 40.0259 23.1433 38.5491C23.5511 37.0723 24.4177 35.6974 25.7941 35.0354C27.9861 33.9151 30.7388 34.9335 33.1347 34.2715C33.8994 34.0678 34.613 33.6604 35.3777 33.3549C36.1423 33.0494 36.958 32.7947 37.7226 32.8966C38.5382 32.9984 39.3029 33.5586 39.5068 34.3224C39.6597 35.0354 39.3539 35.7992 39.5068 36.5122C39.7617 37.6325 40.6283 36.7159 41.6988 36.8177C42.8203 36.9195 42.7693 36.7668 43.7888 37.2251C44.9103 37.6834 46.0828 40.2805 46.1337 41.4517C46.1847 42.6739 45.522 43.8451 44.4515 44.4053C43.0242 45.1691 42.5144 44.7618 40.9341 44.3544C39.3539 43.947 37.5697 43.5905 36.1933 44.4053C35.4796 44.8636 34.9189 45.5765 34.1542 45.933C33.2876 46.3404 32.3191 46.2385 31.4525 45.8312C30.6878 45.5256 30.1271 44.8636 29.4134 44.3034Z" fill="#060405"/>
<path d="M48.3768 84.2784C48.2238 84.2784 48.1219 84.1765 48.1219 84.0238C48.1219 81.7322 48.0199 78.0657 47.5102 77.3528C47.4082 77.2509 47.4592 77.0982 47.5611 76.9963C47.6631 76.8945 47.816 76.9454 47.918 77.0472C48.6316 78.1166 48.6316 83.4127 48.6316 84.0238C48.6316 84.1256 48.5297 84.2784 48.3768 84.2784Z" fill="#060405"/>
<path d="M144.009 24.3924H127.9C127.798 24.3924 127.696 24.2905 127.696 24.1887C127.696 24.0868 127.798 23.985 127.9 23.985H144.009C144.111 23.985 144.213 24.0868 144.213 24.1887C144.213 24.2905 144.111 24.3924 144.009 24.3924Z" fill="#C6E2FA"/>
<path d="M224.603 84.9405H223.634V84.4313H224.603C224.96 84.4313 225.266 84.3803 225.622 84.3294L225.724 84.8387C225.367 84.8896 224.96 84.9405 224.603 84.9405ZM221.595 84.9405H219.556V84.4313H221.595V84.9405ZM217.517 84.9405H215.478V84.4313H217.517V84.9405ZM213.439 84.9405H211.4V84.4313H213.439V84.9405ZM209.361 84.9405H207.322V84.4313H209.361V84.9405ZM205.283 84.9405H203.244V84.4313H205.283V84.9405ZM201.205 84.9405H199.166V84.4313H201.205V84.9405ZM197.126 84.9405H195.087V84.4313H197.126V84.9405ZM193.048 84.9405H191.009V84.4313H193.048V84.9405ZM188.97 84.9405H186.931V84.4313H188.97V84.9405ZM184.892 84.9405H182.853V84.4313H184.892V84.9405ZM227.661 83.973L227.356 83.5656C227.916 83.2091 228.324 82.7508 228.681 82.1906L229.089 82.4453C228.732 83.0563 228.273 83.5656 227.661 83.973ZM229.904 80.5102L229.395 80.4083C229.446 80.1028 229.497 79.8482 229.497 79.5426V78.4223H230.006V79.5426C230.006 79.8482 229.955 80.1537 229.904 80.5102ZM230.006 76.3854H229.497V74.3484H230.006V76.3854ZM230.006 72.3115H229.497V70.2745H230.006V72.3115ZM230.006 68.2376H229.497V66.2007H230.006V68.2376ZM230.006 64.1637H229.497V62.1268H230.006V64.1637ZM230.006 60.0898H229.497V58.0529H230.006V60.0898ZM230.006 56.016H229.497V53.979H230.006V56.016ZM230.006 51.9421H229.497V49.9052H230.006V51.9421Z" fill="#060405"/>
<path d="M191.06 33.0494V174.922C191.06 176.348 190.805 177.672 190.296 178.894C188.715 182.714 184.994 185.362 180.61 185.362H101.29C95.4791 185.362 90.7893 180.677 90.7893 174.922V33.0494C90.7893 27.2441 95.4791 22.6101 101.29 22.6101H180.61C186.37 22.6101 191.06 27.2441 191.06 33.0494Z" fill="#060405"/>
<path d="M101.29 181.033C97.875 181.033 95.1223 178.283 95.1223 174.871V33.0494C95.1223 29.6376 97.875 26.8877 101.29 26.8877H180.61C184.025 26.8877 186.778 29.6376 186.778 33.0494V174.871C186.778 178.283 184.025 181.033 180.61 181.033H101.29Z" fill="white"/>
<path d="M152.318 31.6745C152.318 32.0309 152.165 32.3365 151.961 32.5402C151.757 32.7438 151.4 32.8966 151.095 32.8966H135.088C134.374 32.8966 133.813 32.3365 133.813 31.6235C133.813 31.2671 133.966 30.9615 134.17 30.7578C134.374 30.5541 134.731 30.4014 135.037 30.4014H150.993C151.757 30.4014 152.318 30.9615 152.318 31.6745Z" fill="#060405"/>
<path d="M130.653 33.304C131.554 33.304 132.284 32.5744 132.284 31.6745C132.284 30.7745 131.554 30.0449 130.653 30.0449C129.752 30.0449 129.022 30.7745 129.022 31.6745C129.022 32.5744 129.752 33.304 130.653 33.304Z" fill="#060405"/>
<path d="M163.023 69.5105C162.462 77.6583 157.314 84.3802 150.33 87.3847C147.322 88.7087 143.958 89.3198 140.491 89.0652C137.025 88.8105 133.762 87.7411 130.959 86.0607C124.434 82.0886 120.305 74.7047 120.865 66.557C121.681 54.9464 131.774 46.1876 143.397 47.0024C155.071 47.7662 163.839 57.9 163.023 69.5105Z" fill="#6193F6"/>
<path d="M150.33 87.3847C147.322 88.7087 143.958 89.3198 140.491 89.0651C137.025 88.8105 133.762 87.7411 130.959 86.0607C133.457 83.4126 137.076 81.8849 140.95 82.1905C144.875 82.3942 148.24 84.4311 150.33 87.3847Z" fill="#F2CB2A"/>
<path d="M143.907 82.8525C143.856 83.4127 137.79 82.9544 137.79 82.4451L138.044 78.6259L144.162 79.0332L143.907 82.8525Z" fill="white"/>
<path d="M131.825 65.9969C131.723 67.3718 131.978 68.7977 132.845 69.867C133.508 70.6818 134.425 71.1911 135.445 71.5475C136.413 71.8531 137.484 71.9549 138.503 72.0568C142.327 72.3114 146.201 72.1077 150.024 71.8531C150.738 71.8021 151.451 71.7512 152.012 71.3438C152.726 70.8346 152.981 69.7652 152.624 69.0013C152.318 68.3903 151.757 68.0338 151.196 67.6264C149.463 66.5061 147.73 65.3349 145.997 64.2145C144.722 63.3998 143.448 62.5341 142.021 62.1267C139.778 61.5156 137.433 61.923 135.139 62.3304C134.629 62.4322 134.119 62.5341 133.61 62.4322C133.1 62.3813 132.845 62.0248 132.641 62.585C132.182 63.7053 131.927 64.8766 131.825 65.9969Z" fill="#060405"/>
<path d="M148.903 70.9874C148.546 75.927 145.028 80.7647 141.154 80.5101C137.28 80.2555 134.476 74.9085 134.833 69.9689C135.19 65.0293 138.554 62.3304 142.428 62.585C146.303 62.8396 149.259 66.0478 148.903 70.9874Z" fill="white"/>
<path d="M145.569 70.2403C145.608 69.6792 145.299 69.2003 144.877 69.1707C144.456 69.1411 144.083 69.5719 144.043 70.133C144.004 70.6941 144.313 71.1729 144.734 71.2026C145.156 71.2322 145.529 70.8014 145.569 70.2403Z" fill="#060405"/>
<path d="M139.704 69.8199C139.743 69.2588 139.434 68.7799 139.013 68.7503C138.591 68.7207 138.218 69.1515 138.178 69.7126C138.139 70.2737 138.448 70.7525 138.87 70.7822C139.291 70.8118 139.664 70.381 139.704 69.8199Z" fill="#060405"/>
<path d="M141.511 77.9129C141.46 77.9129 141.46 77.9129 141.511 77.9129C140.695 77.9129 139.931 77.6074 139.319 77.149C139.064 76.9453 139.013 76.538 139.217 76.2324C139.421 75.9778 139.829 75.9269 140.134 76.1306C140.491 76.4361 141.001 76.5889 141.46 76.6398C141.919 76.6398 142.428 76.487 142.836 76.1815C143.142 75.9778 143.499 76.0287 143.754 76.2833C143.958 76.5889 143.907 76.9454 143.652 77.2C142.989 77.7092 142.225 77.9129 141.511 77.9129Z" fill="#060405"/>
<path d="M133.151 65.8441C133.966 66.6079 135.088 67.1172 136.209 67.1681C137.433 67.219 138.605 66.7607 139.778 66.7098C143.907 66.4042 147.373 70.1217 151.502 70.0707C152.42 70.0707 153.388 69.8161 154 69.205C154.663 68.5939 154.867 67.5755 154.306 66.8626C153.796 66.2005 152.777 65.9969 152.369 65.2839C151.961 64.5201 152.522 63.6035 153.083 62.9414C153.643 62.2794 154.306 61.5156 154.153 60.6499C154 59.886 153.236 59.3768 152.471 59.1731C151.706 58.9694 150.891 58.9694 150.075 58.8166C149.31 58.6639 148.495 58.2565 148.189 57.5945C147.883 56.8816 148.189 56.0668 148.597 55.3538C148.953 54.6409 149.412 53.928 149.31 53.1132C149.208 52.2984 148.495 51.6364 147.679 51.3309C146.863 51.0254 145.946 51.0253 145.079 51.1272C141.817 51.4327 138.707 52.8077 136.362 54.8955C135.088 56.0159 134.068 57.3399 133.304 58.8166C132.641 60.0897 131.774 61.923 131.927 63.3998C132.029 64.3164 132.488 65.1821 133.151 65.8441Z" fill="#060405"/>
<path d="M141.715 75.3667C141.613 75.3667 141.511 75.3667 141.409 75.2648C140.899 75.0102 140.593 74.3991 140.644 73.7371C140.644 73.3807 140.746 73.0751 140.848 72.7696L140.899 72.515C141.103 71.853 141.103 71.0891 140.95 70.4271C140.899 70.0706 141.103 69.7651 141.46 69.6633C141.817 69.6123 142.123 69.816 142.225 70.1725C142.428 71.0891 142.378 72.0057 142.123 72.8714L142.021 73.1261C141.97 73.3298 141.868 73.5844 141.868 73.7371C141.868 73.9408 141.919 74.0427 141.97 74.0936C142.276 74.2464 142.378 74.6538 142.225 74.9593C142.174 75.2648 141.97 75.3667 141.715 75.3667Z" fill="#060405"/>
<path d="M171.026 114.832H110.313C109.141 114.832 108.223 113.916 108.223 112.745V101.134C108.223 99.9628 109.141 99.0461 110.313 99.0461H171.026C172.199 99.0461 173.116 99.9628 173.116 101.134V112.745C173.116 113.916 172.199 114.832 171.026 114.832Z" fill="#D2E4FF"/>
<path d="M160.831 135.151H117.348C116.176 135.151 115.258 134.234 115.258 133.063V123.286C115.258 122.115 116.176 121.198 117.348 121.198H160.831C162.004 121.198 162.921 122.115 162.921 123.286V133.063C162.921 134.183 161.953 135.151 160.831 135.151Z" fill="black"/>
<path d="M122.956 107.652L121.222 106.99L123.006 106.277C123.21 106.125 123.312 105.921 123.312 105.666C123.312 105.564 123.261 105.463 123.21 105.31C123.057 105.055 122.854 104.953 122.599 104.953C122.446 104.953 122.344 105.004 122.293 105.055C122.242 105.055 122.191 105.106 120.814 106.226C121.069 104.444 121.069 104.393 121.069 104.342C121.069 104.138 121.018 103.986 120.865 103.833C120.611 103.578 120.152 103.578 119.897 103.833C119.744 103.986 119.693 104.138 119.693 104.342C119.693 104.393 119.693 104.444 119.948 106.226C118.572 105.106 118.47 105.055 118.47 105.055C118.368 105.004 118.266 104.953 118.113 104.953C117.858 104.953 117.654 105.055 117.501 105.31C117.45 105.412 117.399 105.564 117.399 105.666C117.399 105.921 117.501 106.125 117.756 106.277L119.489 106.939L117.756 107.601C117.552 107.703 117.399 107.907 117.399 108.161C117.399 108.314 117.45 108.416 117.501 108.518C117.654 108.773 117.858 108.874 118.113 108.874C118.215 108.874 118.317 108.874 118.419 108.823C118.47 108.823 118.521 108.773 119.897 107.652C119.642 109.435 119.642 109.485 119.642 109.536C119.642 109.74 119.693 109.893 119.846 110.046C119.999 110.198 120.152 110.249 120.356 110.249C120.56 110.249 120.713 110.198 120.865 110.046C121.018 109.893 121.069 109.74 121.069 109.536C121.069 109.536 121.069 109.435 120.814 107.652C122.242 108.773 122.293 108.823 122.293 108.823C122.395 108.874 122.497 108.874 122.599 108.874C122.854 108.874 123.057 108.773 123.21 108.518C123.261 108.416 123.312 108.263 123.312 108.161C123.312 107.958 123.21 107.754 122.956 107.652ZM132.743 107.652L131.01 106.939L132.794 106.226C132.998 106.074 133.1 105.87 133.1 105.615C133.1 105.513 133.049 105.412 132.998 105.259C132.845 105.004 132.641 104.902 132.386 104.902C132.233 104.902 132.131 104.953 132.08 105.004C132.029 105.004 131.978 105.055 130.602 106.175C130.857 104.393 130.857 104.342 130.857 104.291C130.857 104.088 130.806 103.935 130.653 103.782C130.398 103.527 129.939 103.527 129.684 103.782C129.531 103.935 129.481 104.088 129.481 104.291C129.481 104.342 129.481 104.393 129.735 106.175C128.359 105.055 128.257 105.004 128.257 105.004C128.155 104.953 128.053 104.902 127.9 104.902C127.645 104.902 127.441 105.004 127.289 105.259C127.238 105.361 127.187 105.513 127.187 105.615C127.187 105.87 127.289 106.074 127.543 106.226L129.277 106.888L127.543 107.55C127.339 107.652 127.187 107.856 127.187 108.111C127.187 108.263 127.238 108.365 127.289 108.467C127.441 108.722 127.645 108.823 127.9 108.823C128.002 108.823 128.104 108.823 128.206 108.773C128.257 108.773 128.308 108.722 129.684 107.601C129.43 109.384 129.43 109.435 129.43 109.485C129.43 109.689 129.48 109.842 129.633 109.995C129.786 110.147 129.939 110.198 130.143 110.198C130.347 110.198 130.5 110.147 130.653 109.995C130.806 109.842 130.857 109.689 130.857 109.485C130.857 109.485 130.857 109.384 130.602 107.601C132.029 108.722 132.08 108.773 132.08 108.773C132.182 108.823 132.284 108.823 132.386 108.823C132.641 108.823 132.845 108.722 132.998 108.467C133.049 108.365 133.1 108.212 133.1 108.111C133.1 107.958 132.947 107.754 132.743 107.652ZM142.531 107.652L140.797 106.99L142.581 106.277C142.785 106.125 142.887 105.921 142.887 105.666C142.887 105.564 142.836 105.463 142.785 105.31C142.632 105.055 142.429 104.953 142.174 104.953C142.021 104.953 141.919 105.004 141.868 105.055C141.817 105.055 141.766 105.106 140.389 106.226C140.644 104.444 140.644 104.393 140.644 104.342C140.644 104.138 140.593 103.986 140.44 103.833C140.186 103.578 139.727 103.578 139.472 103.833C139.319 103.986 139.268 104.138 139.268 104.342C139.268 104.393 139.268 104.444 139.523 106.226C138.147 105.106 138.045 105.055 138.045 105.055C137.943 105.004 137.841 104.953 137.688 104.953C137.433 104.953 137.229 105.055 137.076 105.31C137.025 105.412 136.974 105.564 136.974 105.666C136.974 105.921 137.076 106.125 137.331 106.277L139.064 106.939L137.331 107.601C137.127 107.703 136.974 107.907 136.974 108.161C136.974 108.314 137.025 108.416 137.076 108.518C137.229 108.773 137.433 108.874 137.688 108.874C137.79 108.874 137.892 108.874 137.994 108.823C138.045 108.823 138.096 108.773 139.472 107.652C139.217 109.435 139.217 109.485 139.217 109.536C139.217 109.74 139.268 109.893 139.421 110.046C139.574 110.198 139.727 110.249 139.931 110.249C140.135 110.249 140.288 110.198 140.44 110.046C140.593 109.893 140.644 109.74 140.644 109.536C140.644 109.536 140.644 109.435 140.389 107.652C141.817 108.773 141.868 108.823 141.868 108.823C141.97 108.874 142.072 108.874 142.174 108.874C142.429 108.874 142.632 108.773 142.785 108.518C142.836 108.416 142.887 108.263 142.887 108.161C142.836 107.958 142.734 107.754 142.531 107.652ZM152.318 107.652L150.585 106.99L152.369 106.277C152.573 106.125 152.675 105.921 152.675 105.666C152.675 105.564 152.624 105.463 152.573 105.31C152.42 105.055 152.216 104.953 151.961 104.953C151.808 104.953 151.706 105.004 151.655 105.055C151.604 105.055 151.553 105.106 150.177 106.226C150.432 104.444 150.432 104.393 150.432 104.342C150.432 104.138 150.381 103.986 150.228 103.833C149.973 103.578 149.514 103.578 149.259 103.833C149.106 103.986 149.056 104.138 149.056 104.342C149.056 104.393 149.056 104.444 149.31 106.226C147.934 105.106 147.832 105.055 147.832 105.055C147.73 105.004 147.628 104.953 147.475 104.953C147.22 104.953 147.016 105.055 146.864 105.31C146.813 105.412 146.762 105.564 146.762 105.666C146.762 105.921 146.864 106.125 147.118 106.277L148.852 106.939L147.118 107.601C146.914 107.703 146.762 107.907 146.762 108.161C146.762 108.314 146.813 108.416 146.864 108.518C147.016 108.773 147.22 108.874 147.475 108.874C147.577 108.874 147.679 108.874 147.781 108.823C147.832 108.823 147.883 108.773 149.259 107.652C149.005 109.435 149.005 109.485 149.005 109.536C149.005 109.74 149.056 109.893 149.208 110.046C149.361 110.198 149.514 110.249 149.718 110.249C149.922 110.249 150.075 110.198 150.228 110.046C150.381 109.893 150.432 109.74 150.432 109.536C150.432 109.536 150.432 109.435 150.177 107.652C151.604 108.773 151.655 108.823 151.655 108.823C151.757 108.874 151.859 108.874 151.961 108.874C152.216 108.874 152.42 108.773 152.573 108.518C152.624 108.416 152.675 108.263 152.675 108.161C152.624 107.958 152.522 107.754 152.318 107.652ZM162.055 107.652L160.321 106.99L162.106 106.277C162.309 106.125 162.411 105.921 162.411 105.666C162.411 105.564 162.36 105.463 162.309 105.31C162.156 105.055 161.953 104.953 161.698 104.953C161.545 104.953 161.443 105.004 161.392 105.055C161.341 105.055 161.29 105.106 159.914 106.226C160.168 104.444 160.168 104.393 160.168 104.342C160.168 104.138 160.117 103.986 159.964 103.833C159.71 103.578 159.251 103.578 158.996 103.833C158.843 103.986 158.792 104.138 158.792 104.342C158.792 104.393 158.792 104.444 159.047 106.226C157.671 105.106 157.569 105.055 157.569 105.055C157.467 105.004 157.365 104.953 157.212 104.953C156.957 104.953 156.753 105.055 156.6 105.31C156.549 105.412 156.498 105.564 156.498 105.666C156.498 105.921 156.6 106.125 156.855 106.277L158.588 106.939L156.855 107.601C156.651 107.703 156.498 107.907 156.498 108.161C156.498 108.314 156.549 108.416 156.6 108.518C156.753 108.773 156.957 108.874 157.212 108.874C157.314 108.874 157.416 108.874 157.518 108.823C157.569 108.823 157.62 108.773 158.996 107.652C158.741 109.435 158.741 109.485 158.741 109.536C158.741 109.74 158.792 109.893 158.945 110.046C159.098 110.198 159.251 110.249 159.455 110.249C159.659 110.249 159.812 110.198 159.964 110.046C160.117 109.893 160.168 109.74 160.168 109.536C160.168 109.536 160.168 109.435 159.914 107.652C161.341 108.773 161.392 108.823 161.392 108.823C161.494 108.874 161.596 108.874 161.698 108.874C161.953 108.874 162.156 108.773 162.309 108.518C162.36 108.416 162.411 108.263 162.411 108.161C162.411 107.958 162.309 107.754 162.055 107.652Z" fill="black"/>
<path d="M123.618 130.975C123.567 130.924 123.516 130.823 123.516 130.721V126.29C123.516 126.188 123.567 126.138 123.618 126.036C123.669 125.934 123.771 125.934 123.873 125.934H126.728C126.83 125.934 126.881 125.985 126.932 126.036C126.983 126.087 127.034 126.188 127.034 126.239C127.034 126.29 126.983 126.392 126.932 126.443C126.881 126.494 126.779 126.545 126.728 126.545H124.23V128.174H126.473C126.575 128.174 126.626 128.225 126.677 128.276C126.728 128.327 126.779 128.429 126.779 128.48C126.779 128.531 126.728 128.633 126.677 128.684C126.626 128.735 126.524 128.786 126.473 128.786H124.23V130.721C124.23 130.823 124.179 130.873 124.128 130.975C124.077 131.026 123.975 131.077 123.873 131.077C123.771 131.077 123.669 131.026 123.618 130.975Z" fill="white"/>
<path d="M123.873 131.179C123.771 131.179 123.618 131.128 123.567 131.026C123.465 130.924 123.414 130.822 123.414 130.721V126.29C123.414 126.188 123.465 126.036 123.567 125.985C123.669 125.883 123.771 125.832 123.873 125.832H126.728C126.83 125.832 126.932 125.883 127.034 125.985C127.136 126.087 127.187 126.188 127.187 126.29C127.187 126.392 127.136 126.494 127.034 126.596C126.932 126.698 126.83 126.698 126.728 126.698H124.332V128.073H126.473C126.575 128.073 126.677 128.123 126.779 128.225C126.881 128.327 126.932 128.429 126.932 128.531C126.932 128.633 126.881 128.735 126.779 128.836C126.677 128.938 126.575 128.938 126.473 128.938H124.332V130.771C124.332 130.924 124.281 131.026 124.179 131.077C124.077 131.128 123.975 131.179 123.873 131.179ZM123.72 130.873C123.822 130.975 123.924 130.975 124.026 130.873C124.077 130.822 124.077 130.771 124.077 130.721V128.633H126.473C126.524 128.633 126.575 128.633 126.626 128.582C126.677 128.531 126.677 128.531 126.677 128.48C126.677 128.429 126.677 128.378 126.626 128.327C126.575 128.276 126.524 128.276 126.473 128.276H124.077V126.392H126.728C126.779 126.392 126.83 126.392 126.881 126.341C126.932 126.29 126.932 126.29 126.932 126.239C126.932 126.188 126.932 126.137 126.881 126.087C126.83 126.036 126.779 126.036 126.728 126.036H123.873C123.822 126.036 123.771 126.036 123.72 126.087C123.669 126.137 123.669 126.188 123.669 126.239V130.721C123.669 130.822 123.669 130.822 123.72 130.873ZM129.277 130.771C128.869 130.568 128.614 130.262 128.41 129.855C128.206 129.447 128.104 128.989 128.104 128.48C128.104 127.971 128.206 127.512 128.41 127.105C128.614 126.698 128.92 126.392 129.277 126.188C129.684 125.985 130.092 125.832 130.602 125.832C131.112 125.832 131.571 125.934 131.927 126.188C132.335 126.392 132.59 126.698 132.794 127.105C132.998 127.512 133.1 127.971 133.151 128.48C133.151 128.989 133.049 129.447 132.794 129.855C132.59 130.262 132.284 130.568 131.927 130.771C131.571 130.975 131.112 131.128 130.602 131.128C130.092 131.128 129.684 130.975 129.277 130.771ZM131.622 130.211C131.927 130.059 132.131 129.804 132.284 129.498C132.437 129.193 132.488 128.836 132.488 128.48C132.488 128.123 132.437 127.767 132.284 127.461C132.131 127.156 131.927 126.901 131.622 126.749C131.316 126.596 131.01 126.494 130.602 126.494C130.194 126.494 129.888 126.596 129.582 126.749C129.277 126.901 129.073 127.156 128.92 127.461C128.767 127.767 128.716 128.123 128.716 128.48C128.716 128.836 128.767 129.193 128.92 129.498C129.073 129.804 129.277 130.059 129.582 130.211C129.888 130.364 130.194 130.466 130.602 130.466C131.01 130.466 131.367 130.415 131.622 130.211Z" fill="white"/>
<path d="M130.653 131.23C130.143 131.23 129.633 131.128 129.226 130.873C128.818 130.619 128.512 130.313 128.308 129.906C128.104 129.498 127.951 129.04 127.951 128.48C127.951 127.971 128.053 127.462 128.308 127.054C128.512 126.647 128.869 126.29 129.226 126.087C129.633 125.832 130.092 125.73 130.653 125.73C131.163 125.73 131.672 125.832 132.08 126.087C132.488 126.341 132.794 126.647 132.998 127.054C133.202 127.462 133.355 127.92 133.355 128.48C133.355 128.989 133.253 129.498 132.998 129.906C132.794 130.313 132.437 130.67 132.08 130.873C131.621 131.128 131.163 131.23 130.653 131.23ZM130.653 125.985C130.143 125.985 129.735 126.087 129.379 126.29C129.022 126.494 128.716 126.8 128.512 127.156C128.308 127.512 128.206 127.971 128.206 128.48C128.206 128.938 128.308 129.397 128.512 129.753C128.716 130.11 128.971 130.415 129.379 130.619C129.735 130.822 130.194 130.924 130.653 130.924C131.112 130.924 131.571 130.822 131.927 130.619C132.284 130.415 132.59 130.11 132.794 129.753C132.998 129.397 133.1 128.938 133.1 128.48C133.1 128.022 132.998 127.563 132.794 127.207C132.59 126.85 132.335 126.545 131.927 126.341C131.52 126.137 131.112 125.985 130.653 125.985ZM130.653 130.619C130.245 130.619 129.888 130.517 129.582 130.313C129.277 130.11 129.022 129.855 128.869 129.549C128.716 129.244 128.614 128.887 128.614 128.48C128.614 128.073 128.716 127.716 128.869 127.411C129.022 127.105 129.277 126.85 129.582 126.647C129.888 126.443 130.245 126.341 130.653 126.341C131.061 126.341 131.418 126.443 131.723 126.647C132.029 126.85 132.284 127.105 132.437 127.411C132.59 127.716 132.692 128.073 132.692 128.48C132.692 128.887 132.59 129.244 132.437 129.549C132.284 129.855 132.029 130.11 131.723 130.313C131.418 130.517 131.061 130.619 130.653 130.619ZM130.653 126.596C130.296 126.596 129.939 126.698 129.684 126.85C129.429 127.003 129.226 127.258 129.073 127.512C128.92 127.818 128.869 128.124 128.869 128.48C128.869 128.836 128.92 129.142 129.073 129.448C129.226 129.702 129.429 129.957 129.684 130.11C129.939 130.262 130.245 130.364 130.653 130.364C131.01 130.364 131.316 130.262 131.621 130.11C131.876 129.957 132.08 129.753 132.233 129.448C132.386 129.142 132.437 128.836 132.437 128.48C132.437 128.124 132.386 127.818 132.233 127.512C132.08 127.258 131.876 127.003 131.621 126.85C131.316 126.698 131.01 126.596 130.653 126.596ZM134.935 130.975C134.884 130.924 134.833 130.822 134.833 130.721V126.29C134.833 126.188 134.884 126.137 134.935 126.036C134.986 125.934 135.088 125.934 135.19 125.934H136.872C137.535 125.934 138.045 126.087 138.35 126.341C138.656 126.596 138.86 126.952 138.86 127.411C138.86 127.716 138.758 127.971 138.605 128.225C138.452 128.48 138.197 128.633 137.892 128.735C138.248 128.836 138.503 129.04 138.605 129.397C138.758 129.753 138.809 130.059 138.809 130.415V130.772C138.809 130.873 138.758 130.924 138.707 131.026C138.656 131.077 138.554 131.128 138.452 131.128C138.35 131.128 138.248 131.077 138.197 131.026C138.146 130.975 138.096 130.873 138.096 130.772V130.568C138.096 130.313 138.096 130.11 138.045 129.906C137.994 129.702 137.892 129.498 137.739 129.346C137.586 129.193 137.331 129.091 136.974 129.091H135.445V130.772C135.445 130.873 135.394 130.924 135.343 131.026C135.292 131.077 135.19 131.128 135.088 131.128C134.986 131.128 134.986 131.026 134.935 130.975ZM136.821 128.429C137.229 128.429 137.586 128.327 137.841 128.174C138.096 128.022 138.197 127.767 138.197 127.461C138.197 127.156 138.096 126.952 137.892 126.799C137.688 126.647 137.331 126.545 136.821 126.545H135.547V128.378H136.821V128.429Z" fill="white"/>
<path d="M138.503 131.179C138.35 131.179 138.249 131.128 138.147 131.026C138.045 130.924 137.994 130.822 137.994 130.721V130.517C137.994 130.262 137.994 130.059 137.943 129.855C137.892 129.651 137.79 129.498 137.688 129.346C137.535 129.193 137.331 129.142 137.025 129.142H135.649V130.721C135.649 130.873 135.598 130.975 135.496 131.026C135.292 131.179 135.037 131.179 134.833 131.026C134.731 130.924 134.68 130.822 134.68 130.721V126.29C134.68 126.188 134.731 126.036 134.833 125.985C134.935 125.883 135.037 125.832 135.139 125.832H136.821C137.535 125.832 138.045 125.985 138.401 126.29C138.758 126.596 138.962 127.003 138.962 127.461C138.962 127.767 138.86 128.073 138.707 128.327C138.605 128.531 138.401 128.684 138.198 128.785C138.452 128.938 138.605 129.142 138.707 129.397C138.86 129.753 138.911 130.109 138.911 130.466V130.822C138.911 130.924 138.86 131.077 138.758 131.128C138.707 131.128 138.605 131.179 138.503 131.179ZM135.394 128.938H137.025C137.382 128.938 137.688 129.04 137.892 129.244C138.096 129.447 138.198 129.651 138.249 129.855C138.3 130.059 138.299 130.313 138.299 130.568V130.771C138.299 130.873 138.35 130.873 138.35 130.924C138.401 130.975 138.554 131.026 138.656 130.924C138.707 130.873 138.707 130.822 138.707 130.771V130.415C138.707 130.109 138.656 129.753 138.503 129.447C138.401 129.142 138.198 128.938 137.892 128.887L137.484 128.785L137.892 128.633C138.198 128.531 138.401 128.378 138.554 128.174C138.707 127.971 138.758 127.716 138.758 127.461C138.758 127.054 138.605 126.749 138.299 126.494C137.994 126.239 137.535 126.137 136.872 126.137H135.19C135.139 126.137 135.088 126.137 135.037 126.188C134.986 126.239 134.986 126.29 134.986 126.341V130.822C134.986 130.873 134.986 130.924 135.037 130.975C135.139 131.077 135.241 131.077 135.343 130.975C135.394 130.924 135.394 130.873 135.394 130.822V128.938ZM136.821 128.531H135.394V126.443H136.821C137.382 126.443 137.739 126.545 137.994 126.698C138.249 126.901 138.35 127.156 138.35 127.461C138.35 127.818 138.198 128.073 137.943 128.276C137.637 128.48 137.28 128.531 136.821 128.531ZM135.649 128.276H136.821C137.229 128.276 137.535 128.225 137.739 128.073C137.943 127.92 138.045 127.716 138.045 127.461C138.045 127.207 137.943 127.003 137.79 126.901C137.586 126.749 137.28 126.698 136.77 126.698H135.598V128.276H135.649Z" fill="white"/>
<path d="M141.511 130.772C141.103 130.568 140.797 130.262 140.593 129.855C140.39 129.448 140.288 128.989 140.288 128.48C140.288 127.971 140.39 127.512 140.644 127.105C140.899 126.698 141.154 126.392 141.562 126.188C141.97 125.985 142.378 125.883 142.836 125.883C143.193 125.883 143.55 125.934 143.856 126.036C144.162 126.138 144.417 126.239 144.672 126.443C144.723 126.443 144.723 126.494 144.774 126.545C144.825 126.596 144.825 126.647 144.825 126.698C144.825 126.8 144.774 126.85 144.723 126.901C144.672 126.952 144.57 127.003 144.519 127.003C144.468 127.003 144.417 127.003 144.366 126.952C144.162 126.8 143.907 126.698 143.703 126.647C143.499 126.596 143.244 126.545 142.938 126.545C142.582 126.545 142.225 126.647 141.919 126.8C141.613 126.952 141.409 127.207 141.205 127.462C141.052 127.767 140.95 128.124 140.95 128.531C140.95 128.887 141.052 129.244 141.205 129.549C141.358 129.855 141.613 130.11 141.868 130.262C142.174 130.415 142.531 130.517 142.938 130.517C143.397 130.517 143.805 130.415 144.213 130.211V128.836H142.989C142.887 128.836 142.836 128.786 142.785 128.735C142.734 128.684 142.683 128.582 142.683 128.531C142.683 128.48 142.734 128.378 142.785 128.327C142.836 128.276 142.938 128.225 142.989 128.225H144.417C144.519 128.225 144.621 128.276 144.672 128.327C144.723 128.378 144.774 128.48 144.774 128.582V130.262C144.774 130.364 144.774 130.466 144.672 130.517C144.621 130.619 144.57 130.67 144.468 130.721C143.907 130.975 143.346 131.128 142.785 131.128C142.378 131.128 141.919 130.975 141.511 130.772Z" fill="white"/>
<path d="M142.836 131.23C142.327 131.23 141.868 131.128 141.46 130.873C141.052 130.619 140.746 130.313 140.491 129.906C140.288 129.498 140.135 129.04 140.135 128.48C140.135 127.92 140.237 127.462 140.491 127.054C140.746 126.647 141.052 126.29 141.46 126.087C141.868 125.883 142.327 125.73 142.836 125.73C143.244 125.73 143.601 125.781 143.856 125.883C144.162 125.985 144.417 126.137 144.723 126.29C144.774 126.29 144.824 126.341 144.875 126.443C144.926 126.494 144.926 126.596 144.926 126.647C144.926 126.749 144.875 126.85 144.824 126.952C144.672 127.105 144.468 127.105 144.315 127.054C144.111 126.901 143.856 126.799 143.652 126.749C143.448 126.698 143.193 126.647 142.938 126.647C142.582 126.647 142.276 126.698 142.021 126.85C141.766 127.003 141.511 127.207 141.358 127.461C141.205 127.716 141.103 128.073 141.103 128.48C141.103 128.836 141.154 129.142 141.307 129.448C141.46 129.702 141.664 129.957 141.97 130.11C142.225 130.262 142.582 130.364 142.989 130.364C143.397 130.364 143.805 130.262 144.162 130.11V128.989H143.091C142.989 128.989 142.887 128.938 142.785 128.887C142.683 128.786 142.683 128.684 142.683 128.582C142.683 128.48 142.734 128.378 142.785 128.276C142.887 128.174 142.989 128.174 143.091 128.174H144.519C144.672 128.174 144.774 128.225 144.875 128.327C144.977 128.429 145.028 128.531 145.028 128.684V130.364C145.028 130.517 144.977 130.619 144.926 130.721C144.875 130.822 144.774 130.873 144.672 130.924C144.009 131.077 143.448 131.23 142.836 131.23ZM141.562 130.67C141.919 130.873 142.378 130.975 142.836 130.975C143.397 130.975 143.907 130.822 144.468 130.568C144.519 130.517 144.57 130.517 144.621 130.415C144.672 130.364 144.672 130.313 144.672 130.211V128.531C144.672 128.48 144.672 128.429 144.621 128.378C144.57 128.327 144.519 128.327 144.468 128.327H143.04C142.989 128.327 142.938 128.327 142.938 128.378C142.887 128.429 142.887 128.429 142.887 128.48C142.887 128.531 142.887 128.582 142.938 128.582C142.989 128.633 142.989 128.633 143.04 128.633H144.366V130.16L144.315 130.211C143.907 130.415 143.448 130.568 142.989 130.568C142.582 130.568 142.174 130.466 141.868 130.313C141.562 130.11 141.307 129.855 141.154 129.549C141.001 129.244 140.899 128.887 140.899 128.48C140.899 128.022 141.001 127.665 141.154 127.36C141.358 127.054 141.562 126.8 141.919 126.647C142.225 126.494 142.582 126.392 142.989 126.392C143.244 126.392 143.55 126.443 143.754 126.494C144.009 126.545 144.213 126.647 144.468 126.799C144.519 126.85 144.621 126.799 144.672 126.749C144.723 126.698 144.723 126.698 144.723 126.647C144.723 126.596 144.723 126.596 144.723 126.545C144.723 126.494 144.672 126.494 144.672 126.494C144.417 126.341 144.162 126.188 143.856 126.137C143.601 126.036 143.244 125.985 142.887 125.985C142.429 125.985 142.021 126.087 141.664 126.29C141.307 126.494 141.001 126.8 140.797 127.156C140.593 127.512 140.491 127.971 140.491 128.48C140.491 128.938 140.593 129.397 140.797 129.753C140.95 130.16 141.205 130.466 141.562 130.67Z" fill="white"/>
<path d="M147.577 130.771C147.169 130.568 146.915 130.262 146.711 129.855C146.507 129.447 146.405 128.989 146.405 128.48C146.405 127.971 146.507 127.512 146.711 127.105C146.915 126.698 147.22 126.392 147.577 126.188C147.985 125.985 148.393 125.832 148.903 125.832C149.412 125.832 149.871 125.934 150.228 126.188C150.636 126.392 150.891 126.698 151.095 127.105C151.299 127.512 151.4 127.971 151.451 128.48C151.451 128.989 151.35 129.447 151.095 129.855C150.891 130.262 150.585 130.568 150.228 130.771C149.871 130.975 149.412 131.128 148.903 131.128C148.393 131.128 147.985 130.975 147.577 130.771ZM149.922 130.211C150.228 130.059 150.432 129.804 150.585 129.498C150.738 129.193 150.789 128.836 150.789 128.48C150.789 128.123 150.738 127.767 150.585 127.461C150.432 127.156 150.228 126.901 149.922 126.749C149.616 126.596 149.31 126.494 148.903 126.494C148.495 126.494 148.189 126.596 147.883 126.749C147.577 126.901 147.373 127.156 147.22 127.461C147.067 127.767 147.016 128.123 147.016 128.48C147.016 128.836 147.067 129.193 147.22 129.498C147.373 129.804 147.577 130.059 147.883 130.211C148.189 130.364 148.495 130.466 148.903 130.466C149.31 130.466 149.667 130.415 149.922 130.211Z" fill="white"/>
<path d="M148.954 131.23C148.444 131.23 147.934 131.128 147.526 130.873C147.118 130.619 146.813 130.313 146.609 129.906C146.405 129.498 146.252 129.04 146.252 128.48C146.252 127.971 146.354 127.462 146.609 127.054C146.813 126.647 147.169 126.29 147.526 126.087C147.934 125.832 148.393 125.73 148.954 125.73C149.463 125.73 149.973 125.832 150.381 126.087C150.789 126.341 151.095 126.647 151.299 127.054C151.502 127.462 151.655 127.92 151.655 128.48C151.655 128.989 151.553 129.498 151.299 129.906C151.095 130.313 150.738 130.67 150.381 130.873C149.922 131.128 149.463 131.23 148.954 131.23ZM148.954 125.985C148.444 125.985 148.036 126.087 147.679 126.29C147.322 126.494 147.016 126.8 146.813 127.156C146.609 127.512 146.507 127.971 146.507 128.48C146.507 128.938 146.609 129.397 146.813 129.753C147.016 130.11 147.271 130.415 147.679 130.619C148.036 130.822 148.495 130.924 148.954 130.924C149.463 130.924 149.871 130.822 150.228 130.619C150.585 130.415 150.891 130.11 151.095 129.753C151.299 129.397 151.4 128.938 151.4 128.48C151.4 128.022 151.299 127.563 151.095 127.207C150.891 126.85 150.636 126.545 150.228 126.341C149.82 126.137 149.412 125.985 148.954 125.985ZM148.954 130.619C148.546 130.619 148.189 130.517 147.883 130.313C147.577 130.11 147.322 129.855 147.169 129.549C147.016 129.244 146.915 128.887 146.915 128.48C146.915 128.073 147.016 127.716 147.169 127.411C147.322 127.105 147.577 126.85 147.883 126.647C148.189 126.443 148.546 126.341 148.954 126.341C149.361 126.341 149.718 126.443 150.024 126.647C150.33 126.85 150.585 127.105 150.738 127.411C150.891 127.716 150.993 128.073 150.993 128.48C150.993 128.887 150.891 129.244 150.738 129.549C150.585 129.855 150.33 130.11 150.024 130.313C149.718 130.517 149.361 130.619 148.954 130.619ZM148.954 126.596C148.597 126.596 148.24 126.698 147.985 126.85C147.73 127.003 147.526 127.258 147.373 127.512C147.22 127.818 147.169 128.124 147.169 128.48C147.169 128.836 147.22 129.142 147.373 129.448C147.526 129.702 147.73 129.957 147.985 130.11C148.24 130.262 148.546 130.364 148.954 130.364C149.31 130.364 149.616 130.262 149.922 130.11C150.177 129.957 150.381 129.753 150.534 129.448C150.687 129.142 150.738 128.836 150.738 128.48C150.738 128.124 150.687 127.818 150.534 127.512C150.381 127.258 150.177 127.003 149.922 126.85C149.616 126.698 149.31 126.596 148.954 126.596Z" fill="white"/>
<path d="M154.204 130.975C154.153 130.924 154.102 130.822 154.102 130.721V126.545H152.624C152.522 126.545 152.471 126.494 152.42 126.443C152.369 126.392 152.318 126.29 152.318 126.239C152.318 126.188 152.369 126.086 152.42 126.036C152.471 125.985 152.573 125.934 152.624 125.934H156.243C156.345 125.934 156.396 125.985 156.447 126.036C156.498 126.086 156.549 126.188 156.549 126.239C156.549 126.29 156.498 126.392 156.447 126.443C156.396 126.494 156.294 126.545 156.243 126.545H154.765V130.721C154.765 130.822 154.714 130.873 154.663 130.975C154.612 131.026 154.51 131.077 154.408 131.077C154.357 131.077 154.306 131.026 154.204 130.975Z" fill="white"/>
<path d="M154.459 131.179C154.357 131.179 154.204 131.128 154.153 131.026C154.051 130.924 154 130.822 154 130.721V126.647H152.624C152.522 126.647 152.42 126.596 152.318 126.545C152.216 126.443 152.216 126.341 152.216 126.239C152.216 126.137 152.267 126.036 152.318 125.934C152.42 125.832 152.522 125.781 152.624 125.781H156.243C156.345 125.781 156.447 125.832 156.549 125.934C156.651 126.036 156.702 126.137 156.702 126.239C156.702 126.341 156.651 126.443 156.549 126.545C156.447 126.647 156.345 126.647 156.243 126.647H154.867V130.721C154.867 130.873 154.816 130.975 154.714 131.026C154.714 131.128 154.561 131.179 154.459 131.179ZM154.306 130.873C154.408 130.975 154.51 130.975 154.612 130.873C154.663 130.822 154.663 130.772 154.663 130.721V126.392H156.294C156.345 126.392 156.396 126.392 156.447 126.341C156.498 126.29 156.498 126.29 156.498 126.239C156.498 126.188 156.498 126.137 156.447 126.087C156.396 126.036 156.345 126.036 156.294 126.036H152.675C152.624 126.036 152.573 126.036 152.522 126.087C152.471 126.137 152.471 126.188 152.471 126.239C152.471 126.29 152.471 126.341 152.522 126.392C152.573 126.443 152.573 126.443 152.675 126.443H154.306V130.772C154.255 130.822 154.255 130.822 154.306 130.873Z" fill="white"/>
<path d="M132.182 144.877H102.565V149.053H132.182V144.877Z" fill="#D2E4FF"/>
<path d="M141.919 151.905H102.565V153.993H141.919V151.905Z" fill="#D2E4FF"/>
<path d="M113.015 156.844H102.565V158.932H113.015V156.844Z" fill="#D2E4FF"/>
<path d="M130.602 156.844H118.521V158.932H130.602V156.844Z" fill="#D2E4FF"/>
<path d="M53.6782 41.0952C55.1422 41.0952 56.329 39.9097 56.329 38.4472C56.329 36.9848 55.1422 35.7992 53.6782 35.7992C52.2143 35.7992 51.0275 36.9848 51.0275 38.4472C51.0275 39.9097 52.2143 41.0952 53.6782 41.0952Z" fill="#D2E4FF"/>
<path d="M61.5287 35.6465C63.5558 35.6465 65.199 34.0049 65.199 31.98C65.199 29.955 63.5558 28.3135 61.5287 28.3135C59.5017 28.3135 57.8584 29.955 57.8584 31.98C57.8584 34.0049 59.5017 35.6465 61.5287 35.6465Z" fill="#D2E4FF"/>
<path d="M87.3228 20.9295C87.3228 21.0823 87.3738 21.286 87.3738 21.4388C87.3738 24.2395 85.1308 26.4802 82.3271 26.4802C81.6644 26.4802 81.0527 26.3783 80.441 26.1237C80.2371 28.7208 78.0451 30.7578 75.3943 30.7578C72.7945 30.7578 70.6535 28.7717 70.3986 26.2765C69.9398 26.4293 69.4301 26.4802 68.9203 26.4802C66.1166 26.4802 63.8736 24.2395 63.8736 21.4388C63.8736 20.7768 63.9756 20.1657 64.2304 19.6055C63.3638 18.9944 62.8031 17.976 62.8031 16.8047C62.8031 15.0733 64.1285 13.5965 65.8107 13.3929C65.5558 12.8327 65.4539 12.2725 65.4539 11.6105C65.4539 9.26805 67.391 7.33296 69.7359 7.33296C69.9398 7.33296 70.1437 7.33296 70.3476 7.38388C71.0103 5.44879 72.8455 4.07385 75.0375 4.07385C77.0765 4.07385 78.8097 5.29602 79.5744 7.07834C80.1861 6.51818 81.0017 6.16171 81.9193 6.16171C83.8054 6.16171 85.3857 7.68942 85.3857 9.62451C85.3857 9.93005 85.3347 10.2356 85.2328 10.5411C85.8445 11.0504 86.3033 11.8142 86.4562 12.6799C88.0365 13.4947 89.158 15.1752 89.158 17.1103C89.107 18.638 88.3933 20.0129 87.3228 20.9295Z" fill="#D2E4FF"/>
<path d="M74.6297 20.7259C74.4258 20.9296 74.3238 21.1842 74.3238 21.4897C74.3238 21.7953 74.4258 22.0499 74.6297 22.2536C74.8336 22.4573 75.0885 22.5591 75.3943 22.5591C75.7002 22.5591 75.9551 22.4573 76.159 22.2536C76.3629 22.0499 76.4648 21.7953 76.4648 21.4897C76.4648 21.1842 76.3629 20.9296 76.159 20.7259C75.8021 20.2676 75.0885 20.2676 74.6297 20.7259ZM78.0451 12.3744C77.4334 11.8652 76.5668 11.6106 75.5472 11.6106C75.0375 11.6106 74.5787 11.6615 74.1709 11.7634C73.7631 11.8652 73.3043 12.0689 72.9474 12.3235C72.5396 12.5781 72.4886 12.8837 72.4886 13.0874C72.4886 13.2911 72.5906 13.4948 72.7435 13.6475C73.0494 13.9531 73.4572 13.9531 73.814 13.7494C74.0179 13.5966 74.3238 13.4948 74.5787 13.4438C74.8845 13.3929 75.1904 13.342 75.4963 13.342C77.0765 13.342 77.2804 14.0549 77.2804 14.6151C77.2804 14.8188 77.2295 15.0225 77.0765 15.1752C76.9236 15.3789 76.6687 15.5826 76.3119 15.8882C75.9551 16.1937 75.7002 16.3974 75.4453 16.652C75.2414 16.9066 75.0375 17.1613 74.8845 17.5177C74.7316 17.8742 74.6297 18.2816 74.6297 18.7399C74.6297 18.9436 74.7316 19.1473 74.8845 19.3C75.0375 19.4528 75.2414 19.5547 75.4963 19.5547C75.7512 19.5547 75.9551 19.4528 76.108 19.351C76.2609 19.1982 76.3629 18.9945 76.3629 18.7908C76.3629 18.4853 76.4648 18.1797 76.6178 17.976C76.8217 17.7214 77.1275 17.4668 77.4844 17.1613C77.7902 16.9066 78.0451 16.7029 78.249 16.4992C78.4529 16.2956 78.6568 16.0409 78.7588 15.7354C78.9117 15.4299 78.9627 15.0734 78.9627 14.666C78.9627 13.6475 78.6568 12.8837 78.0451 12.3744Z" fill="black"/>
<path d="M171.893 105.412C175.018 105.412 177.551 102.881 177.551 99.7592C177.551 96.6374 175.018 94.1067 171.893 94.1067C168.768 94.1067 166.235 96.6374 166.235 99.7592C166.235 102.881 168.768 105.412 171.893 105.412Z" fill="#FE6021"/>
<path d="M172.963 97.0601C172.963 97.111 172.963 97.111 172.963 97.162L172.403 100.981C172.352 101.236 172.148 101.44 171.893 101.44C171.638 101.44 171.383 101.236 171.383 100.981L170.822 97.162C170.772 96.5 171.281 95.9907 171.893 95.9907C172.454 95.9907 172.963 96.449 172.963 97.0601ZM172.607 102.764C172.607 103.171 172.301 103.476 171.893 103.476C171.485 103.476 171.179 103.171 171.179 102.764C171.179 102.356 171.485 102.051 171.893 102.051C172.25 102.051 172.607 102.407 172.607 102.764Z" fill="white"/>
<path d="M247.134 61.8721H207.729C205.894 61.8721 204.365 60.3444 204.365 58.5111V22.6101C204.365 20.7768 205.894 19.2491 207.729 19.2491H247.134C248.969 19.2491 250.499 20.7768 250.499 22.6101V58.5111C250.499 60.3444 248.969 61.8721 247.134 61.8721Z" fill="#6193F6"/>
<g opacity="0.1">
<path d="M245.809 33.0493V37.9889C245.809 38.8546 245.095 39.5675 244.229 39.5675H212.623C211.757 39.5675 211.043 38.8546 211.043 37.9889V33.0493C211.043 32.1836 211.757 31.4707 212.623 31.4707H244.229C245.146 31.4707 245.809 32.1327 245.809 33.0493Z" fill="black"/>
</g>
<g opacity="0.1">
<path d="M245.809 45.4237V53.877C245.809 54.7427 245.095 55.4556 244.229 55.4556H212.623C211.757 55.4556 211.043 54.7427 211.043 53.877V45.4237C211.043 44.558 211.757 43.8451 212.623 43.8451H244.229C245.146 43.8451 245.809 44.558 245.809 45.4237Z" fill="black"/>
</g>
<path d="M243.209 38.3454H211.604C210.737 38.3454 210.023 37.6324 210.023 36.7667V31.8272C210.023 30.9615 210.737 30.2485 211.604 30.2485H243.209C244.076 30.2485 244.789 30.9615 244.789 31.8272V36.7667C244.789 37.6834 244.076 38.3454 243.209 38.3454Z" fill="white"/>
<path d="M243.209 54.2845H211.604C210.737 54.2845 210.023 53.5716 210.023 52.7059V44.3035C210.023 43.4378 210.737 42.7249 211.604 42.7249H243.209C244.076 42.7249 244.789 43.4378 244.789 44.3035V52.7568C244.789 53.5716 244.076 54.2845 243.209 54.2845Z" fill="white"/>
<path d="M223.787 46.2895C223.889 46.1367 223.94 45.9839 223.94 45.8312C223.94 45.5766 223.838 45.3729 223.634 45.1692C223.43 45.0164 223.124 44.9146 222.768 44.9146H221.85C221.799 44.9146 221.697 44.9655 221.646 44.9655C221.595 45.0164 221.595 45.0673 221.595 45.1692V47.6135C221.595 47.6644 221.595 47.7663 221.646 47.8172C221.748 47.919 221.901 47.919 222.003 47.8172C222.054 47.7663 222.054 47.7153 222.054 47.6135V46.7478H222.819C222.971 46.7478 223.124 46.7987 223.175 46.8496C223.277 46.9515 223.328 47.0024 223.328 47.1043C223.328 47.2061 223.379 47.308 223.379 47.4607V47.5626C223.379 47.6135 223.379 47.7153 223.43 47.7663C223.481 47.8172 223.532 47.8172 223.634 47.8172C223.685 47.8172 223.787 47.8172 223.787 47.7663C223.838 47.7153 223.838 47.6644 223.838 47.5626V47.3589C223.838 47.1552 223.787 46.9515 223.736 46.7987C223.685 46.6459 223.583 46.5441 223.481 46.4423C223.583 46.4423 223.685 46.3913 223.787 46.2895ZM223.379 45.8312C223.379 45.9839 223.328 46.0858 223.226 46.1367C223.124 46.2386 222.92 46.2386 222.717 46.2386H222.054V45.3729H222.666C222.92 45.3729 223.124 45.4238 223.226 45.4747C223.379 45.5766 223.379 45.6784 223.379 45.8312ZM226.489 46.9006C226.54 46.8496 226.54 46.7987 226.54 46.7478C226.54 46.5441 226.489 46.3913 226.438 46.2386C226.336 46.0858 226.234 45.933 226.081 45.8312C225.928 45.7293 225.724 45.6784 225.52 45.6784C225.316 45.6784 225.112 45.7293 224.96 45.8312C224.807 45.933 224.705 46.0858 224.603 46.2386C224.552 46.3913 224.501 46.595 224.501 46.7987C224.501 47.1552 224.603 47.4098 224.807 47.6135C225.011 47.8172 225.265 47.919 225.622 47.919C225.775 47.919 225.928 47.919 226.03 47.8681C226.132 47.8172 226.234 47.7663 226.336 47.7153C226.438 47.6644 226.489 47.5626 226.489 47.5117C226.489 47.4607 226.489 47.4098 226.438 47.3589C226.387 47.308 226.234 47.257 226.183 47.308C226.132 47.3589 226.03 47.3589 225.928 47.4098C225.826 47.4098 225.775 47.4607 225.673 47.4607C225.469 47.4607 225.316 47.4098 225.214 47.308C225.112 47.2061 225.061 47.1043 225.061 47.0024H226.336C226.387 46.9515 226.438 46.9515 226.489 46.9006ZM225.316 46.1367C225.469 46.0858 225.622 46.0858 225.775 46.1367C225.826 46.1876 225.928 46.2386 225.979 46.2895C226.03 46.3404 226.03 46.4423 226.081 46.4932H225.061C225.061 46.3913 225.112 46.3404 225.163 46.2895C225.163 46.2386 225.214 46.1876 225.316 46.1367ZM228.375 46.646C228.273 46.595 228.12 46.5441 227.967 46.5441C227.814 46.4932 227.712 46.4932 227.61 46.4423C227.559 46.4423 227.559 46.3913 227.559 46.3404C227.559 46.2895 227.61 46.2386 227.661 46.1876C227.814 46.0858 228.12 46.0858 228.426 46.1876C228.528 46.2386 228.579 46.1876 228.681 46.1367C228.732 46.0858 228.732 46.0349 228.732 45.9839C228.732 45.933 228.732 45.8821 228.681 45.8312C228.63 45.7803 228.63 45.7803 228.579 45.7293C228.375 45.6784 228.171 45.6275 227.967 45.6275C227.712 45.6275 227.508 45.6784 227.355 45.8312C227.203 45.9839 227.152 46.1367 227.152 46.3404C227.152 46.4932 227.203 46.595 227.304 46.6969C227.406 46.7987 227.508 46.8496 227.61 46.9006C227.712 46.9515 227.865 47.0024 228.018 47.0024C228.171 47.0533 228.273 47.0533 228.324 47.1043C228.375 47.1552 228.375 47.1552 228.375 47.2061C228.375 47.257 228.375 47.4098 228.018 47.4098C227.916 47.4098 227.814 47.4098 227.763 47.3589C227.661 47.3589 227.61 47.308 227.508 47.257C227.406 47.2061 227.304 47.257 227.253 47.308C227.203 47.3589 227.203 47.4098 227.203 47.4607C227.203 47.5626 227.253 47.6135 227.304 47.6644C227.508 47.7663 227.814 47.8681 228.069 47.8681C228.324 47.8681 228.528 47.8172 228.681 47.6644C228.834 47.5626 228.885 47.3589 228.885 47.2061C228.885 47.0533 228.834 46.9006 228.783 46.8496C228.579 46.7478 228.477 46.6969 228.375 46.646ZM231.281 46.9006C231.332 46.8496 231.332 46.7987 231.332 46.7478C231.332 46.5441 231.281 46.3913 231.23 46.2386C231.128 46.0858 231.026 45.933 230.873 45.8312C230.72 45.7293 230.516 45.6784 230.312 45.6784C230.108 45.6784 229.904 45.7293 229.751 45.8312C229.598 45.933 229.496 46.0858 229.395 46.2386C229.344 46.3913 229.293 46.595 229.293 46.7987C229.293 47.1552 229.394 47.4098 229.598 47.6135C229.802 47.8172 230.057 47.919 230.414 47.919C230.567 47.919 230.72 47.919 230.822 47.8681C230.924 47.8172 231.026 47.7663 231.128 47.7153C231.23 47.6644 231.281 47.5626 231.281 47.5117C231.281 47.4607 231.281 47.4098 231.23 47.3589C231.179 47.308 231.026 47.257 230.975 47.308C230.924 47.3589 230.822 47.3589 230.72 47.4098C230.618 47.4098 230.567 47.4607 230.465 47.4607C230.261 47.4607 230.108 47.4098 230.006 47.308C229.904 47.2061 229.853 47.1043 229.853 47.0024H231.128C231.179 46.9515 231.23 46.9515 231.281 46.9006ZM230.108 46.1367C230.261 46.0858 230.414 46.0858 230.567 46.1367C230.618 46.1876 230.72 46.2386 230.771 46.2895C230.822 46.3404 230.822 46.4423 230.873 46.4932H229.853C229.853 46.3913 229.904 46.3404 229.955 46.2895C229.955 46.2386 230.006 46.1876 230.108 46.1367ZM233.014 47.4098C232.861 47.4607 232.759 47.4607 232.708 47.4098C232.708 47.4098 232.657 47.3589 232.657 47.257V46.1367H233.065C233.116 46.1367 233.167 46.1367 233.218 46.0858C233.269 46.0349 233.269 45.9839 233.269 45.933C233.269 45.8821 233.269 45.8312 233.218 45.7802C233.167 45.7293 233.116 45.7293 233.065 45.7293H232.657V45.4747C232.657 45.4238 232.657 45.4238 232.606 45.3729C232.555 45.3219 232.453 45.3219 232.402 45.3729L231.841 45.8821C231.79 45.933 231.79 45.933 231.79 45.9839C231.79 46.0349 231.79 46.0858 231.841 46.0858C231.892 46.1367 231.892 46.1367 231.943 46.1367H232.147V47.308C232.147 47.5626 232.249 47.919 232.81 47.919C232.912 47.919 233.065 47.8681 233.167 47.8172C233.269 47.7663 233.32 47.6644 233.32 47.6135C233.32 47.5626 233.32 47.5116 233.269 47.4607C233.167 47.4098 233.065 47.3589 233.014 47.4098Z" fill="black"/>
<path d="M217.823 34.3224C217.823 35.0863 217.211 35.6974 216.446 35.6974C215.682 35.6974 215.07 35.0863 215.07 34.3224C215.07 33.5586 215.682 32.9475 216.446 32.9475C217.211 32.9475 217.823 33.5586 217.823 34.3224ZM222.615 34.3224C222.615 35.0863 222.003 35.6974 221.238 35.6974C220.474 35.6974 219.862 35.0863 219.862 34.3224C219.862 33.5586 220.474 32.9475 221.238 32.9475C222.003 32.9475 222.615 33.5586 222.615 34.3224ZM227.406 34.3224C227.406 35.0863 226.795 35.6974 226.03 35.6974C225.265 35.6974 224.654 35.0863 224.654 34.3224C224.654 33.5586 225.265 32.9475 226.03 32.9475C226.795 32.9475 227.406 33.5586 227.406 34.3224ZM232.147 34.3224C232.147 35.0863 231.536 35.6974 230.771 35.6974C230.006 35.6974 229.394 35.0863 229.394 34.3224C229.394 33.5586 230.006 32.9475 230.771 32.9475C231.536 32.9475 232.147 33.5586 232.147 34.3224ZM236.939 34.3224C236.939 35.0863 236.327 35.6974 235.563 35.6974C234.798 35.6974 234.186 35.0863 234.186 34.3224C234.186 33.5586 234.798 32.9475 235.563 32.9475C236.327 32.9475 236.939 33.5586 236.939 34.3224Z" fill="#BDD6FF"/>
<path d="M219.352 49.2431C219.199 49.1412 218.944 49.0903 218.689 49.0903H217.772C217.721 49.0903 217.619 49.1412 217.568 49.1412C217.517 49.1922 217.517 49.2431 217.517 49.3449V51.7893C217.517 51.8402 217.517 51.942 217.568 51.993C217.619 52.0439 217.67 52.0439 217.721 52.0439C217.772 52.0439 217.874 52.0439 217.925 51.993C217.976 51.942 217.976 51.8911 217.976 51.7893V51.0254H218.638C218.893 51.0254 219.148 50.9745 219.301 50.8726C219.454 50.7708 219.607 50.6689 219.658 50.5162C219.709 50.3634 219.76 50.2106 219.76 50.0579C219.76 49.9051 219.709 49.7523 219.658 49.5996C219.658 49.4468 219.505 49.3449 219.352 49.2431ZM219.301 50.0579C219.301 50.2106 219.25 50.3125 219.148 50.4143C219.046 50.5162 218.893 50.5671 218.638 50.5671H218.027V49.5996H218.638C218.893 49.5996 219.046 49.6505 219.148 49.7523C219.25 49.8032 219.301 49.9051 219.301 50.0579ZM221.697 49.956C221.544 49.8542 221.391 49.8542 221.187 49.8542C220.932 49.8542 220.678 49.9051 220.474 50.0069C220.372 50.0579 220.321 50.1088 220.321 50.2106C220.321 50.2616 220.321 50.3125 220.372 50.3634C220.423 50.4143 220.474 50.4143 220.525 50.4143H220.576C220.678 50.3634 220.779 50.3634 220.83 50.3634C220.881 50.3634 220.983 50.3634 221.085 50.3634C221.238 50.3634 221.391 50.4143 221.442 50.4653C221.493 50.5162 221.544 50.618 221.544 50.7708H221.136C220.83 50.7708 220.576 50.8217 220.423 50.9745C220.27 51.1273 220.168 51.28 220.168 51.4837C220.168 51.6365 220.219 51.7383 220.27 51.8402C220.321 51.942 220.423 52.0439 220.525 52.0948C220.627 52.1457 220.779 52.1967 220.881 52.1967C221.136 52.1967 221.391 52.1457 221.544 51.993C221.544 52.0439 221.595 52.0948 221.595 52.1457C221.697 52.2476 221.85 52.2476 221.952 52.1457C222.003 52.0948 222.003 52.0439 222.003 51.942V50.8217C222.003 50.6689 221.952 50.5162 221.901 50.4143C221.952 50.1088 221.85 50.0069 221.697 49.956ZM221.085 51.6365C220.932 51.6365 220.881 51.6365 220.83 51.5856C220.779 51.5346 220.779 51.4837 220.779 51.3819C220.779 51.2291 220.983 51.1273 221.289 51.1273H221.646V51.3819C221.595 51.4328 221.493 51.5346 221.391 51.5856C221.289 51.5856 221.187 51.6365 221.085 51.6365ZM224.042 50.8217C223.94 50.7708 223.787 50.7199 223.634 50.7199C223.481 50.669 223.379 50.6689 223.277 50.618C223.226 50.618 223.226 50.5671 223.226 50.5162C223.226 50.4653 223.277 50.4143 223.328 50.3634C223.481 50.2616 223.787 50.2616 224.093 50.3634C224.195 50.4143 224.246 50.3634 224.348 50.3125C224.399 50.2616 224.399 50.2106 224.399 50.1597C224.399 50.1088 224.399 50.0579 224.348 50.0069C224.297 49.956 224.297 49.956 224.246 49.9051C224.042 49.8542 223.838 49.8033 223.634 49.8033C223.379 49.8033 223.175 49.8542 223.022 50.0069C222.87 50.1597 222.819 50.3125 222.819 50.5162C222.819 50.6689 222.869 50.7708 222.971 50.8726C223.073 50.9745 223.175 51.0254 223.277 51.0763C223.379 51.1273 223.532 51.1782 223.685 51.1782C223.838 51.2291 223.94 51.2291 223.991 51.28C224.042 51.331 224.042 51.331 224.042 51.3819C224.042 51.4328 224.042 51.5856 223.685 51.5856C223.583 51.5856 223.481 51.5856 223.43 51.5346C223.328 51.5346 223.277 51.4837 223.175 51.4328C223.073 51.3819 222.971 51.4328 222.92 51.4837C222.869 51.5347 222.87 51.5856 222.87 51.6365C222.87 51.7383 222.92 51.7893 222.971 51.8402C223.175 51.942 223.481 52.0439 223.736 52.0439C223.991 52.0439 224.195 51.993 224.348 51.8402C224.501 51.7383 224.552 51.5346 224.552 51.3819C224.552 51.2291 224.501 51.0763 224.45 51.0254C224.246 50.9236 224.195 50.8726 224.042 50.8217ZM226.285 50.8217C226.183 50.7708 226.03 50.7199 225.877 50.7199C225.724 50.669 225.622 50.6689 225.52 50.618C225.469 50.618 225.469 50.5671 225.469 50.5162C225.469 50.4653 225.52 50.4143 225.571 50.3634C225.724 50.2616 226.03 50.2616 226.336 50.3634C226.438 50.4143 226.489 50.3634 226.591 50.3125C226.642 50.2616 226.642 50.2106 226.642 50.1597C226.642 50.1088 226.642 50.0579 226.591 50.0069C226.54 49.956 226.54 49.956 226.489 49.9051C226.285 49.8542 226.081 49.8033 225.877 49.8033C225.622 49.8033 225.418 49.8542 225.265 50.0069C225.112 50.1597 225.061 50.3125 225.061 50.5162C225.061 50.6689 225.112 50.7708 225.214 50.8726C225.316 50.9745 225.418 51.0254 225.52 51.0763C225.622 51.1273 225.775 51.1782 225.928 51.1782C226.081 51.2291 226.183 51.2291 226.234 51.28C226.285 51.331 226.285 51.331 226.285 51.3819C226.285 51.4328 226.285 51.5856 225.928 51.5856C225.826 51.5856 225.724 51.5856 225.673 51.5346C225.571 51.5346 225.52 51.4837 225.418 51.4328C225.316 51.3819 225.214 51.4328 225.163 51.4837C225.112 51.5347 225.112 51.5856 225.112 51.6365C225.112 51.7383 225.163 51.7893 225.214 51.8402C225.418 51.942 225.724 52.0439 225.979 52.0439C226.234 52.0439 226.438 51.993 226.591 51.8402C226.744 51.7383 226.795 51.5346 226.795 51.3819C226.795 51.2291 226.744 51.0763 226.693 51.0254C226.489 50.9236 226.387 50.8726 226.285 50.8217ZM229.802 49.8542C229.751 49.9051 229.751 49.9051 229.7 49.956L229.293 51.28L228.885 50.0069C228.885 49.956 228.834 49.9051 228.783 49.8542C228.681 49.8032 228.528 49.8032 228.477 49.8542C228.426 49.9051 228.375 49.956 228.375 50.0069L227.967 51.28L227.559 49.956C227.559 49.9051 227.508 49.8542 227.457 49.8542C227.355 49.8032 227.203 49.8032 227.152 49.9051C227.101 49.956 227.101 50.0069 227.101 50.1088C227.101 50.1597 227.101 50.1597 227.101 50.2106L227.661 51.8911C227.661 51.942 227.712 51.993 227.763 52.0439C227.865 52.1457 228.018 52.1457 228.12 52.0439C228.171 51.993 228.222 51.942 228.222 51.8911L228.579 50.7708L228.936 51.8911C228.936 51.942 228.987 51.993 229.038 52.0439C229.089 52.0948 229.14 52.0948 229.242 52.0948C229.293 52.0948 229.395 52.0948 229.445 52.0439C229.496 51.993 229.547 51.942 229.547 51.8911L230.108 50.2106C230.108 50.1597 230.108 50.1597 230.108 50.1088C230.108 50.0579 230.108 49.956 230.057 49.9051C230.057 49.8032 229.904 49.8032 229.802 49.8542ZM232.3 49.956C232.147 49.8542 231.943 49.8033 231.739 49.8033C231.536 49.8033 231.332 49.8542 231.179 49.956C231.026 50.0579 230.873 50.2106 230.771 50.3634C230.669 50.5162 230.618 50.7199 230.618 50.9745C230.618 51.2291 230.669 51.3819 230.771 51.5856C230.873 51.7383 230.975 51.8911 231.179 51.993C231.332 52.0948 231.536 52.1457 231.739 52.1457C231.943 52.1457 232.147 52.0948 232.3 51.993C232.453 51.8911 232.606 51.7383 232.708 51.5856C232.81 51.4328 232.861 51.2291 232.861 50.9745C232.861 50.7708 232.81 50.5671 232.708 50.3634C232.606 50.2106 232.504 50.0579 232.3 49.956ZM232.045 51.5346C231.841 51.6365 231.637 51.6365 231.485 51.5346C231.383 51.4837 231.332 51.4328 231.281 51.331C231.23 51.2291 231.179 51.1273 231.179 50.9745C231.179 50.8217 231.23 50.7199 231.281 50.618C231.332 50.5162 231.434 50.4653 231.485 50.4143C231.586 50.3634 231.688 50.3634 231.79 50.3634C231.892 50.3634 231.994 50.3634 232.096 50.4143C232.198 50.4653 232.249 50.5162 232.3 50.618C232.351 50.7199 232.402 50.8217 232.402 50.9745C232.402 51.1273 232.351 51.28 232.3 51.331C232.198 51.4328 232.096 51.4837 232.045 51.5346ZM234.594 49.8033C234.39 49.8033 234.186 49.9051 234.033 50.0579C234.033 50.0069 233.982 49.956 233.982 49.9051C233.88 49.8032 233.728 49.8032 233.626 49.9051C233.575 49.956 233.575 50.0069 233.575 50.1088V51.8402C233.575 51.8911 233.575 51.993 233.626 52.0439C233.677 52.0948 233.728 52.0948 233.778 52.0948C233.829 52.0948 233.931 52.0948 233.982 52.0439C234.033 51.993 234.033 51.942 234.033 51.8402V50.6689C234.084 50.5671 234.186 50.5162 234.288 50.4653C234.39 50.4143 234.492 50.3634 234.594 50.3634C234.645 50.3634 234.747 50.3634 234.798 50.3125C234.849 50.2616 234.849 50.2106 234.849 50.1597C234.849 50.1088 234.849 50.0069 234.798 50.0069C234.747 49.8542 234.645 49.8033 234.594 49.8033ZM237.245 49.0394C237.143 48.9376 236.99 48.9376 236.888 49.0394C236.837 49.0903 236.837 49.1412 236.837 49.2431V50.0579C236.633 49.9051 236.429 49.8542 236.225 49.8542C236.072 49.8542 235.869 49.9051 235.716 50.0069C235.563 50.1088 235.41 50.2106 235.308 50.4143C235.206 50.5671 235.155 50.7708 235.155 51.0254C235.155 51.2291 235.206 51.4328 235.308 51.6365C235.41 51.7893 235.512 51.942 235.716 52.0439C235.869 52.1457 236.021 52.1967 236.225 52.1967C236.48 52.1967 236.684 52.1457 236.837 51.993C236.837 52.0439 236.888 52.0948 236.888 52.1457C236.99 52.2476 237.143 52.2476 237.245 52.1457C237.296 52.0948 237.296 52.0439 237.296 51.942V49.3449C237.347 49.1412 237.296 49.0903 237.245 49.0394ZM236.276 51.5856C236.072 51.5856 235.97 51.5346 235.869 51.4328C235.767 51.331 235.716 51.1782 235.716 50.9236C235.716 50.7199 235.767 50.5671 235.869 50.4653C235.97 50.3634 236.123 50.3125 236.276 50.3125C236.378 50.3125 236.48 50.3125 236.582 50.3634C236.684 50.4143 236.735 50.4653 236.837 50.5671V51.331C236.786 51.3819 236.684 51.4837 236.582 51.5346C236.48 51.5856 236.378 51.5856 236.276 51.5856Z" fill="black"/>
<path d="M224.501 178.232C224.399 176.806 224.756 175.33 225.418 174.107C225.673 173.598 226.183 172.682 226.744 172.427C227.254 172.172 228.477 173.089 228.987 173.293C228.987 172.325 228.987 171.459 229.242 170.543C230.618 169.728 231.689 168.811 232.606 167.487C233.524 169.117 234.237 170.899 234.696 172.733C234.951 173.7 235.104 174.668 234.9 175.635C234.696 176.552 234.135 177.316 233.473 177.978C232.81 178.64 231.994 179.098 231.23 179.607C229.853 180.473 227.814 179.404 226.336 178.64C225.622 178.334 225.215 178.232 224.501 178.232Z" fill="#6193F6"/>
<path d="M248.664 141.975C249.224 143.961 248.97 146.15 248.358 148.136C247.695 150.122 246.676 152.007 245.299 153.585C242.547 156.793 238.876 158.932 235.461 161.173C231.994 163.312 228.63 165.756 226.387 169.117C224.144 172.478 222.819 176.501 222.768 180.575C222.462 176.45 223.583 172.223 225.775 168.71C227.967 165.094 231.485 162.548 234.951 160.358C238.417 158.168 241.986 156.081 244.739 153.127C246.115 151.65 247.185 149.919 247.899 147.984C248.613 146.1 248.97 144.012 248.664 141.975Z" fill="#6193F6"/>
<path d="M248.664 141.975C248.664 141.975 252.691 150.53 247.797 156.946L246.268 156.488V158.016C246.268 158.016 243.311 159.645 238.927 158.881V158.372L240.966 157.048L242.852 155.775L245.146 153.076L246.829 150.785L248.001 148.951L248.919 144.928L248.664 141.975ZM252.079 171.918C252.079 171.918 249.836 173.445 246.013 172.834C242.19 172.172 234.39 164.177 228.12 166.52L230.414 164.279C230.414 164.279 239.59 159.187 245.962 161.326C252.334 163.414 252.079 171.918 252.079 171.918Z" fill="#6193F6"/>
<path opacity="0.1" d="M252.079 171.918C252.079 171.918 249.836 173.445 246.013 172.834C242.19 172.172 234.39 164.177 228.12 166.52C228.375 166.367 232.555 163.668 234.696 163.719C238.315 163.821 240.405 165.603 244.586 169.117C248.766 172.631 252.079 171.918 252.079 171.918Z" fill="black"/>
<path d="M225.673 159.136C225.673 159.136 238.265 159.696 241.629 148.493L237.143 147.474L241.884 144.775C241.884 144.775 242.292 137.188 244.229 134.642C244.229 134.642 217.619 137.85 225.673 159.136ZM220.882 177.519C221.085 175.431 221.034 173.344 220.729 171.307C220.423 169.27 219.862 167.233 218.944 165.4C218.078 163.515 216.803 161.835 215.223 160.511C213.643 159.187 211.757 158.27 209.718 157.659L211.247 158.067C211.502 158.117 211.757 158.219 212.012 158.321L212.725 158.627C213.235 158.83 213.643 159.085 214.102 159.391L214.764 159.798L215.376 160.307C217.058 161.631 218.333 163.363 219.25 165.247C220.168 167.131 220.729 169.219 220.983 171.307C221.238 173.344 221.238 175.482 220.882 177.519Z" fill="#6193F6"/>
<path d="M216.65 161.682C205.181 164.738 204.926 153.331 204.926 153.331C207.373 155.673 211.145 154.655 214.102 156.335C217.16 158.067 216.65 161.682 216.65 161.682ZM221.646 177.316C221.544 175.482 221.442 173.598 221.289 171.765C221.136 169.932 220.932 168.098 220.627 166.265C220.372 164.432 220.015 162.65 219.556 160.816C219.097 159.034 218.587 157.252 217.925 155.52C218.689 157.201 219.301 158.932 219.811 160.766C220.27 162.548 220.678 164.381 220.932 166.214C221.187 168.048 221.391 169.881 221.493 171.765C221.544 172.682 221.595 173.598 221.595 174.515C221.646 175.482 221.646 176.399 221.646 177.316Z" fill="#6193F6"/>
<path d="M218.537 157.201C216.854 153.229 206.404 148.238 203.906 145.641C201.408 143.044 202.122 138.919 202.122 138.919C204.467 141.211 209.922 141.465 216.294 145.692C222.564 149.97 218.537 157.201 218.537 157.201ZM219.352 174.719C219.352 174.719 219.607 165.705 214.662 164.534C209.769 163.414 207.577 164.534 207.577 164.534L207.781 165.96L205.996 164.636C205.996 164.636 202.326 165.654 200.899 165.4C200.899 165.4 201.714 168.048 206.098 169.066C210.482 170.135 216.396 170.39 219.352 174.719Z" fill="#6193F6"/>
<path d="M219.046 173.7C219.352 174.362 219.505 175.126 219.607 175.89C219.658 176.654 219.607 177.417 219.403 178.13L219.352 177.01L219.301 175.89L219.199 174.769C219.097 174.413 219.046 174.057 219.046 173.7Z" fill="#6193F6"/>
<g opacity="0.1">
<path d="M218.537 157.201C216.854 153.229 206.404 148.238 203.906 145.641C201.408 143.044 202.122 138.919 202.122 138.919C202.122 138.919 202.02 143.299 205.69 144.317C209.361 145.336 217.415 150.173 218.537 157.201Z" fill="black"/>
</g>
<path d="M223.073 177.316C222.819 173.598 223.124 169.881 223.736 166.214C224.348 162.548 225.367 158.932 226.795 155.469C227.508 153.738 228.324 152.058 229.293 150.479C230.261 148.849 231.281 147.322 232.453 145.845C234.798 142.942 237.653 140.447 240.762 138.461C239.284 139.581 237.806 140.702 236.48 141.975C236.123 142.28 235.818 142.586 235.512 142.942L234.543 143.961C233.931 144.674 233.32 145.336 232.759 146.1C231.637 147.576 230.618 149.104 229.7 150.683C228.783 152.261 227.967 153.942 227.253 155.673C225.826 159.085 224.807 162.65 224.144 166.265C223.787 168.099 223.532 169.932 223.379 171.765C223.175 173.598 223.073 175.482 223.073 177.316Z" fill="#6193F6"/>
<path d="M229.191 192.287H218.842C218.231 192.287 217.721 191.88 217.619 191.269L214.917 179.047H233.065L230.363 191.269C230.312 191.88 229.802 192.287 229.191 192.287Z" fill="white"/>
<path d="M230.618 190.556L230.465 191.32C230.312 191.88 229.802 192.338 229.242 192.338H218.893C218.282 192.338 217.772 191.931 217.67 191.32L214.968 179.098H216.701L217.364 182.153C218.435 187.042 222.768 190.556 227.814 190.556H230.618Z" fill="#C6E2FA"/>
<path d="M229.191 192.542H218.842C218.129 192.542 217.517 192.032 217.364 191.37L214.611 178.843H233.422L230.669 191.37C230.516 192.032 229.904 192.542 229.191 192.542ZM215.274 179.302L217.874 191.218C217.976 191.676 218.384 192.033 218.842 192.033H229.191C229.649 192.033 230.057 191.676 230.159 191.218L232.759 179.302H215.274Z" fill="#060405"/>
<path d="M234.39 179.709H213.643C213.388 179.709 213.133 179.505 213.082 179.251L212.47 176.195C212.419 175.839 212.674 175.482 213.031 175.482H235.002C235.359 175.482 235.665 175.839 235.563 176.195L234.951 179.251C234.9 179.505 234.696 179.709 234.39 179.709Z" fill="white"/>
<path d="M234.39 179.964H213.643C213.235 179.964 212.878 179.658 212.827 179.302L212.215 176.246C212.164 175.992 212.215 175.737 212.368 175.533C212.521 175.33 212.776 175.228 213.031 175.228H235.002C235.257 175.228 235.512 175.33 235.665 175.533C235.818 175.737 235.869 175.992 235.818 176.246L235.206 179.302C235.155 179.709 234.798 179.964 234.39 179.964ZM213.031 175.737C212.929 175.737 212.827 175.788 212.776 175.839C212.725 175.941 212.674 175.992 212.725 176.093L213.337 179.149C213.388 179.302 213.49 179.403 213.643 179.403H234.39C234.543 179.403 234.696 179.302 234.696 179.149L235.308 176.093C235.308 175.992 235.308 175.89 235.257 175.839C235.206 175.737 235.104 175.737 235.002 175.737H213.031Z" fill="#060405"/>
<path d="M143.346 184.852H127.237C127.136 184.852 127.034 184.75 127.034 184.649C127.034 184.547 127.136 184.445 127.237 184.445H143.346C143.448 184.445 143.55 184.547 143.55 184.649C143.55 184.75 143.448 184.852 143.346 184.852ZM143.346 192.796H127.237C127.136 192.796 127.034 192.694 127.034 192.593C127.034 192.491 127.136 192.389 127.237 192.389H143.346C143.448 192.389 143.55 192.491 143.55 192.593C143.55 192.694 143.448 192.796 143.346 192.796ZM140.44 188.824H117.654C117.552 188.824 117.45 188.722 117.45 188.621C117.45 188.519 117.552 188.417 117.654 188.417H140.44C140.542 188.417 140.644 188.519 140.644 188.621C140.644 188.722 140.542 188.824 140.44 188.824Z" fill="#C6E2FA"/>
<path d="M130.602 184.852C130.5 184.852 130.398 184.75 130.398 184.649V181.237C130.398 181.135 130.5 181.033 130.602 181.033C130.704 181.033 130.806 181.135 130.806 181.237V184.649C130.755 184.75 130.704 184.852 130.602 184.852ZM136.26 188.824C136.158 188.824 136.056 188.722 136.056 188.621V184.649C136.056 184.547 136.158 184.445 136.26 184.445C136.362 184.445 136.464 184.547 136.464 184.649V188.621C136.413 188.722 136.362 188.824 136.26 188.824ZM131.927 192.644C131.825 192.644 131.723 192.542 131.723 192.44V188.57C131.723 188.468 131.825 188.366 131.927 188.366C132.029 188.366 132.131 188.468 132.131 188.57V192.44C132.131 192.593 132.029 192.644 131.927 192.644Z" fill="#C6E2FA"/>
<path d="M143.346 184.852H127.237C127.136 184.852 127.034 184.75 127.034 184.649C127.034 184.547 127.136 184.445 127.237 184.445H143.346C143.448 184.445 143.55 184.547 143.55 184.649C143.55 184.75 143.448 184.852 143.346 184.852ZM143.346 192.796H127.237C127.136 192.796 127.034 192.694 127.034 192.593C127.034 192.491 127.136 192.389 127.237 192.389H143.346C143.448 192.389 143.55 192.491 143.55 192.593C143.55 192.694 143.448 192.796 143.346 192.796ZM140.44 188.824H117.654C117.552 188.824 117.45 188.722 117.45 188.621C117.45 188.519 117.552 188.417 117.654 188.417H140.44C140.542 188.417 140.644 188.519 140.644 188.621C140.644 188.722 140.542 188.824 140.44 188.824Z" fill="#C6E2FA"/>
<path d="M130.602 184.852C130.5 184.852 130.398 184.75 130.398 184.649V181.237C130.398 181.135 130.5 181.033 130.602 181.033C130.704 181.033 130.806 181.135 130.806 181.237V184.649C130.755 184.75 130.704 184.852 130.602 184.852ZM136.26 188.824C136.158 188.824 136.056 188.722 136.056 188.621V184.649C136.056 184.547 136.158 184.445 136.26 184.445C136.362 184.445 136.464 184.547 136.464 184.649V188.621C136.413 188.722 136.362 188.824 136.26 188.824ZM131.927 192.644C131.825 192.644 131.723 192.542 131.723 192.44V188.57C131.723 188.468 131.825 188.366 131.927 188.366C132.029 188.366 132.131 188.468 132.131 188.57V192.44C132.131 192.593 132.029 192.644 131.927 192.644Z" fill="#C6E2FA"/>
</g>
<defs>
<clipPath id="clip0_42_1382">
<rect width="261" height="193" fill="white"/>
</clipPath>
</defs>
</svg>
