<svg width="33" height="33" viewBox="0 0 33 33" fill="none" xmlns="http://www.w3.org/2000/svg">
<path fill-rule="evenodd" clip-rule="evenodd" d="M25.2867 0.0668945C29.9247 0.0668945 32.9332 3.07535 32.9332 7.71339V24.5106C32.9332 29.1486 29.9247 32.1571 25.2867 32.1571H8.48952C3.85147 32.1571 0.843018 29.1486 0.843018 24.5106V7.71339C0.843018 3.07535 3.85147 0.0668945 8.48952 0.0668945H25.2867Z" fill="white"/>
<path fill-rule="evenodd" clip-rule="evenodd" d="M25.2867 0.0668945C29.9247 0.0668945 32.9332 3.07535 32.9332 7.71339V24.5106C32.9332 29.1486 29.9247 32.1571 25.2867 32.1571H8.48952C3.85147 32.1571 0.843018 29.1486 0.843018 24.5106V7.71339C0.843018 3.07535 3.85147 0.0668945 8.48952 0.0668945H25.2867Z" fill="white"/>
<path fill-rule="evenodd" clip-rule="evenodd" d="M2.97423 2.19811C1.65688 3.51547 0.909832 5.40906 0.909832 7.71335V24.5105C0.909832 26.8148 1.65688 28.7084 2.97423 30.0258C4.29159 31.3431 6.18518 32.0902 8.48948 32.0902H25.2866C27.5909 32.0902 29.4845 31.3431 30.8019 30.0258C32.1192 28.7084 32.8663 26.8148 32.8663 24.5105V7.71335C32.8663 5.40906 32.1192 3.51547 30.8019 2.19811C29.4845 0.880753 27.5909 0.133709 25.2866 0.133709H8.48948C6.18518 0.133709 4.29159 0.880753 2.97423 2.19811ZM2.87969 2.10356C4.22607 0.757183 6.15573 0 8.48948 0H25.2866C27.6204 0 29.5501 0.757183 30.8964 2.10356C32.2428 3.44994 33 5.3796 33 7.71335V24.5105C33 26.8443 32.2428 28.7739 30.8964 30.1203C29.5501 31.4667 27.6204 32.2239 25.2866 32.2239H8.48948C6.15573 32.2239 4.22607 31.4667 2.87969 30.1203C1.53331 28.7739 0.776123 26.8443 0.776123 24.5105V7.71335C0.776123 5.3796 1.53331 3.44994 2.87969 2.10356Z" fill="#A4A4A4"/>
<path fill-rule="evenodd" clip-rule="evenodd" d="M13.8197 6.00023C11.2262 6.88924 9.0163 8.83356 7.7854 11.2941C7.35603 12.143 7.04687 13.0434 6.85794 13.9783C6.38849 16.2955 6.71482 18.7675 7.77968 20.8781C8.47243 22.2547 9.46859 23.482 10.6709 24.4399C11.8102 25.3461 13.1326 26.0229 14.541 26.3957C16.3158 26.8718 18.2051 26.8603 19.9913 26.453C21.6058 26.0802 23.1344 25.306 24.3539 24.1818C25.642 22.9945 26.5637 21.4345 27.0504 19.754C27.5827 17.9244 27.6514 15.9685 27.3196 14.0873C23.9817 14.0873 20.6383 14.0873 17.3005 14.0873C17.3005 15.4753 17.3005 16.8633 17.3005 18.2513C19.2356 18.2513 21.1707 18.2513 23.1058 18.2513C22.8825 19.5819 22.0924 20.7978 20.976 21.5492C20.2718 22.0252 19.4646 22.3292 18.6288 22.4783C17.7929 22.6217 16.9227 22.6389 16.0868 22.4726C15.2338 22.3005 14.4265 21.9449 13.7166 21.446C12.583 20.6487 11.7186 19.4844 11.2777 18.171C10.8254 16.8346 10.8197 15.3491 11.2777 14.0185C11.5983 13.0779 12.125 12.2118 12.8235 11.5006C13.6823 10.6173 14.7987 9.9864 16.0067 9.72831C17.0372 9.51036 18.1249 9.5505 19.1326 9.85448C19.9913 10.1126 20.7814 10.5886 21.4283 11.2081C22.081 10.5542 22.7336 9.90037 23.3863 9.24653C23.7298 8.89667 24.0905 8.55825 24.4226 8.19691C23.4321 7.27924 22.2642 6.53935 20.9932 6.06904C18.7032 5.2202 16.1269 5.20298 13.8197 6.00023Z" fill="white"/>
<path fill-rule="evenodd" clip-rule="evenodd" d="M13.8196 6.00016C16.1211 5.20291 18.7031 5.22013 20.9931 6.06325C22.2641 6.53356 23.4263 7.2677 24.4225 8.19112C24.0904 8.55246 23.7297 8.89085 23.3862 9.24071C22.7336 9.89457 22.0809 10.5484 21.4282 11.2022C20.7813 10.5828 19.9912 10.1125 19.1325 9.84868C18.1249 9.54471 17.0371 9.49882 16.0066 9.72249C14.8043 9.9806 13.6879 10.6115 12.8234 11.4948C12.125 12.2003 11.5982 13.072 11.2777 14.0127C10.1155 13.1065 8.95326 12.206 7.78534 11.2998C9.01624 8.83349 11.2261 6.88917 13.8196 6.00016Z" fill="#EA4335"/>
<path fill-rule="evenodd" clip-rule="evenodd" d="M6.86356 13.9726C7.05249 13.0435 7.36165 12.1372 7.79105 11.2884C8.95322 12.1946 10.1154 13.0951 11.2833 14.0013C10.8253 15.3377 10.8253 16.8231 11.2833 18.1538C10.1211 19.06 8.95897 19.9662 7.79677 20.8667C6.72044 18.7617 6.39411 16.2898 6.86356 13.9726Z" fill="#FBBC05"/>
<path fill-rule="evenodd" clip-rule="evenodd" d="M17.3005 14.0815C20.6382 14.0815 23.9816 14.0815 27.3195 14.0815C27.6514 15.9571 27.577 17.9129 27.0503 19.7482C26.5637 21.4287 25.6419 22.9888 24.3538 24.176C23.2259 23.2985 22.0981 22.421 20.9702 21.5434C22.0866 20.7921 22.8767 19.5762 23.1 18.2455C21.1649 18.2455 19.2298 18.2455 17.2947 18.2455C17.3005 16.8575 17.3005 15.4695 17.3005 14.0815Z" fill="#4285F4"/>
<path fill-rule="evenodd" clip-rule="evenodd" d="M7.78534 20.8724C8.94754 19.9719 10.1097 19.0657 11.2719 18.1595C11.7185 19.4729 12.5772 20.6372 13.7108 21.4345C14.4207 21.9335 15.2337 22.2891 16.081 22.4611C16.9169 22.6332 17.7813 22.6103 18.6229 22.4669C19.4588 22.3177 20.2661 22.0138 20.9702 21.5377C22.0981 22.4152 23.2259 23.2928 24.3538 24.1703C23.1343 25.3002 21.6057 26.0688 19.9912 26.4416C18.205 26.8488 16.3157 26.8603 14.541 26.3842C13.1326 26.0114 11.8101 25.3404 10.6708 24.4284C9.47425 23.4763 8.47809 22.2489 7.78534 20.8724Z" fill="#34A853"/>
</svg>
