<svg width="33" height="33" viewBox="0 0 33 33" fill="none" xmlns="http://www.w3.org/2000/svg">
<path fill-rule="evenodd" clip-rule="evenodd" d="M7.66518 0H25.3348C27.2631 0.00556099 29.1109 0.777614 30.4744 2.1475C31.8379 3.51738 32.6064 5.37374 32.6119 7.31104V24.9155C32.6057 26.8523 31.8369 28.708 30.4735 30.0773C29.11 31.4466 27.2627 32.2183 25.3348 32.2239H7.66518C5.73733 32.2183 3.88997 31.4466 2.52652 30.0773C1.16307 28.708 0.394288 26.8523 0.388062 24.9155V7.31104C0.393597 5.37374 1.16207 3.51738 2.5256 2.1475C3.88912 0.777614 5.73687 0.00556099 7.66518 0Z" fill="#0A66C2"/>
<path fill-rule="evenodd" clip-rule="evenodd" d="M13.2876 12.4906H17.3601V14.5983H17.4178C17.9869 13.5761 19.3715 12.4906 21.4406 12.4906C25.7386 12.4906 26.5332 15.1779 26.5332 18.6741V26.0668H22.2876V19.4961C22.2876 17.9917 22.2561 16.0553 20.0795 16.0553C17.903 16.0553 17.5306 17.6914 17.5306 19.388V26.0799H13.2876V12.4906ZM10.8776 8.37538C10.8776 8.81413 10.7481 9.24302 10.5055 9.60783C10.2628 9.97263 9.91799 10.257 9.51452 10.4249C9.11105 10.5928 8.66709 10.6367 8.23877 10.5511C7.81045 10.4655 7.41701 10.2542 7.10821 9.94398C6.79941 9.63374 6.58911 9.23847 6.50391 8.80816C6.41872 8.37784 6.46244 7.93181 6.62957 7.52646C6.79669 7.12111 7.0797 6.77466 7.44281 6.5309C7.80592 6.28715 8.23283 6.15704 8.66954 6.15704C9.25493 6.15774 9.81616 6.39168 10.2301 6.80755C10.644 7.22342 10.8769 7.78726 10.8776 8.37538ZM6.46673 12.4906H10.8776V26.0668H6.46673V12.4906Z" fill="white"/>
</svg>
