<svg width="250" height="192" viewBox="0 0 250 192" fill="none" xmlns="http://www.w3.org/2000/svg">
<g clip-path="url(#clip0_80_1504)">
<path d="M219.298 40.114H160.155V157.445H219.298V40.114Z" fill="#D2E2FF"/>
<path d="M218.92 153.646C218.92 153.993 218.851 154.337 218.717 154.658C218.583 154.978 218.386 155.269 218.138 155.515C217.891 155.76 217.596 155.955 217.272 156.088C216.948 156.221 216.601 156.289 216.25 156.289H163.763C163.054 156.289 162.375 156.01 161.874 155.515C161.373 155.019 161.092 154.347 161.092 153.646V43.9084C161.092 43.2076 161.374 42.5357 161.875 42.0403C162.375 41.5449 163.054 41.2666 163.763 41.2666H216.25C216.958 41.2666 217.637 41.5449 218.138 42.0404C218.639 42.5358 218.92 43.2077 218.92 43.9084V153.646ZM217.691 38.0746H162.321C161.139 38.0756 160.005 38.5412 159.169 39.369C158.333 40.1968 157.864 41.3192 157.864 42.4893V155.073C157.864 155.652 157.979 156.225 158.203 156.76C158.427 157.295 158.756 157.782 159.17 158.191C159.583 158.601 160.075 158.925 160.616 159.147C161.156 159.369 161.736 159.483 162.321 159.483H217.691C218.276 159.483 218.856 159.369 219.397 159.147C219.937 158.925 220.429 158.601 220.843 158.191C221.257 157.782 221.585 157.295 221.809 156.76C222.033 156.225 222.148 155.652 222.148 155.073V42.4862C222.147 41.3167 221.677 40.1954 220.842 39.3684C220.006 38.5415 218.873 38.0764 217.691 38.0754V38.0746Z" fill="#98B4E5"/>
<path d="M194.765 47.3708V84.6888C194.766 85.0158 194.701 85.3396 194.574 85.6418C194.448 85.9439 194.262 86.2184 194.029 86.4497C193.795 86.681 193.518 86.8644 193.213 86.9896C192.907 87.1148 192.58 87.1792 192.25 87.1792H167.591C166.923 87.1792 166.283 86.9168 165.811 86.4498C165.339 85.9827 165.074 85.3493 165.074 84.6888V47.3708C165.074 46.7103 165.339 46.0768 165.811 45.6098C166.283 45.1428 166.923 44.8804 167.591 44.8804H192.25C192.58 44.8804 192.907 44.9448 193.213 45.07C193.518 45.1951 193.795 45.3786 194.029 45.6098C194.262 45.8411 194.448 46.1156 194.574 46.4178C194.701 46.7199 194.766 47.0438 194.765 47.3708Z" fill="white"/>
<path d="M186.902 58.3375C186.902 62.1546 183.774 67.8402 179.918 67.8402C176.061 67.8402 172.933 62.1546 172.933 58.3375C172.933 56.5044 173.669 54.7465 174.979 53.4503C176.289 52.1542 178.065 51.426 179.918 51.426C181.77 51.426 183.547 52.1542 184.856 53.4503C186.166 54.7465 186.902 56.5044 186.902 58.3375Z" fill="#98B4E5"/>
<path d="M194.765 77.6315V84.688C194.766 85.015 194.701 85.3388 194.574 85.641C194.448 85.9431 194.262 86.2177 194.029 86.4489C193.795 86.6802 193.518 86.8636 193.213 86.9888C192.907 87.114 192.58 87.1784 192.25 87.1784H167.591C166.923 87.1784 166.283 86.916 165.811 86.449C165.339 85.9819 165.074 85.3485 165.074 84.688V78.9331C166.507 76.3391 168.593 74.1548 171.128 72.5911C173.664 71.0273 176.564 70.1371 179.549 70.0062C182.534 69.8754 185.502 70.5084 188.168 71.8441C190.833 73.1798 193.106 75.1731 194.765 77.6315Z" fill="#98B4E5"/>
<path d="M214.793 45.9888H198.978C198.208 45.9888 197.583 46.6066 197.583 47.3688C197.583 48.1309 198.208 48.7488 198.978 48.7488H214.793C215.564 48.7488 216.188 48.1309 216.188 47.3688C216.188 46.6066 215.564 45.9888 214.793 45.9888Z" fill="white"/>
<path d="M214.794 52.8499H198.978C198.609 52.8499 198.254 52.7045 197.992 52.4458C197.731 52.1871 197.584 51.8362 197.583 51.4702C197.583 51.1041 197.73 50.753 197.992 50.4942C198.254 50.2353 198.608 50.0898 198.978 50.0898H214.794C215.164 50.0901 215.519 50.2356 215.78 50.4944C216.041 50.7533 216.188 51.1043 216.188 51.4702C216.188 51.8361 216.041 52.1869 215.78 52.4455C215.518 52.7042 215.164 52.8496 214.794 52.8499ZM214.794 56.9666H198.978C198.608 56.9666 198.254 56.8212 197.992 56.5623C197.73 56.3034 197.583 55.9523 197.583 55.5862C197.583 55.2201 197.73 54.869 197.992 54.6101C198.254 54.3512 198.608 54.2058 198.978 54.2058H214.794C215.164 54.206 215.519 54.3515 215.78 54.6104C216.041 54.8692 216.188 55.2202 216.188 55.5862C216.188 55.9522 216.041 56.3032 215.78 56.562C215.519 56.8209 215.164 56.9664 214.794 56.9666Z" fill="white"/>
<path d="M214.798 89.6499H166.059C165.515 89.6499 165.074 90.0865 165.074 90.6251C165.074 91.1637 165.515 91.6003 166.059 91.6003H214.798C215.342 91.6003 215.784 91.1637 215.784 90.6251C215.784 90.0865 215.342 89.6499 214.798 89.6499Z" fill="white"/>
<path d="M214.798 96.5424H166.059C165.798 96.5424 165.547 96.4397 165.363 96.2568C165.178 96.0739 165.074 95.8259 165.074 95.5672C165.074 95.3086 165.178 95.0605 165.363 94.8777C165.547 94.6948 165.798 94.592 166.059 94.592H214.798C215.059 94.592 215.31 94.6948 215.495 94.8777C215.68 95.0605 215.784 95.3086 215.784 95.5672C215.784 95.8259 215.68 96.0739 215.495 96.2568C215.31 96.4397 215.059 96.5424 214.798 96.5424ZM214.798 146.993H166.059C165.93 146.993 165.802 146.968 165.682 146.919C165.563 146.87 165.454 146.798 165.363 146.708C165.271 146.617 165.198 146.51 165.149 146.391C165.099 146.273 165.074 146.146 165.074 146.018C165.074 145.76 165.178 145.512 165.363 145.329C165.547 145.146 165.798 145.043 166.059 145.043H214.798C215.059 145.043 215.31 145.146 215.495 145.329C215.68 145.512 215.784 145.76 215.784 146.018C215.784 146.146 215.758 146.273 215.709 146.391C215.659 146.51 215.586 146.617 215.495 146.708C215.403 146.798 215.295 146.87 215.175 146.919C215.056 146.968 214.927 146.993 214.798 146.993ZM214.798 152.333H166.059C165.93 152.333 165.802 152.308 165.682 152.259C165.562 152.21 165.454 152.138 165.362 152.048C165.27 151.957 165.198 151.85 165.148 151.731C165.099 151.613 165.073 151.486 165.073 151.358C165.073 151.099 165.177 150.851 165.362 150.668C165.547 150.485 165.797 150.383 166.059 150.383H214.797C215.059 150.383 215.309 150.485 215.494 150.668C215.679 150.851 215.783 151.099 215.783 151.358C215.783 151.616 215.679 151.864 215.494 152.047C215.31 152.23 215.059 152.333 214.798 152.333Z" fill="white"/>
<path opacity="0.5" d="M179.92 38.0754V159.481H162.322C161.737 159.481 161.157 159.367 160.616 159.145C160.076 158.924 159.584 158.599 159.17 158.19C158.756 157.78 158.428 157.294 158.204 156.759C157.98 156.224 157.865 155.65 157.865 155.071V42.4862C157.865 41.316 158.334 40.1937 159.17 39.3659C160.006 38.538 161.14 38.0725 162.322 38.0714L179.92 38.0754Z" fill="#243354"/>
<path d="M105.12 40.114H45.9779V157.445H105.12V40.114Z" fill="#D2E2FF"/>
<path d="M103.514 38.0753H48.1441C46.9609 38.0753 45.8261 38.5404 44.9894 39.3684C44.1527 40.1963 43.6827 41.3192 43.6827 42.4901V155.072C43.6827 155.652 43.7981 156.226 44.0224 156.761C44.2466 157.297 44.5753 157.783 44.9897 158.192C45.404 158.602 45.8959 158.927 46.4371 159.148C46.9784 159.369 47.5584 159.483 48.1441 159.482H103.514C104.099 159.483 104.678 159.369 105.219 159.147C105.76 158.925 106.251 158.601 106.665 158.191C107.079 157.782 107.408 157.295 107.632 156.76C107.856 156.225 107.971 155.652 107.971 155.072V42.4861C107.97 41.3166 107.5 40.1953 106.664 39.3684C105.829 38.5414 104.695 38.0764 103.514 38.0753ZM104.743 153.647C104.743 153.994 104.674 154.338 104.54 154.658C104.406 154.979 104.209 155.27 103.961 155.515C103.714 155.761 103.419 155.955 103.095 156.088C102.772 156.221 102.424 156.29 102.074 156.29H49.5861C48.8778 156.29 48.1986 156.011 47.6978 155.516C47.197 155.02 46.9156 154.348 46.9156 153.647V43.9091C46.9156 43.5621 46.9847 43.2185 47.1189 42.898C47.2531 42.5774 47.4498 42.2861 47.6978 42.0408C47.9458 41.7955 48.2402 41.6009 48.5642 41.4682C48.8882 41.3355 49.2354 41.2672 49.5861 41.2673H102.074C102.424 41.2673 102.772 41.3357 103.095 41.4684C103.419 41.6012 103.714 41.7958 103.961 42.0411C104.209 42.2865 104.406 42.5777 104.54 42.8982C104.674 43.2187 104.743 43.5622 104.743 43.9091V153.647Z" fill="#98B4E5"/>
<path d="M80.5881 47.3708V84.6888C80.5882 85.0158 80.5232 85.3396 80.3968 85.6418C80.2705 85.9439 80.0851 86.2184 79.8515 86.4497C79.6179 86.681 79.3405 86.8644 79.0352 86.9896C78.7299 87.1148 78.4027 87.1792 78.0722 87.1792H53.4133C52.7458 87.1792 52.1057 86.9168 51.6337 86.4498C51.1617 85.9827 50.8966 85.3493 50.8966 84.6888V47.3708C50.8966 46.7103 51.1617 46.0768 51.6337 45.6098C52.1057 45.1428 52.7458 44.8804 53.4133 44.8804H78.0754C78.7422 44.8812 79.3815 45.144 79.8526 45.6109C80.3238 46.0779 80.5883 46.7109 80.5881 47.3708Z" fill="white"/>
<path d="M72.7273 58.3375C72.7273 62.1546 69.6003 67.8402 65.7428 67.8402C61.8853 67.8402 58.7583 62.1546 58.7583 58.3375C58.7583 56.5044 59.4942 54.7465 60.804 53.4503C62.1139 52.1542 63.8904 51.426 65.7428 51.426C67.5952 51.426 69.3718 52.1542 70.6816 53.4503C71.9915 54.7465 72.7273 56.5044 72.7273 58.3375Z" fill="#98B4E5"/>
<path d="M80.5881 77.6315V84.688C80.5882 85.015 80.5232 85.3388 80.3968 85.641C80.2705 85.9431 80.0851 86.2177 79.8515 86.4489C79.6179 86.6802 79.3405 86.8636 79.0352 86.9888C78.7299 87.114 78.4027 87.1784 78.0722 87.1784H53.4133C52.7458 87.1784 52.1057 86.916 51.6337 86.449C51.1617 85.9819 50.8966 85.3485 50.8966 84.688V78.9331C52.3301 76.3391 54.4154 74.1548 56.9511 72.5911C59.4867 71.0273 62.387 70.1371 65.3719 70.0062C68.3567 69.8754 71.3252 70.5084 73.9906 71.8441C76.6561 73.1798 78.9284 75.1731 80.5881 77.6315Z" fill="#98B4E5"/>
<path d="M86.0893 45.9888H99.3286C100.04 45.9888 100.722 46.2684 101.225 46.7662C101.728 47.264 102.011 47.9392 102.011 48.6431V53.5474C102.011 54.2516 101.728 54.927 101.225 55.4249C100.722 55.9229 100.039 56.2026 99.3278 56.2026H86.0893C85.7369 56.2026 85.388 56.1339 85.0625 56.0005C84.7369 55.8671 84.4411 55.6715 84.192 55.4249C83.9428 55.1784 83.7452 54.8857 83.6103 54.5635C83.4755 54.2414 83.4061 53.8961 83.4061 53.5474V48.6431C83.4061 48.2945 83.4755 47.9493 83.6103 47.6272C83.7452 47.3051 83.9428 47.0124 84.192 46.7659C84.4412 46.5194 84.737 46.3239 85.0625 46.1906C85.3881 46.0572 85.737 45.9887 86.0893 45.9888ZM86.0893 61.1645H99.3286C100.04 61.1645 100.723 61.4442 101.226 61.9421C101.729 62.4401 102.012 63.1154 102.012 63.8196V68.7231C102.012 69.4273 101.729 70.1027 101.226 70.6006C100.723 71.0986 100.04 71.3783 99.3286 71.3783H86.0893C85.3779 71.3783 84.6956 71.0986 84.1925 70.6009C83.6895 70.1031 83.4069 69.4279 83.4069 68.7239V63.8196C83.4069 63.1156 83.6894 62.4403 84.1925 61.9424C84.6955 61.4445 85.3778 61.1647 86.0893 61.1645ZM86.0893 76.3969H99.3286C100.04 76.3969 100.722 76.6766 101.225 77.1744C101.728 77.6722 102.011 78.3473 102.011 79.0513V83.9556C102.011 84.3042 101.942 84.6493 101.807 84.9714C101.672 85.2934 101.474 85.586 101.225 85.8325C100.976 86.079 100.681 86.2745 100.355 86.4079C100.03 86.5413 99.6808 86.61 99.3286 86.61H86.0893C85.737 86.61 85.3882 86.5413 85.0628 86.4079C84.7373 86.2745 84.4416 86.079 84.1925 85.8325C83.9434 85.586 83.7459 85.2934 83.6111 84.9714C83.4762 84.6493 83.4069 84.3042 83.4069 83.9556V79.0505C83.4073 78.3467 83.6901 77.6719 84.193 77.1743C84.696 76.6767 85.3781 76.3971 86.0893 76.3969Z" fill="white"/>
<path d="M100.621 89.6499H51.8821C51.3378 89.6499 50.8966 90.0865 50.8966 90.6251C50.8966 91.1637 51.3378 91.6003 51.8821 91.6003H100.621C101.165 91.6003 101.606 91.1637 101.606 90.6251C101.606 90.0865 101.165 89.6499 100.621 89.6499Z" fill="white"/>
<path d="M100.622 96.5424H51.8821C51.6207 96.5424 51.37 96.4397 51.1852 96.2568C51.0004 96.0739 50.8966 95.8259 50.8966 95.5672C50.8966 95.3086 51.0004 95.0605 51.1852 94.8777C51.37 94.6948 51.6207 94.592 51.8821 94.592H100.622C100.883 94.592 101.134 94.6948 101.318 94.8777C101.503 95.0605 101.607 95.3086 101.607 95.5672C101.607 95.8259 101.503 96.0739 101.318 96.2568C101.134 96.4397 100.883 96.5424 100.622 96.5424ZM100.622 146.993H51.8821C51.7527 146.993 51.6246 146.968 51.505 146.919C51.3854 146.87 51.2768 146.798 51.1853 146.708C51.0938 146.617 51.0211 146.51 50.9716 146.391C50.9221 146.273 50.8966 146.146 50.8966 146.018C50.8966 145.76 51.0004 145.512 51.1852 145.329C51.37 145.146 51.6207 145.043 51.8821 145.043H100.622C100.883 145.043 101.134 145.146 101.318 145.329C101.503 145.512 101.607 145.76 101.607 146.018C101.607 146.146 101.582 146.273 101.532 146.391C101.482 146.51 101.41 146.617 101.318 146.708C101.227 146.798 101.118 146.87 100.999 146.919C100.879 146.968 100.751 146.993 100.622 146.993ZM100.622 152.333H51.8821C51.6207 152.333 51.37 152.23 51.1852 152.047C51.0004 151.864 50.8966 151.616 50.8966 151.358C50.8966 151.099 51.0004 150.851 51.1852 150.668C51.37 150.485 51.6207 150.383 51.8821 150.383H100.622C100.883 150.383 101.134 150.485 101.318 150.668C101.503 150.851 101.607 151.099 101.607 151.358C101.607 151.616 101.503 151.864 101.318 152.047C101.134 152.23 100.883 152.333 100.622 152.333Z" fill="white"/>
<path opacity="0.5" d="M107.971 42.4861V155.072C107.971 155.652 107.856 156.225 107.632 156.76C107.408 157.295 107.079 157.782 106.665 158.191C106.251 158.601 105.76 158.925 105.219 159.147C104.678 159.369 104.099 159.483 103.514 159.482H93.4171V38.0769H103.514C104.695 38.0779 105.828 38.5428 106.664 39.3694C107.499 40.196 107.969 41.3169 107.971 42.4861Z" fill="#243354"/>
<path d="M172.871 17.4774H99.8885V162.265H172.871V17.4774Z" fill="#D2E2FF"/>
<path d="M170.889 14.9618H102.562C101.84 14.9618 101.125 15.1026 100.458 15.3762C99.7904 15.6498 99.1843 16.0509 98.6738 16.5564C98.1633 17.0619 97.7584 17.6621 97.4824 18.3225C97.2064 18.9829 97.0646 19.6907 97.0651 20.4053V159.337C97.0651 160.78 97.6443 162.164 98.6752 163.184C99.7061 164.204 101.104 164.777 102.562 164.777H170.889C172.347 164.777 173.745 164.204 174.776 163.184C175.807 162.164 176.386 160.78 176.386 159.337V20.4053C176.386 19.6907 176.245 18.9829 175.969 18.3225C175.693 17.6621 175.288 17.0619 174.777 16.5564C174.267 16.0509 173.661 15.6498 172.993 15.3762C172.326 15.1026 171.611 14.9618 170.889 14.9618ZM172.403 157.578C172.403 158.006 172.318 158.43 172.152 158.826C171.987 159.221 171.744 159.581 171.438 159.883C171.132 160.186 170.769 160.426 170.369 160.59C169.969 160.754 169.541 160.838 169.108 160.838H104.338C103.464 160.838 102.626 160.495 102.008 159.883C101.39 159.272 101.043 158.443 101.043 157.578V22.1641C101.043 21.2994 101.39 20.47 102.008 19.8585C102.626 19.2471 103.464 18.9035 104.338 18.9035H169.108C169.541 18.9035 169.969 18.9879 170.369 19.1517C170.769 19.3156 171.132 19.5558 171.438 19.8586C171.744 20.1614 171.987 20.5208 172.152 20.9164C172.318 21.312 172.403 21.736 172.403 22.1641V157.578Z" fill="#5681BF"/>
<path d="M144.13 26.5553V74.6523C144.13 75.0243 144.056 75.3926 143.913 75.7363C143.769 76.08 143.559 76.3923 143.293 76.6554C143.027 76.9184 142.712 77.1271 142.364 77.2694C142.017 77.4118 141.645 77.485 141.269 77.4849H107.765C107.006 77.4845 106.278 77.1859 105.741 76.6547C105.205 76.1236 104.903 75.4034 104.903 74.6523V26.5553C104.903 25.8042 105.204 25.084 105.741 24.5529C106.278 24.0219 107.006 23.7235 107.765 23.7235H141.269C142.028 23.7237 142.756 24.0222 143.292 24.5532C143.829 25.0842 144.13 25.8044 144.13 26.5553Z" fill="white"/>
<path d="M143.946 75.6536C143.741 76.1918 143.374 76.6554 142.896 76.9826C142.418 77.3098 141.85 77.485 141.269 77.4849H107.765C107.349 77.4855 106.938 77.396 106.561 77.2228C106.183 77.0495 105.849 76.7968 105.581 76.4821C106.935 73.544 108.298 70.806 109.271 69.3957C112.003 65.4358 118.181 64.4709 118.181 64.4709L129.679 64.2635C129.679 64.2635 133.797 64.854 138.615 67.3018C140.57 68.2959 142.428 71.8199 143.946 75.6536Z" fill="#5681BF"/>
<path d="M118.349 36.1274C118.349 36.1274 119.026 31.3973 123.793 31.752C128.56 32.1068 130.012 34.717 129.581 36.3505C129.15 37.9839 129.471 56.9579 129.471 56.9579C129.471 56.9579 130.799 62.8705 128.712 63.919C126.624 64.9675 118.594 63.718 118.594 63.718C118.594 63.718 116.808 60.2618 119.002 52.3468C121.196 44.4318 118.349 36.1274 118.349 36.1274Z" fill="#272727"/>
<path d="M120.441 35.6267C120.441 35.6267 122.91 33.1631 127.667 35.4998C132.424 37.8364 120.569 37.3918 120.569 37.3918L120.441 35.6267Z" fill="#D2E2FF"/>
<path d="M120.14 61.822C120.14 61.822 122.861 60.0088 127.912 61.7833L128.658 63.7613L119.549 64.4976L120.14 61.822Z" fill="#5681BF"/>
<path d="M127.493 63.5382C127.298 62.6915 127.015 61.2087 126.985 59.8425C126.974 59.5132 126.984 59.1835 127.014 58.8554L121.126 58.7388C121.126 58.7388 121.105 59.1211 121.069 59.6801C120.997 60.7837 120.844 62.5875 120.604 63.543C120.554 63.7478 120.563 63.9623 120.631 64.1622C120.698 64.3621 120.821 64.5392 120.985 64.6735C121.463 65.0733 122.014 65.3797 122.608 65.5761L124.959 72.3559L126.267 65.614C126.618 65.448 126.954 65.2542 127.272 65.0345C127.652 64.7696 127.592 63.9805 127.493 63.5382Z" fill="#F5B0A6"/>
<path d="M126.985 59.8425C124.185 60.5811 122.239 60.1807 121.069 59.6801C121.105 59.1211 121.126 58.7388 121.126 58.7388L127.014 58.8562C126.984 59.1841 126.974 59.5134 126.985 59.8425Z" fill="#F18A8B"/>
<path d="M134.649 51.2218C134.665 53.3204 131.914 54.4832 130.792 54.8679C129.633 57.2763 127.605 59.49 124.056 59.4198C120.491 59.3489 118.55 57.0319 117.49 54.5628C116.328 54.0898 113.805 52.8363 113.9 50.8095C113.991 48.9963 115.104 48.6612 115.786 48.6297C115.933 48.6217 116.08 48.6275 116.226 48.647L117.765 38.6114L124.501 37.4698L129.436 38.5097L131.353 40.3229L132.321 48.9813C132.321 48.9813 134.632 48.5871 134.649 51.2218Z" fill="#F5B0A6"/>
<path d="M132.686 50.6763C132.537 50.2647 133.011 49.8879 133.388 50.1118C133.702 50.3002 133.963 50.7062 133.707 51.5781C133.204 53.2723 132.279 52.5163 132.353 51.9999C132.427 51.4835 132.91 51.2675 132.693 50.6936C132.69 50.688 132.688 50.6822 132.686 50.6763ZM115.809 50.3412C115.975 49.936 115.516 49.5371 115.13 49.7492C114.811 49.925 114.531 50.3199 114.754 51.2021C115.187 52.9144 116.143 52.1954 116.088 51.6751C116.032 51.1548 115.563 50.9214 115.802 50.357L115.809 50.3412Z" fill="#F18A8B"/>
<path d="M121.096 37.8459C121.096 37.8459 120.156 44.6967 114.708 46.1457C114.709 46.1457 118.579 43.4274 121.096 37.8459Z" fill="#1D1D1D"/>
<path d="M132.321 48.9814C125.008 49.1895 123.858 42.5051 123.858 42.5051C122.479 49.8533 116.21 48.6613 116.21 48.6613L115.786 48.6321C115.933 48.6241 116.081 48.6299 116.227 48.6495L117.765 38.6138L124.502 37.4723L129.437 38.5121L131.354 40.3253L132.321 48.9814Z" fill="#F18A8B"/>
<path d="M132.321 48.9814C124.926 47.2959 123.949 40.5114 123.949 40.5114C123.949 40.5114 122.696 46.9427 116.226 48.6495C115.531 48.5707 115.12 48.7662 115.12 48.7662C113.748 46.0133 114.473 41.3557 114.473 41.3557C116.211 33.4722 123.853 35.9658 123.853 35.9658C136.717 32.4316 133.843 49.3109 133.843 49.3109C133.393 49.0211 132.852 48.9039 132.321 48.9814Z" fill="#313131"/>
<path d="M132.321 48.9814C124.926 47.2967 123.949 40.5122 123.949 40.5122C123.949 40.5122 122.696 46.9435 116.226 48.6495C116.226 48.6495 123.412 44.2285 123.748 38.7676C123.748 38.766 126.348 46.2261 132.321 48.9814Z" fill="#1D1D1D"/>
<path d="M126.137 41.6939C126.137 41.6939 127.122 46.3971 132.59 46.0179C132.589 46.0187 128.303 44.9221 126.137 41.6939ZM122.205 40.7486C122.205 40.7486 120.762 44.7692 116.437 45.742C116.437 45.742 119.395 44.2686 122.205 40.7486ZM121.583 36.4537C121.583 36.4537 117.072 35.9555 115.802 42.6351C115.802 42.6351 117.635 37.153 121.583 36.4537ZM126.856 36.5538C126.856 36.5538 132.775 35.9823 132.999 42.5066C132.999 42.5066 132.072 37.6875 126.856 36.5538Z" fill="#1D1D1D"/>
<path d="M120.853 70.3038L123.431 68.9368L123.159 66.3991L121.192 65.7408L120.918 68.4181L120.853 70.3038Z" fill="#93B7E2"/>
<path d="M129.257 70.2557L126.147 68.6096L126.141 66.2603L127.918 65.6415L129.257 70.2557Z" fill="#93B7E2"/>
<path d="M123.499 65.554C123.499 65.554 120.778 68.802 120.857 70.3038C120.857 70.3038 118.008 67.1757 118.534 64.2698L120.14 61.8259C120.14 61.8259 121.395 64.8248 123.499 65.554Z" fill="#98B4E5"/>
<path d="M123.499 65.554L124.959 72.3511L122.559 66.7735C122.559 66.7735 122.898 65.7905 123.499 65.554Z" fill="#F18A8B"/>
<path d="M125.623 65.5958L124.959 72.3512L126.862 66.3605L125.623 65.5958Z" fill="#F18A8B"/>
<path d="M129.677 64.2627L129.257 70.2542L125.623 65.5935C125.623 65.5935 128.141 63.5185 127.908 61.781L129.677 64.2627Z" fill="#98B4E5"/>
<path d="M154.079 35.4809C152.944 35.4809 151.973 35.2592 151.165 34.8156C150.373 34.3866 149.727 33.7362 149.306 32.9456C148.873 32.1426 148.656 31.1942 148.656 30.1005C148.656 29.0157 148.873 28.072 149.306 27.2695C149.727 26.4788 150.373 25.8282 151.165 25.3988C151.973 24.9552 152.944 24.7334 154.079 24.7334C154.589 24.7353 155.098 24.7996 155.593 24.925C156.06 25.0359 156.511 25.2102 156.93 25.4429C157.238 25.6206 157.427 25.8421 157.497 26.1075C157.569 26.3587 157.545 26.6269 157.431 26.8619C157.325 27.0901 157.135 27.2698 156.9 27.3641C156.661 27.4634 156.392 27.429 156.094 27.2608C155.801 27.0862 155.484 26.9567 155.152 26.8769C154.824 26.7982 154.488 26.7585 154.151 26.7587C153.145 26.7587 152.385 27.0477 151.873 27.6258C151.36 28.204 151.104 29.0294 151.103 30.102C151.103 31.1758 151.36 32.0035 151.873 32.5853C152.386 33.1671 153.145 33.4578 154.151 33.4573C154.481 33.4559 154.809 33.4162 155.13 33.339C155.466 33.2592 155.791 33.1348 156.094 32.9693C156.412 32.8021 156.691 32.7653 156.93 32.8589C157.161 32.9449 157.35 33.1139 157.46 33.3319C157.574 33.5559 157.603 33.8133 157.54 34.0564C157.48 34.3192 157.311 34.5333 157.032 34.6989C156.611 34.9638 156.15 35.1587 155.665 35.276C155.147 35.4111 154.614 35.48 154.079 35.4809ZM163.281 35.4549C163.004 35.4664 162.73 35.3914 162.497 35.2405C162.272 35.071 162.099 34.8432 161.996 34.5822L158.232 26.3046C158.033 25.8615 158.035 25.4936 158.239 25.2009C158.443 24.9081 158.754 24.7628 159.173 24.7649C159.512 24.7649 159.768 24.8414 159.942 24.9943C160.142 25.1833 160.297 25.4127 160.398 25.6668L163.326 32.3804L166.255 25.6542C166.351 25.4018 166.507 25.1762 166.71 24.9967C166.895 24.8438 167.146 24.7673 167.465 24.7673C167.852 24.7673 168.145 24.9126 168.341 25.2033C168.538 25.4939 168.535 25.8618 168.333 26.3069L164.569 34.5846C164.459 34.8414 164.287 35.0676 164.068 35.2429C163.872 35.3842 163.61 35.4549 163.281 35.4549Z" fill="#5681BF"/>
<path d="M166.083 41.2698H151.055C149.73 41.2698 148.656 42.3325 148.656 43.6435V92.3618C148.656 93.6728 149.73 94.7355 151.055 94.7355H166.083C167.408 94.7355 168.482 93.6728 168.482 92.3618V43.6435C168.482 42.3325 167.408 41.2698 166.083 41.2698Z" fill="white"/>
<path d="M167.934 135.329H106C105.709 135.329 105.43 135.215 105.224 135.011C105.018 134.808 104.903 134.531 104.903 134.244C104.903 133.956 105.018 133.679 105.224 133.476C105.43 133.272 105.709 133.158 106 133.158H167.934C168.225 133.158 168.504 133.273 168.71 133.476C168.915 133.68 169.031 133.956 169.031 134.244C169.031 134.531 168.915 134.807 168.71 135.011C168.504 135.214 168.225 135.329 167.934 135.329Z" fill="white"/>
<path d="M167.934 126.415H106C105.394 126.415 104.903 126.901 104.903 127.501C104.903 128.1 105.394 128.586 106 128.586H167.934C168.54 128.586 169.031 128.1 169.031 127.501C169.031 126.901 168.54 126.415 167.934 126.415Z" fill="white"/>
<path d="M150.031 150.518H106C105.709 150.518 105.43 150.404 105.224 150.2C105.018 149.997 104.903 149.721 104.903 149.433C104.903 149.29 104.931 149.149 104.986 149.017C105.041 148.885 105.122 148.766 105.224 148.665C105.326 148.564 105.447 148.484 105.58 148.43C105.713 148.375 105.856 148.347 106 148.347H150.031C150.322 148.347 150.601 148.462 150.807 148.665C151.012 148.869 151.128 149.145 151.128 149.433C151.128 149.721 151.012 149.997 150.806 150.2C150.601 150.404 150.322 150.518 150.031 150.518Z" fill="white"/>
<path d="M159.058 154.356H106C105.394 154.356 104.903 154.842 104.903 155.441C104.903 156.041 105.394 156.527 106 156.527H159.058C159.664 156.527 160.155 156.041 160.155 155.441C160.155 154.842 159.664 154.356 159.058 154.356Z" fill="white"/>
<path d="M110.448 137.522L111.444 139.521C111.484 139.6 111.541 139.667 111.613 139.718C111.684 139.77 111.767 139.803 111.854 139.816L114.085 140.136C114.185 140.151 114.28 140.193 114.357 140.257C114.435 140.322 114.493 140.407 114.524 140.503C114.556 140.598 114.559 140.701 114.535 140.798C114.511 140.896 114.459 140.985 114.387 141.055L112.773 142.61C112.71 142.671 112.662 142.746 112.634 142.829C112.606 142.912 112.599 143.001 112.614 143.087L112.995 145.284C113.012 145.383 113.001 145.484 112.963 145.577C112.924 145.67 112.86 145.751 112.778 145.81C112.696 145.869 112.599 145.904 112.498 145.912C112.396 145.919 112.295 145.898 112.205 145.851L110.214 144.814C110.135 144.773 110.049 144.752 109.961 144.752C109.873 144.752 109.786 144.773 109.708 144.814L107.716 145.851C107.626 145.898 107.525 145.919 107.424 145.912C107.322 145.904 107.225 145.869 107.143 145.81C107.061 145.751 106.997 145.67 106.959 145.577C106.92 145.484 106.909 145.383 106.926 145.284L107.307 143.087C107.322 143.001 107.315 142.912 107.287 142.829C107.259 142.746 107.212 142.671 107.148 142.61L105.535 141.055C105.462 140.985 105.411 140.896 105.386 140.798C105.362 140.701 105.366 140.598 105.397 140.503C105.428 140.407 105.486 140.322 105.564 140.257C105.642 140.193 105.736 140.151 105.837 140.136L108.067 139.816C108.154 139.803 108.237 139.77 108.309 139.718C108.38 139.667 108.438 139.6 108.477 139.521L109.473 137.522C109.519 137.433 109.588 137.357 109.674 137.304C109.76 137.252 109.859 137.224 109.961 137.224C110.062 137.224 110.161 137.252 110.247 137.304C110.333 137.357 110.403 137.433 110.448 137.522ZM122.308 137.522L123.305 139.521C123.344 139.6 123.401 139.667 123.473 139.719C123.544 139.77 123.627 139.803 123.714 139.816L125.945 140.136C126.045 140.151 126.14 140.193 126.217 140.258C126.295 140.323 126.352 140.407 126.384 140.503C126.415 140.599 126.419 140.701 126.394 140.798C126.37 140.896 126.319 140.985 126.246 141.055L124.633 142.61C124.57 142.671 124.522 142.746 124.494 142.829C124.467 142.912 124.46 143.001 124.474 143.087L124.855 145.284C124.872 145.383 124.861 145.484 124.823 145.577C124.784 145.67 124.721 145.751 124.639 145.81C124.556 145.869 124.459 145.904 124.358 145.912C124.257 145.919 124.155 145.898 124.065 145.851L122.074 144.814C121.996 144.773 121.909 144.752 121.82 144.752C121.732 144.752 121.645 144.773 121.567 144.814L119.575 145.851C119.485 145.898 119.384 145.919 119.283 145.912C119.182 145.904 119.084 145.869 119.002 145.81C118.92 145.751 118.856 145.67 118.818 145.577C118.78 145.484 118.769 145.383 118.786 145.284L119.167 143.087C119.181 143.001 119.174 142.912 119.147 142.829C119.119 142.746 119.071 142.671 119.007 142.61L117.394 141.055C117.321 140.985 117.27 140.896 117.246 140.798C117.221 140.701 117.225 140.598 117.256 140.503C117.288 140.407 117.346 140.322 117.423 140.257C117.501 140.193 117.595 140.151 117.696 140.136L119.927 139.816C120.014 139.803 120.097 139.77 120.168 139.719C120.24 139.667 120.298 139.6 120.337 139.521L121.335 137.522C121.38 137.433 121.45 137.358 121.536 137.305C121.622 137.253 121.721 137.225 121.822 137.225C121.923 137.225 122.021 137.253 122.107 137.305C122.193 137.358 122.263 137.433 122.308 137.522ZM134.167 137.522L135.165 139.521C135.204 139.6 135.261 139.667 135.333 139.719C135.404 139.77 135.487 139.803 135.574 139.816L137.805 140.136C137.905 140.151 138 140.193 138.077 140.258C138.155 140.323 138.213 140.407 138.244 140.503C138.275 140.599 138.279 140.701 138.255 140.798C138.23 140.896 138.179 140.985 138.106 141.055L136.494 142.61C136.43 142.671 136.382 142.746 136.354 142.829C136.327 142.912 136.32 143.001 136.334 143.087L136.715 145.284C136.732 145.383 136.721 145.484 136.683 145.577C136.645 145.67 136.581 145.751 136.499 145.81C136.417 145.869 136.319 145.904 136.218 145.912C136.117 145.919 136.016 145.898 135.926 145.851L133.934 144.814C133.856 144.773 133.769 144.752 133.681 144.752C133.592 144.752 133.505 144.773 133.427 144.814L131.436 145.851C131.346 145.898 131.244 145.919 131.143 145.912C131.042 145.904 130.945 145.869 130.863 145.81C130.78 145.751 130.717 145.67 130.678 145.577C130.64 145.484 130.629 145.383 130.646 145.284L131.027 143.087C131.041 143.001 131.035 142.912 131.007 142.829C130.979 142.746 130.931 142.671 130.868 142.61L129.255 141.055C129.182 140.985 129.131 140.896 129.107 140.798C129.082 140.701 129.086 140.599 129.117 140.503C129.149 140.407 129.206 140.323 129.284 140.258C129.361 140.193 129.456 140.151 129.556 140.136L131.787 139.816C131.874 139.803 131.957 139.77 132.028 139.719C132.1 139.667 132.157 139.6 132.196 139.521L133.194 137.522C133.239 137.433 133.308 137.357 133.394 137.305C133.48 137.252 133.58 137.224 133.681 137.224C133.782 137.224 133.881 137.252 133.967 137.305C134.053 137.357 134.122 137.433 134.167 137.522ZM146.028 137.522L147.024 139.521C147.063 139.6 147.121 139.667 147.193 139.719C147.264 139.77 147.347 139.803 147.435 139.816L149.665 140.136C149.766 140.151 149.86 140.193 149.938 140.257C150.016 140.322 150.073 140.407 150.105 140.503C150.136 140.598 150.14 140.701 150.116 140.798C150.091 140.896 150.04 140.985 149.967 141.055L148.354 142.61C148.29 142.671 148.243 142.746 148.215 142.829C148.187 142.912 148.18 143.001 148.195 143.087L148.575 145.284C148.593 145.383 148.581 145.484 148.543 145.577C148.505 145.67 148.441 145.751 148.359 145.81C148.277 145.869 148.18 145.904 148.078 145.912C147.977 145.919 147.876 145.898 147.786 145.851L145.794 144.814C145.716 144.773 145.629 144.752 145.541 144.752C145.453 144.752 145.366 144.773 145.287 144.814L143.296 145.851C143.206 145.898 143.105 145.919 143.003 145.912C142.902 145.904 142.805 145.869 142.723 145.81C142.641 145.751 142.577 145.67 142.539 145.577C142.5 145.484 142.489 145.383 142.506 145.284L142.887 143.087C142.902 143.001 142.895 142.912 142.867 142.829C142.839 142.746 142.791 142.671 142.728 142.61L141.115 141.055C141.043 140.985 140.991 140.896 140.967 140.798C140.942 140.701 140.946 140.599 140.977 140.503C141.009 140.407 141.066 140.323 141.144 140.258C141.222 140.193 141.316 140.151 141.416 140.136L143.647 139.816C143.734 139.803 143.817 139.77 143.889 139.719C143.96 139.667 144.018 139.6 144.057 139.521L145.053 137.522C145.098 137.433 145.168 137.357 145.254 137.304C145.34 137.252 145.439 137.224 145.54 137.224C145.642 137.224 145.741 137.252 145.827 137.304C145.913 137.357 145.983 137.433 146.028 137.522ZM157.888 137.522L158.884 139.521C158.924 139.6 158.981 139.667 159.053 139.718C159.124 139.77 159.207 139.803 159.294 139.816L161.525 140.136C161.625 140.151 161.72 140.193 161.797 140.257C161.875 140.322 161.933 140.407 161.964 140.503C161.996 140.598 161.999 140.701 161.975 140.798C161.951 140.896 161.899 140.985 161.827 141.055L160.213 142.61C160.15 142.671 160.102 142.746 160.074 142.829C160.046 142.912 160.039 143.001 160.054 143.087L160.435 145.284C160.452 145.383 160.441 145.484 160.403 145.577C160.364 145.67 160.3 145.751 160.218 145.81C160.136 145.869 160.039 145.904 159.938 145.912C159.836 145.919 159.735 145.898 159.645 145.851L157.654 144.814C157.576 144.773 157.489 144.752 157.401 144.752C157.313 144.752 157.226 144.773 157.148 144.814L155.156 145.851C155.066 145.898 154.965 145.919 154.864 145.912C154.762 145.904 154.665 145.869 154.583 145.81C154.501 145.751 154.437 145.67 154.399 145.577C154.361 145.484 154.349 145.383 154.366 145.284L154.747 143.087C154.762 143.001 154.755 142.912 154.727 142.829C154.7 142.746 154.652 142.671 154.588 142.61L152.975 141.055C152.903 140.985 152.851 140.896 152.827 140.798C152.803 140.701 152.806 140.599 152.838 140.503C152.869 140.407 152.927 140.323 153.004 140.258C153.082 140.193 153.176 140.151 153.277 140.136L155.507 139.816C155.595 139.803 155.677 139.77 155.749 139.719C155.82 139.667 155.878 139.6 155.917 139.521L156.913 137.522C156.959 137.433 157.028 137.357 157.114 137.304C157.2 137.252 157.299 137.224 157.401 137.224C157.502 137.224 157.601 137.252 157.687 137.304C157.773 137.357 157.843 137.433 157.888 137.522Z" fill="#F3CE90"/>
<path d="M190.279 22.202H182.397C181.926 22.202 181.544 22.5797 181.544 23.0456V26.4851C181.544 26.951 181.926 27.3286 182.397 27.3286H190.279C190.75 27.3286 191.132 26.951 191.132 26.4851V23.0456C191.132 22.5797 190.75 22.202 190.279 22.202Z" fill="#98B4E5"/>
<path d="M88.6705 23.1716H74.758C73.9269 23.1716 73.2531 23.8384 73.2531 24.6608V30.7319C73.2531 31.5543 73.9269 32.2211 74.758 32.2211H88.6705C89.5017 32.2211 90.1754 31.5543 90.1754 30.7319V24.6608C90.1754 23.8384 89.5017 23.1716 88.6705 23.1716Z" fill="#98B4E5"/>
<path d="M119.067 0.0864258H105.155C104.324 0.0864258 103.65 0.753159 103.65 1.57562V7.64668C103.65 8.46914 104.324 9.13587 105.155 9.13587H119.067C119.898 9.13587 120.572 8.46914 120.572 7.64668V1.57562C120.572 0.753159 119.898 0.0864258 119.067 0.0864258Z" fill="#98B4E5"/>
<path d="M60.8495 13.6603H53.4508C53.0086 13.6603 52.6501 14.015 52.6501 14.4526V17.6809C52.6501 18.1184 53.0086 18.4731 53.4508 18.4731H60.8495C61.2917 18.4731 61.6502 18.1184 61.6502 17.6809V14.4526C61.6502 14.015 61.2917 13.6603 60.8495 13.6603Z" fill="#D1DBED"/>
<path d="M225.133 27.6298H211.329C210.504 27.6298 209.836 28.2916 209.836 29.1079V35.1309C209.836 35.9473 210.504 36.609 211.329 36.609H225.133C225.958 36.609 226.627 35.9473 226.627 35.1309V29.1079C226.627 28.2916 225.958 27.6298 225.133 27.6298Z" fill="#98B4E5"/>
<path d="M36.9236 39.6567H30.9222C30.4774 39.6567 30.1168 40.0136 30.1168 40.4538V44.6233C30.1168 45.0635 30.4774 45.4203 30.9222 45.4203H36.9236C37.3684 45.4203 37.7291 45.0635 37.7291 44.6233V40.4538C37.7291 40.0136 37.3684 39.6567 36.9236 39.6567Z" fill="#98B4E5"/>
<path d="M161.341 8.01489H154.828C154.439 8.01489 154.124 8.3269 154.124 8.71179V11.5546C154.124 11.9395 154.439 12.2515 154.828 12.2515H161.341C161.73 12.2515 162.046 11.9395 162.046 11.5546V8.71179C162.046 8.3269 161.73 8.01489 161.341 8.01489Z" fill="#D1DBED"/>
<path d="M205.671 13.948H199.158C198.769 13.948 198.453 14.26 198.453 14.6449V17.4877C198.453 17.8726 198.769 18.1846 199.158 18.1846H205.671C206.06 18.1846 206.376 17.8726 206.376 17.4877V14.6449C206.376 14.26 206.06 13.948 205.671 13.948Z" fill="#D1DBED"/>
<path d="M138.647 3.13574H134.112C133.841 3.13574 133.621 3.35316 133.621 3.62136V5.60012C133.621 5.86832 133.841 6.08574 134.112 6.08574H138.647C138.918 6.08574 139.138 5.86832 139.138 5.60012V3.62136C139.138 3.35316 138.918 3.13574 138.647 3.13574Z" fill="#D1DBED"/>
<path d="M56.087 124.34C56.087 124.34 58.0851 110.78 54.868 100.41C51.651 90.0401 49.5167 83.4243 49.351 81.1672C49.351 81.1672 45.6337 90.7701 43.4556 96.2184C38.6596 108.239 37.541 117.572 42.6589 127.379C42.6589 127.379 42.7218 132.753 42.7688 132.989C42.8158 133.226 48.399 138.429 48.399 138.429L56.714 133.29L56.087 124.34Z" fill="#40947E"/>
<path d="M50.6472 140.116C50.6472 140.116 52.0223 111.364 49.7828 94.5494C49.7828 94.5494 50.0776 124.758 46.1436 138.725L50.6472 140.116Z" fill="#2E6857"/>
<path d="M52.956 138.954L52.9871 146.236L53.0189 154.32L50.2489 154.771C50.2489 154.771 49.1335 153.657 47.4701 152.178C44.8992 149.906 41.0169 146.772 37.8676 145.556C32.6892 143.552 24.5718 135.768 18.3888 121.811C18.1697 121.321 17.9458 120.852 17.7132 120.406C11.3564 108.091 -0.132507 111.248 -0.132507 111.248C9.21497 108.236 17.1651 108.355 23.8476 110.256C44.4689 116.124 52.956 138.954 52.956 138.954Z" fill="#6FC183"/>
<path d="M52.9871 146.236L53.019 154.32L50.2489 154.771C50.2489 154.771 49.1335 153.657 47.4701 152.178C28.7592 116.072 16.9524 111.579 16.5827 111.442C34.4674 115.566 48.3042 137.788 52.9871 146.236Z" fill="#40947E"/>
<path d="M43.8062 144.584L45.4641 150.565L47.3076 157.203L49.6849 156.946C49.6849 156.946 50.3389 155.78 51.3643 154.187C52.9473 151.743 55.4106 148.29 57.7099 146.58C61.4973 143.761 66.3531 135.543 68.1982 122.693C68.264 122.24 68.3405 121.805 68.4276 121.386C70.7946 109.844 80.9499 109.833 80.9499 109.833C72.5847 109.478 66.0918 111.376 61.0511 114.449C45.4911 123.934 43.8062 144.584 43.8062 144.584Z" fill="#6FC183"/>
<path d="M45.4641 150.565L47.3076 157.203L49.6849 156.946C49.6849 156.946 50.3389 155.78 51.3643 154.187C58.3647 120.333 67.0095 113.97 67.282 113.776C53.5639 121.212 47.353 142.575 45.4641 150.565Z" fill="#40947E"/>
<path d="M13.6238 129.846C13.6238 129.846 39.3829 133.426 48.4643 151.999C48.4651 152.001 40.5819 136.184 13.6238 129.846ZM16.468 126.392C16.8663 128.723 17.9267 129.317 18.4214 129.466C18.4567 129.477 18.4938 129.48 18.5304 129.476C18.567 129.471 18.6022 129.459 18.6337 129.44C18.6651 129.421 18.6922 129.395 18.713 129.365C18.7338 129.335 18.748 129.301 18.7544 129.265C18.8445 128.761 18.7959 127.555 16.883 126.139C16.841 126.107 16.7904 126.089 16.7377 126.086C16.685 126.084 16.6327 126.097 16.5878 126.124C16.5429 126.152 16.5074 126.192 16.486 126.24C16.4646 126.287 16.4583 126.34 16.468 126.392ZM19.4396 127.129C19.6515 129.484 20.6625 130.158 21.1429 130.348C21.1773 130.361 21.2142 130.367 21.2511 130.365C21.288 130.364 21.3242 130.354 21.3572 130.338C21.3902 130.321 21.4192 130.298 21.4424 130.269C21.4656 130.241 21.4825 130.208 21.4918 130.173C21.6217 129.677 21.6679 128.471 19.8738 126.911C19.8345 126.877 19.7857 126.855 19.7337 126.849C19.6817 126.842 19.629 126.851 19.5823 126.875C19.5355 126.898 19.497 126.935 19.4715 126.98C19.4461 127.025 19.435 127.077 19.4396 127.129Z" fill="#2E6857"/>
<path d="M22.8183 128.355C22.6518 130.46 23.4406 131.204 23.8357 131.441C23.8639 131.458 23.8955 131.469 23.9283 131.473C23.961 131.477 23.9943 131.474 24.0258 131.464C24.0573 131.454 24.0863 131.438 24.1109 131.416C24.1356 131.394 24.1553 131.368 24.1687 131.338C24.3575 130.921 24.5798 129.865 23.2326 128.228C23.2032 128.192 23.1636 128.165 23.1188 128.152C23.0741 128.138 23.0263 128.139 22.9817 128.152C22.937 128.166 22.8976 128.193 22.8685 128.229C22.8393 128.265 22.8219 128.309 22.8183 128.355ZM25.9206 129.339C25.3374 131.37 25.962 132.256 26.3022 132.563C26.3265 132.585 26.3552 132.602 26.3864 132.612C26.4177 132.622 26.4508 132.626 26.4836 132.622C26.5163 132.619 26.548 132.609 26.5765 132.592C26.605 132.576 26.6296 132.554 26.6488 132.527C26.9173 132.154 27.3459 131.164 26.3524 129.295C26.3308 129.254 26.2972 129.22 26.256 129.198C26.2148 129.176 26.1679 129.167 26.1214 129.172C26.0748 129.177 26.0308 129.195 25.995 129.225C25.9592 129.255 25.9333 129.295 25.9206 129.339ZM28.9114 130.567C28.0717 132.372 28.5242 133.282 28.7951 133.618C28.8144 133.642 28.8387 133.662 28.8662 133.676C28.8938 133.69 28.9241 133.698 28.955 133.7C28.9859 133.701 29.0169 133.696 29.0457 133.685C29.0746 133.674 29.1008 133.657 29.1225 133.635C29.426 133.327 29.9694 132.467 29.3193 130.587C29.3051 130.546 29.2787 130.51 29.2436 130.484C29.2085 130.458 29.1662 130.442 29.1223 130.44C29.0784 130.438 29.0348 130.449 28.9972 130.471C28.9596 130.494 28.9297 130.527 28.9114 130.567ZM32.5562 131.421C30.9023 132.548 30.8194 133.558 30.8784 133.985C30.8826 134.015 30.8934 134.045 30.9099 134.071C30.9264 134.097 30.9483 134.119 30.9741 134.136C30.9999 134.153 31.0291 134.164 31.0597 134.169C31.0903 134.174 31.1217 134.173 31.1516 134.165C31.5715 134.054 32.4829 133.59 32.8964 131.646C32.9052 131.603 32.9011 131.559 32.8844 131.519C32.8677 131.479 32.8393 131.444 32.8027 131.42C32.7662 131.396 32.7232 131.383 32.6793 131.384C32.6354 131.384 32.5925 131.397 32.5562 131.421ZM13.4733 133.047C15.226 131.439 16.4361 131.608 16.9213 131.785C16.956 131.798 16.9875 131.818 17.0138 131.844C17.0401 131.87 17.0605 131.901 17.0738 131.935C17.0871 131.969 17.0928 132.005 17.0907 132.042C17.0886 132.078 17.0786 132.114 17.0615 132.147C16.8225 132.601 16.0394 133.528 13.6477 133.495C13.5956 133.494 13.5449 133.478 13.5022 133.449C13.4594 133.419 13.4266 133.377 13.4079 133.329C13.3891 133.281 13.3854 133.228 13.397 133.178C13.4086 133.128 13.4352 133.082 13.4733 133.047ZM16.2855 134.259C17.9076 132.519 19.1257 132.595 19.6244 132.735C19.6599 132.746 19.6928 132.763 19.721 132.787C19.7492 132.81 19.7719 132.84 19.7878 132.873C19.8037 132.906 19.8123 132.942 19.8132 132.978C19.814 133.015 19.8069 133.051 19.7925 133.085C19.5894 133.558 18.8827 134.541 16.4959 134.695C16.4436 134.698 16.3915 134.685 16.3464 134.659C16.3012 134.633 16.265 134.594 16.2424 134.547C16.2198 134.5 16.2119 134.448 16.2195 134.397C16.2272 134.345 16.2502 134.298 16.2855 134.259ZM19.7224 135.328C20.8904 133.557 21.9747 133.445 22.4312 133.495C22.464 133.499 22.4957 133.509 22.5242 133.526C22.5527 133.543 22.5772 133.565 22.5962 133.592C22.6152 133.619 22.6282 133.649 22.6344 133.681C22.6405 133.714 22.6397 133.747 22.6319 133.778C22.5236 134.224 22.0487 135.197 19.9694 135.68C19.924 135.69 19.8767 135.686 19.8335 135.669C19.7902 135.653 19.753 135.623 19.7265 135.586C19.7 135.548 19.6855 135.503 19.6848 135.457C19.6841 135.411 19.6972 135.366 19.7224 135.328ZM22.7905 136.423C23.5816 134.459 24.6228 134.136 25.0833 134.095C25.116 134.093 25.149 134.097 25.18 134.108C25.211 134.118 25.2393 134.135 25.2632 134.158C25.2871 134.18 25.306 134.207 25.3187 134.237C25.3313 134.267 25.3374 134.299 25.3367 134.332C25.3191 134.79 25.0475 135.834 23.1059 136.717C23.0636 136.737 23.0164 136.743 22.9704 136.735C22.9245 136.728 22.8818 136.707 22.848 136.675C22.8141 136.643 22.7905 136.602 22.7803 136.557C22.77 136.512 22.7736 136.466 22.7905 136.423ZM25.8131 138.163C25.9668 136.054 26.8599 135.436 27.2869 135.26C27.3174 135.247 27.3502 135.241 27.3831 135.242C27.4161 135.243 27.4485 135.251 27.4782 135.265C27.5079 135.279 27.5342 135.3 27.5553 135.325C27.5765 135.35 27.592 135.379 27.6008 135.41C27.7243 135.852 27.7849 136.929 26.2042 138.352C26.1696 138.383 26.1263 138.403 26.0799 138.41C26.0336 138.416 25.9863 138.409 25.9442 138.389C25.902 138.368 25.867 138.336 25.8437 138.296C25.8203 138.256 25.8096 138.209 25.8131 138.163ZM28.7879 139.35C28.7393 137.237 29.5694 136.538 29.9773 136.322C30.0065 136.306 30.0387 136.298 30.0716 136.295C30.1046 136.293 30.1376 136.298 30.1685 136.31C30.1995 136.321 30.2276 136.339 30.251 136.362C30.2745 136.385 30.2928 136.413 30.3048 136.443C30.4705 136.87 30.633 137.937 29.1958 139.501C29.1643 139.535 29.1231 139.56 29.0776 139.571C29.032 139.582 28.9841 139.579 28.9402 139.563C28.8962 139.547 28.8582 139.518 28.8311 139.48C28.8039 139.442 28.7889 139.397 28.7879 139.35ZM75.8296 110.711C75.8296 110.711 50.8998 128.835 51.9777 153.352C51.9777 153.352 51.2169 132.392 75.8296 110.711ZM70.8838 108.681C71.796 111.344 71.024 112.558 70.593 112.993C70.5621 113.024 70.5249 113.048 70.4839 113.064C70.4428 113.079 70.3989 113.086 70.355 113.084C70.3111 113.081 70.2682 113.07 70.2292 113.05C70.1901 113.03 70.1558 113.002 70.1285 112.968C69.7469 112.49 69.1111 111.201 70.3062 108.65C70.3324 108.594 70.3749 108.547 70.4282 108.515C70.4816 108.484 70.5433 108.468 70.6055 108.472C70.6677 108.475 70.7274 108.497 70.777 108.534C70.8266 108.571 70.8638 108.622 70.8838 108.681ZM68.1918 111.111C69.3119 113.695 68.6387 114.966 68.2428 115.433C68.2145 115.466 68.1794 115.493 68.1398 115.512C68.1002 115.531 68.057 115.541 68.013 115.542C67.9691 115.543 67.9255 115.535 67.885 115.518C67.8445 115.501 67.8082 115.476 67.7783 115.444C67.36 114.998 66.6239 113.761 67.6134 111.125C67.6351 111.067 67.6737 111.017 67.7244 110.982C67.7751 110.946 67.8355 110.926 67.8977 110.924C67.96 110.923 68.0213 110.94 68.0737 110.973C68.1261 111.006 68.1672 111.054 68.1918 111.111Z" fill="#2E6857"/>
<path d="M65.3548 114.281C66.7283 116.392 66.326 117.61 66.0471 118.079C66.0273 118.113 66.0005 118.142 65.9686 118.164C65.9366 118.187 65.9001 118.202 65.8616 118.21C65.8231 118.217 65.7834 118.216 65.7452 118.207C65.707 118.199 65.6712 118.182 65.64 118.158C65.2043 117.826 64.3709 116.845 64.8434 114.379C64.8531 114.324 64.8796 114.273 64.9192 114.233C64.9588 114.193 65.0097 114.166 65.0651 114.156C65.1205 114.145 65.1779 114.151 65.2296 114.174C65.2814 114.196 65.325 114.234 65.3548 114.281ZM62.6668 117.043C64.4355 118.843 64.2841 120.117 64.1048 120.63C64.0921 120.667 64.0716 120.701 64.0447 120.729C64.0178 120.758 63.9851 120.78 63.9488 120.795C63.9125 120.81 63.8734 120.817 63.8341 120.816C63.7948 120.815 63.7562 120.805 63.7208 120.788C63.2277 120.552 62.2143 119.75 62.1888 117.24C62.1874 117.185 62.203 117.131 62.2334 117.084C62.2639 117.038 62.3078 117.001 62.3595 116.98C62.4111 116.958 62.4681 116.953 62.5229 116.964C62.5778 116.975 62.6279 117.003 62.6668 117.043ZM60.2353 119.997C62.1426 121.416 62.188 122.623 62.0964 123.127C62.0897 123.163 62.0754 123.197 62.0545 123.227C62.0335 123.257 62.0064 123.282 61.9749 123.301C61.9434 123.32 61.9081 123.332 61.8715 123.337C61.835 123.341 61.7978 123.338 61.7626 123.327C61.2686 123.174 60.2106 122.577 59.8195 120.246C59.8109 120.195 59.818 120.143 59.8398 120.096C59.8617 120.049 59.8973 120.009 59.942 119.982C59.9867 119.955 60.0386 119.942 60.0909 119.945C60.1432 119.947 60.1935 119.965 60.2353 119.997ZM56.906 122.926C59.2793 123.181 59.9414 124.194 60.123 124.673C60.136 124.707 60.1415 124.744 60.1391 124.78C60.1367 124.817 60.1265 124.852 60.1092 124.885C60.0919 124.917 60.0678 124.945 60.0386 124.967C60.0094 124.99 59.9757 125.006 59.9398 125.014C59.4371 125.133 58.2189 125.155 56.6774 123.351C56.6437 123.311 56.6227 123.263 56.6172 123.211C56.6117 123.16 56.6219 123.108 56.6465 123.062C56.6711 123.016 56.709 122.979 56.7552 122.955C56.8015 122.93 56.854 122.92 56.906 122.926ZM77.8133 113.978C75.0592 113.269 73.8905 114.125 73.4842 114.583C73.4551 114.616 73.4334 114.654 73.4206 114.696C73.4077 114.737 73.4039 114.781 73.4095 114.824C73.4151 114.868 73.4299 114.909 73.4529 114.946C73.4759 114.983 73.5067 115.015 73.5431 115.039C74.053 115.382 75.401 115.915 77.8866 114.547C77.9413 114.517 77.9855 114.471 78.0138 114.416C78.042 114.361 78.0529 114.299 78.045 114.238C78.0371 114.177 78.0108 114.119 77.9695 114.073C77.9282 114.027 77.8738 113.994 77.8133 113.978ZM75.5587 116.817C72.8691 115.9 71.6367 116.659 71.1945 117.084C71.1631 117.115 71.1386 117.151 71.1226 117.192C71.1065 117.232 71.0994 117.276 71.1016 117.319C71.1038 117.363 71.1152 117.405 71.1352 117.444C71.1552 117.483 71.1833 117.517 71.2176 117.544C71.6956 117.925 73.0006 118.561 75.5874 117.386C75.6429 117.36 75.6893 117.318 75.7207 117.266C75.7522 117.213 75.7673 117.153 75.7643 117.092C75.7612 117.031 75.7401 116.973 75.7035 116.924C75.6669 116.875 75.6166 116.838 75.5587 116.817ZM72.5696 119.853C70.3389 118.652 69.1383 119.139 68.6858 119.449C68.6534 119.471 68.6262 119.499 68.6059 119.532C68.5856 119.566 68.5727 119.603 68.568 119.641C68.5634 119.68 68.567 119.719 68.5788 119.756C68.5906 119.793 68.6102 119.827 68.6364 119.856C69.0036 120.262 70.0545 121.013 72.5082 120.362C72.562 120.347 72.6102 120.317 72.6466 120.276C72.683 120.234 72.706 120.182 72.7126 120.128C72.7192 120.073 72.7091 120.018 72.6836 119.969C72.6581 119.92 72.6184 119.879 72.5696 119.853ZM69.9804 122.712C68.0333 121.097 66.7602 121.34 66.2543 121.555C66.2183 121.571 66.186 121.593 66.1596 121.622C66.1332 121.651 66.1132 121.685 66.101 121.721C66.0888 121.758 66.0847 121.797 66.0889 121.836C66.093 121.875 66.1054 121.912 66.1252 121.945C66.4041 122.418 67.2836 123.357 69.8194 123.198C69.8749 123.194 69.928 123.174 69.9719 123.141C70.0158 123.107 70.0485 123.061 70.0658 123.009C70.0831 122.956 70.0842 122.9 70.069 122.847C70.0538 122.794 70.0229 122.747 69.9804 122.712ZM67.8078 126.222C66.4455 124.1 65.1572 123.95 64.6099 124.004C64.5712 124.008 64.5339 124.021 64.5004 124.04C64.4669 124.06 64.438 124.086 64.4154 124.118C64.3929 124.149 64.3773 124.185 64.3696 124.223C64.362 124.261 64.3624 124.3 64.3709 124.337C64.4928 124.868 65.0433 126.03 67.5091 126.637C67.5628 126.649 67.619 126.646 67.6707 126.626C67.7223 126.607 67.767 126.573 67.7991 126.529C67.8311 126.484 67.8491 126.431 67.8506 126.377C67.8522 126.322 67.8373 126.268 67.8078 126.222ZM65.37 129.125C64.2164 126.885 62.9488 126.615 62.3983 126.618C62.3591 126.618 62.3204 126.627 62.2847 126.643C62.2491 126.659 62.2173 126.682 62.1914 126.712C62.1656 126.741 62.1464 126.775 62.1349 126.812C62.1235 126.849 62.1201 126.888 62.1251 126.927C62.196 127.467 62.6334 128.675 65.0298 129.51C65.0823 129.528 65.1391 129.53 65.1928 129.516C65.2465 129.502 65.2948 129.473 65.3313 129.431C65.3679 129.39 65.3911 129.338 65.398 129.284C65.4049 129.229 65.3951 129.174 65.37 129.125Z" fill="#2E6857"/>
<path d="M12.2065 164.944C16.5787 160.173 31.2472 145.975 46.3531 151.726C46.9172 151.939 47.4815 152.181 48.0461 152.453C48.244 152.551 48.4584 152.613 48.6786 152.635C49.0132 152.662 49.4474 152.607 49.6761 152.194C49.7607 152.031 49.7996 151.847 49.7885 151.664C49.7774 151.48 49.7169 151.303 49.6131 151.15C48.3957 149.328 46.9955 147.631 45.4337 146.087C41.1978 141.894 34.1718 137.331 25.5557 140.81C14.015 145.47 11.5524 159.23 11.033 164.429C11.0192 164.569 11.0502 164.709 11.1218 164.831C11.1934 164.952 11.3018 165.048 11.4317 165.106C11.5616 165.163 11.7064 165.178 11.8455 165.149C11.9845 165.12 12.1109 165.048 12.2065 164.944Z" fill="#40947E"/>
<path d="M17.22 153.042C18.0789 151.86 30.3031 136.653 46.3531 151.726C46.9172 151.939 47.4815 152.181 48.0461 152.453C48.244 152.551 48.4583 152.613 48.6786 152.635C49.0132 152.662 49.4474 152.606 49.6761 152.194C49.7607 152.03 49.7995 151.847 49.7885 151.664C49.7774 151.48 49.7169 151.303 49.6131 151.15C49.6131 151.15 32.3251 132.213 17.22 153.042Z" fill="#2E6857"/>
<path d="M17.1746 153.105C17.1903 153.083 17.2028 153.063 17.2193 153.042C17.1958 153.076 17.1825 153.094 17.1746 153.105Z" fill="#585858"/>
<path d="M99.8735 149.046C91.9361 146.327 66.4399 139.253 52.9433 155.026C52.4393 155.612 51.9525 156.233 51.483 156.886C51.3205 157.119 51.1164 157.321 50.8807 157.481C50.5198 157.717 49.9932 157.92 49.4761 157.594C49.0666 157.335 48.8587 156.852 48.893 156.373C49.1298 153.564 49.6524 150.785 50.4529 148.079C52.6206 140.735 57.7162 131.262 69.6481 129.916C85.6288 128.112 97.0317 142.179 100.878 147.741C101.351 148.425 100.67 149.319 99.8735 149.046Z" fill="#2E6857"/>
<path d="M86.7441 138.65C85.0098 137.881 61.671 128.122 52.9433 155.026C52.4393 155.612 51.9525 156.233 51.483 156.886C51.3205 157.119 51.1164 157.321 50.8807 157.481C50.5198 157.717 49.9932 157.92 49.4761 157.594C49.0666 157.335 48.8587 156.852 48.893 156.373C49.1298 153.564 49.6524 150.785 50.4529 148.079C54.9828 139.335 65.2688 128.344 86.7441 138.65Z" fill="#40947E"/>
<path d="M26.5134 88.953C26.5134 88.953 59.7111 128.453 47.933 167.954C47.933 167.954 57.7401 134.119 26.5134 88.953ZM35.398 87.6262C32.8247 91.5987 33.5855 93.8856 34.1105 94.7662C34.1481 94.829 34.1987 94.8831 34.259 94.9251C34.3193 94.967 34.3879 94.9958 34.4603 95.0095C34.5327 95.0232 34.6072 95.0215 34.6789 95.0046C34.7506 94.9877 34.8178 94.9559 34.8761 94.9113C35.6935 94.2861 37.2558 92.4406 36.3516 87.8075C36.3319 87.7058 36.2819 87.6124 36.208 87.5392C36.134 87.466 36.0396 87.4164 35.9369 87.3969C35.8342 87.3773 35.7279 87.3888 35.6319 87.4296C35.5358 87.4705 35.4543 87.539 35.398 87.6262ZM38.7902 92.6629C35.9094 96.4233 36.487 98.7624 36.9411 99.6792C36.9735 99.7447 37.0196 99.8027 37.0763 99.8492C37.1331 99.8957 37.1992 99.9298 37.2702 99.9491C37.3413 99.9684 37.4157 99.9725 37.4885 99.9612C37.5612 99.9499 37.6308 99.9234 37.6924 99.8834C38.5568 99.3237 40.2609 97.6043 39.7263 92.916C39.7145 92.8133 39.6718 92.7165 39.6038 92.6381C39.5358 92.5597 39.4456 92.5032 39.3448 92.476C39.2441 92.4487 39.1374 92.452 39.0386 92.4853C38.9397 92.5186 38.8532 92.5805 38.7902 92.6629Z" fill="#2E6857"/>
<path d="M42.1156 98.961C39.0149 101.85 39.1726 103.995 39.4348 104.874C39.4537 104.936 39.4858 104.994 39.5289 105.043C39.572 105.092 39.6252 105.132 39.6848 105.159C39.7445 105.186 39.8094 105.201 39.8752 105.202C39.941 105.203 40.0062 105.19 40.0665 105.164C40.9118 104.797 42.6701 103.533 42.9027 99.3252C42.9082 99.2328 42.8855 99.1408 42.8376 99.0613C42.7897 98.9817 42.7187 98.9183 42.6339 98.879C42.5492 98.8398 42.4545 98.8267 42.362 98.8413C42.2696 98.8559 42.1838 98.8976 42.1156 98.961ZM45.3653 104.535C41.7483 106.76 41.4743 108.894 41.5563 109.803C41.5622 109.868 41.5819 109.93 41.614 109.987C41.6461 110.043 41.6899 110.093 41.7426 110.131C41.7953 110.17 41.8556 110.197 41.9196 110.211C41.9836 110.225 42.0499 110.225 42.114 110.212C43.0158 110.018 44.9924 109.123 46.0608 105.043C46.0833 104.954 46.0786 104.861 46.0473 104.774C46.016 104.688 45.9595 104.613 45.885 104.559C45.8105 104.504 45.7213 104.473 45.6288 104.468C45.5363 104.464 45.4445 104.487 45.3653 104.535ZM48.1202 110.32C44.4323 111.872 43.8659 113.817 43.8093 114.674C43.8053 114.735 43.8144 114.796 43.8361 114.853C43.8578 114.911 43.8916 114.963 43.9352 115.006C43.9788 115.05 44.0313 115.084 44.0891 115.105C44.1469 115.127 44.2088 115.137 44.2706 115.133C45.1374 115.082 47.106 114.533 48.6954 110.893C48.7304 110.813 48.7403 110.725 48.724 110.639C48.7077 110.554 48.6659 110.475 48.604 110.413C48.542 110.352 48.4628 110.31 48.3765 110.293C48.2903 110.277 48.201 110.286 48.1202 110.32ZM52.3426 116.424C48.3719 115.89 46.8798 117.274 46.3874 117.982C46.3521 118.033 46.328 118.09 46.3169 118.151C46.3058 118.211 46.3078 118.274 46.3229 118.333C46.338 118.393 46.3658 118.449 46.4044 118.497C46.4429 118.545 46.4915 118.585 46.5467 118.613C47.3179 119.007 49.2929 119.533 52.541 117.21C52.613 117.159 52.6678 117.088 52.6984 117.006C52.729 116.924 52.7339 116.835 52.7125 116.75C52.6911 116.665 52.6444 116.588 52.5784 116.53C52.5124 116.472 52.4302 116.435 52.3426 116.424ZM21.9468 93.4773C26.7205 93.4315 28.2764 95.2905 28.7512 96.1963C28.785 96.2612 28.8045 96.3325 28.8084 96.4054C28.8122 96.4783 28.8004 96.5511 28.7737 96.6192C28.7469 96.6872 28.7059 96.7489 28.6533 96.8001C28.6006 96.8512 28.5376 96.8908 28.4684 96.916C27.4973 97.2692 25.0841 97.598 21.5947 94.3744C21.5184 94.3036 21.4652 94.2119 21.442 94.111C21.4188 94.0101 21.4267 93.9046 21.4645 93.8082C21.5024 93.7117 21.5685 93.6286 21.6545 93.5697C21.7404 93.5107 21.8422 93.4785 21.9468 93.4773ZM24.4587 99.0075C29.2141 98.5913 30.9118 100.32 31.4568 101.19C31.4956 101.252 31.5207 101.321 31.5303 101.394C31.54 101.466 31.534 101.54 31.5127 101.609C31.4915 101.679 31.4555 101.744 31.4071 101.799C31.3587 101.854 31.2991 101.899 31.2321 101.929C30.292 102.356 27.9123 102.875 24.1783 99.9283C24.0965 99.8638 24.0362 99.7765 24.0051 99.6777C23.9739 99.5789 23.9734 99.4731 24.0036 99.374C24.0338 99.2749 24.0933 99.1871 24.1744 99.1217C24.2555 99.0564 24.3545 99.0166 24.4587 99.0075ZM28.0868 105.15C32.2128 104.085 33.9671 105.358 34.5782 106.044C34.6217 106.093 34.6541 106.151 34.6734 106.213C34.6927 106.276 34.6984 106.341 34.6902 106.406C34.6819 106.471 34.6598 106.533 34.6254 106.589C34.591 106.644 34.545 106.692 34.4905 106.729C33.7265 107.243 31.7077 108.047 27.9777 106.002C27.896 105.957 27.8299 105.889 27.7877 105.806C27.7455 105.724 27.7292 105.631 27.741 105.539C27.7527 105.447 27.7919 105.361 27.8536 105.292C27.9152 105.222 27.9964 105.173 28.0868 105.15ZM31.1341 110.842C34.9662 108.991 36.9403 109.896 37.6765 110.448C37.7289 110.487 37.7723 110.537 37.8037 110.595C37.8352 110.652 37.8539 110.715 37.8587 110.78C37.8636 110.845 37.8543 110.911 37.8317 110.972C37.8091 111.033 37.7735 111.089 37.7275 111.135C37.0814 111.789 35.2633 112.972 31.1947 111.698C31.1062 111.669 31.0284 111.615 30.9712 111.542C30.914 111.47 30.88 111.382 30.8735 111.29C30.867 111.198 30.8883 111.107 30.9347 111.027C30.9812 110.947 31.0506 110.883 31.1341 110.842ZM33.239 117.429C36.3253 114.517 38.4843 114.789 39.3543 115.096C39.4163 115.118 39.4729 115.153 39.5203 115.198C39.5678 115.243 39.605 115.298 39.6295 115.358C39.6541 115.419 39.6654 115.484 39.6627 115.549C39.66 115.614 39.6434 115.678 39.614 115.736C39.1981 116.553 37.8263 118.224 33.5592 118.227C33.466 118.226 33.375 118.198 33.2979 118.146C33.2209 118.094 33.1613 118.021 33.1269 117.935C33.0925 117.849 33.0848 117.755 33.1047 117.665C33.1247 117.575 33.1714 117.493 33.239 117.429ZM36.0226 123.133C38.8165 119.946 40.9915 120.015 41.8877 120.239C41.9516 120.255 42.0113 120.284 42.0628 120.325C42.1143 120.365 42.1566 120.416 42.1867 120.474C42.2168 120.532 42.2342 120.596 42.2376 120.661C42.241 120.726 42.2303 120.791 42.2064 120.852C41.871 121.703 40.6648 123.495 36.4201 123.896C36.3271 123.905 36.2335 123.887 36.1514 123.842C36.0693 123.798 36.0025 123.731 35.9597 123.648C35.9169 123.566 35.9 123.473 35.9112 123.381C35.9224 123.289 35.9612 123.203 36.0226 123.133Z" fill="#2E6857"/>
<path d="M60.7532 151.775V182.604C60.7533 182.845 60.7055 183.083 60.6125 183.305C60.5196 183.527 60.3833 183.729 60.2114 183.899C60.0395 184.07 59.8355 184.204 59.6109 184.297C59.3863 184.389 59.1456 184.436 58.9025 184.436H38.8787C38.6355 184.436 38.3947 184.389 38.17 184.297C37.9453 184.205 37.7412 184.07 37.5693 183.9C37.3973 183.73 37.2609 183.528 37.1679 183.305C37.0749 183.083 37.0271 182.845 37.0272 182.604V151.775C37.0272 151.534 37.0751 151.296 37.1681 151.074C37.2612 150.852 37.3976 150.65 37.5695 150.48C37.7415 150.31 37.9456 150.175 38.1702 150.083C38.3948 149.991 38.6356 149.943 38.8787 149.943H58.9033C59.394 149.944 59.8645 150.137 60.2114 150.48C60.5583 150.824 60.7532 151.289 60.7532 151.775Z" fill="#F3CE90"/>
<path opacity="0.28" d="M60.7532 151.775V182.604C60.7533 182.845 60.7055 183.083 60.6125 183.305C60.5196 183.527 60.3833 183.729 60.2114 183.899C60.0395 184.07 59.8355 184.204 59.6109 184.297C59.3863 184.389 59.1456 184.436 58.9025 184.436H38.8787C38.6355 184.436 38.3947 184.389 38.17 184.297C37.9453 184.205 37.7412 184.07 37.5693 183.9C37.3973 183.73 37.2609 183.528 37.1679 183.305C37.0749 183.083 37.0271 182.845 37.0272 182.604V181.472C54.4355 176.655 56.5411 156.988 56.7291 149.943H58.9033C59.394 149.944 59.8645 150.137 60.2114 150.48C60.5583 150.824 60.7532 151.289 60.7532 151.775Z" fill="#F19A6D"/>
<path d="M219.83 141.598C219.83 141.598 210.197 168.119 205.22 176.891C200.243 185.663 183.106 182.482 183.106 182.482L188.66 160.842L196.999 146.515L193.808 137.496C192.665 137.327 191.538 137.062 190.44 136.704L148.064 123.562L160.76 85.4487L203.136 98.5905C206.956 99.8394 210.315 102.183 212.786 105.325C215.258 108.466 216.73 112.263 217.017 116.234L219.83 141.598Z" fill="#FF9364"/>
<path d="M169.241 109.623C165.793 119.974 158.236 126.792 152.352 124.872L152.202 124.824C150.096 124.137 147.906 123.494 145.702 122.892C145.673 122.906 145.68 122.885 145.68 122.885C130.09 118.719 114.58 123.923 100.23 126.901C100.23 126.901 82.3249 77.8657 121.108 55.1613C121.108 55.1613 135.318 74.2921 157.98 84.606C159.778 85.4283 161.654 86.2285 163.63 87.0144C163.63 87.0144 164.453 87.1887 164.833 87.4086C170.872 90.7181 172.689 99.2733 169.241 109.623Z" fill="#FFCA7D"/>
<path opacity="0.26" d="M169.241 109.623C165.793 119.974 158.236 126.792 152.352 124.872C164.655 116.773 165.417 105.533 164.425 98.6299C164.176 96.8805 163.455 95.2298 162.338 93.8514C161.221 92.473 159.75 91.4179 158.078 90.7969C124.763 78.4388 121.107 55.1636 121.107 55.1636C121.107 55.1636 135.317 74.2889 157.983 84.6028C159.78 85.4251 161.656 86.2253 163.633 87.0112C163.633 87.0112 164.456 87.1855 164.836 87.4054C170.872 90.7181 172.689 99.2732 169.241 109.623Z" fill="#F19A6D"/>
<path d="M120.08 96.1362C128.365 71.2591 123.444 47.2972 109.088 42.6156C94.7327 37.9341 76.3788 54.3059 68.0937 79.183C59.8086 104.06 64.7297 128.022 79.0854 132.704C93.4411 137.385 111.795 121.013 120.08 96.1362Z" fill="#FF9364"/>
<path d="M78.3144 124.229C81.8405 125.381 86.0542 123.533 90.2702 119.487C92.2094 117.628 94.1501 115.309 96.0167 112.603C99.8918 107.022 103.482 99.7983 106.204 91.6168C109.031 83.1334 110.49 74.9354 110.649 68.0129C110.721 65.0676 110.558 62.3581 110.162 59.952C110.112 59.6509 110.057 59.3529 110.002 59.058C108.967 53.7454 106.741 50.0851 103.376 48.99C94.8934 46.2229 82.4094 60.82 75.4926 81.5993C75.189 82.5145 74.8975 83.4282 74.6234 84.3333V84.3561C68.6881 104.041 70.205 121.584 78.3144 124.229Z" fill="#93493A"/>
<path d="M74.6146 84.3325C90.8709 48.2324 109.995 59.0494 109.995 59.0494C108.96 53.7367 106.734 50.0764 103.369 48.9814C94.8862 46.2143 82.4022 60.8113 75.4854 81.5906C75.1803 82.5145 74.8887 83.4282 74.6146 84.3325Z" fill="#6D2D23"/>
<path d="M152.2 124.824C150.096 124.138 147.905 123.494 145.7 122.892C147.218 125.343 149.312 127.133 151.89 127.974C160.008 130.622 169.865 122.904 173.915 110.748C177.957 98.6118 174.67 86.6068 166.551 83.9588C163.802 83.0624 160.849 83.3478 157.979 84.6028C159.777 85.4251 161.653 86.2253 163.63 87.0112C163.63 87.0112 164.453 87.1855 164.833 87.4054C170.872 90.7165 172.689 99.2748 169.241 109.625C165.794 119.975 158.236 126.794 152.352 124.875L152.2 124.824Z" fill="#F19A6D"/>
<path d="M89.7357 86.1851C86.9473 94.6827 87.1425 102.361 90.1739 103.336C93.2052 104.31 97.9224 98.2113 100.712 89.7121C103.501 81.213 103.304 73.536 100.273 72.5624C97.2412 71.5888 92.5241 77.6875 89.7357 86.1851Z" fill="#EF7C59"/>
<path d="M90.1754 103.338L96.0143 112.603C99.8878 107.023 103.475 99.7998 106.201 91.6168C109.027 83.1326 110.487 74.9338 110.646 68.0121L100.273 72.5632C103.301 73.536 103.5 81.2153 100.71 89.7161C97.92 98.2168 93.206 104.311 90.1754 103.338Z" fill="#F3CE90"/>
<path d="M178.696 99.0374C178.992 103.082 178.891 113.707 171.008 121.983C170.878 122.121 170.785 122.29 170.738 122.473C170.691 122.657 170.691 122.849 170.74 123.032C170.788 123.215 170.882 123.383 171.013 123.52C171.145 123.658 171.309 123.76 171.491 123.818L193.856 130.924C195.082 131.315 196.385 131.407 197.655 131.191C198.924 130.976 200.122 130.461 201.147 129.688C205.147 126.664 210.673 120.66 209.005 111.302C208.75 109.876 208.103 108.547 207.136 107.459C206.169 106.372 204.919 105.569 203.523 105.136L180.167 97.8833C179.99 97.8281 179.803 97.8166 179.621 97.8499C179.438 97.8831 179.267 97.9601 179.122 98.074C178.977 98.1879 178.862 98.3353 178.788 98.5033C178.714 98.6712 178.682 98.8547 178.696 99.0374Z" fill="#6D2D23"/>
<path d="M181 98.2325C181 98.2325 183.64 113.597 172.201 124.112L196.341 131.785C197.566 132.176 198.87 132.268 200.139 132.053C201.408 131.838 202.607 131.322 203.631 130.549C207.631 127.526 213.157 121.522 211.489 112.163C211.234 110.737 210.587 109.408 209.62 108.321C208.653 107.234 207.403 106.43 206.007 105.998L181 98.2325Z" fill="#93493A"/>
<path d="M193.267 104.549C193.118 104.502 192.959 104.491 192.805 104.519C192.65 104.547 192.505 104.612 192.382 104.708C192.259 104.804 192.162 104.929 192.1 105.071C192.037 105.213 192.01 105.369 192.022 105.523C192.272 108.946 192.187 117.934 185.518 124.936C185.406 125.052 185.327 125.195 185.286 125.35C185.246 125.506 185.246 125.669 185.287 125.824C185.328 125.979 185.408 126.121 185.52 126.237C185.632 126.354 185.772 126.44 185.926 126.488C186.125 126.551 186.338 126.558 186.541 126.51C186.744 126.461 186.929 126.359 187.077 126.213C194.769 118.665 194.363 108.493 194.071 105.624C194.047 105.39 193.959 105.167 193.818 104.977C193.677 104.788 193.486 104.64 193.267 104.549ZM200.582 107.172C200.433 107.124 200.274 107.114 200.12 107.142C199.966 107.17 199.821 107.235 199.698 107.331C199.575 107.427 199.478 107.551 199.415 107.694C199.352 107.836 199.326 107.991 199.338 108.145C199.588 111.568 199.502 120.556 192.833 127.558C192.722 127.675 192.643 127.818 192.602 127.973C192.562 128.128 192.562 128.291 192.603 128.446C192.644 128.601 192.724 128.744 192.835 128.86C192.947 128.976 193.087 129.063 193.241 129.111C193.44 129.173 193.653 129.181 193.856 129.132C194.059 129.084 194.245 128.981 194.393 128.836C202.084 121.288 201.678 111.116 201.386 108.246C201.362 108.012 201.275 107.789 201.133 107.6C200.992 107.411 200.801 107.263 200.582 107.172Z" fill="#EF7C59"/>
<path d="M186.948 104.503L187.003 104.267L186.352 104.12C185.476 103.925 184.492 104.978 184.154 106.469C183.815 107.961 184.252 109.329 185.127 109.523L185.726 109.656L185.773 109.456C186.443 109.18 187.07 108.304 187.326 107.169C187.575 106.078 187.404 105.049 186.948 104.503Z" fill="#F19A6D"/>
<path d="M187.938 107.321C188.277 105.829 187.841 104.462 186.965 104.268C186.089 104.073 185.105 105.125 184.767 106.617C184.428 108.109 184.864 109.476 185.74 109.671C186.615 109.865 187.6 108.813 187.938 107.321Z" fill="#F3CE90"/>
<path d="M184.608 114.211L184.707 113.992L184.096 113.726C183.273 113.37 182.105 114.219 181.487 115.618C180.87 117.017 181.035 118.443 181.858 118.799L182.421 119.042L182.506 118.853C183.216 118.709 183.999 117.966 184.468 116.905C184.922 115.872 184.952 114.828 184.608 114.211Z" fill="#EF7C59"/>
<path d="M185.019 117.134C185.637 115.732 185.471 114.308 184.649 113.953C183.826 113.598 182.658 114.446 182.04 115.847C181.422 117.249 181.588 118.673 182.411 119.028C183.234 119.383 184.402 118.535 185.019 117.134Z" fill="#F19A6D"/>
<path d="M202.493 147.4C201.287 155.471 201.975 155.54 194.866 160.838C187.756 166.137 193.913 188.798 176.386 180.758C176.386 180.758 164.634 176.14 172.869 166.26C172.869 166.26 175.35 164.053 178.575 163.51C178.956 163.445 179.341 163.406 179.728 163.393C180.826 163.36 181.804 162.139 182.815 160.429C184.608 157.395 186.502 152.82 189.338 150.588C189.761 150.25 190.224 149.965 190.718 149.739C191.42 149.423 192.041 148.953 192.532 148.364C195.53 144.796 193.806 137.494 193.806 137.494C193.806 137.494 203.699 139.33 202.493 147.4Z" fill="#FFCA7D"/>
<path d="M192.001 147.134L190.973 146.755C190.568 146.606 190.236 146.31 190.045 145.926C189.854 145.543 189.819 145.102 189.947 144.694C190.574 142.704 191.101 138.933 188.168 134.981L191.599 136.777L195.64 140.292L192.001 147.134Z" fill="#F19A6D"/>
<path d="M191.596 136.777C191.596 136.777 194.95 140.598 191.995 147.134L195.58 148.514C196.173 148.744 196.832 148.746 197.427 148.52C198.022 148.294 198.51 147.856 198.796 147.292C199.53 145.838 200.098 143.459 199.261 139.872L196.035 134.984L191.596 136.777Z" fill="#F3CE90"/>
<path d="M188.999 136.252C188.999 136.252 198.174 138.946 199.263 139.872L200.316 135.626L188.862 131.306L184.121 132.165L188.999 136.252Z" fill="#EF7C59"/>
<path d="M187.801 168.878C184.131 164.227 178.577 163.51 178.577 163.51C178.958 163.445 179.344 163.406 179.73 163.394C180.828 163.36 181.807 162.139 182.818 160.429C188.238 163.561 187.801 168.878 187.801 168.878ZM196.944 154.149C192.78 149.374 189.429 150.556 189.342 150.588C189.765 150.25 190.228 149.964 190.722 149.738C191.424 149.423 192.045 148.953 192.536 148.364C196.164 150.62 196.944 154.149 196.944 154.149Z" fill="#6D2D23"/>
<path opacity="0.15" d="M219.83 141.598C219.83 141.598 210.197 168.119 205.22 176.891C200.243 185.663 183.106 182.482 183.106 182.482C191.7 183.196 198.915 176.304 204.419 167.983C212.29 156.085 216.148 142.021 215.599 127.809C215.295 119.943 215.668 115.108 216.292 112.152C216.677 113.485 216.921 114.854 217.02 116.237L219.83 141.598Z" fill="#93493A"/>
<path d="M232.906 167.137L231.216 176.181L231.972 182.22L231.545 183.438L229.502 189.257L228.644 191.702L241.05 191.828L250.134 175.369L232.906 167.137Z" fill="#243354"/>
<path d="M241.05 191.913H223.983C223.981 189.84 224.751 187.838 226.146 186.29C227.54 184.742 229.463 183.757 231.545 183.523C231.868 183.487 232.192 183.469 232.516 183.469C233.637 183.468 234.747 183.686 235.783 184.11C236.819 184.534 237.761 185.156 238.553 185.94C239.346 186.724 239.975 187.656 240.403 188.681C240.831 189.706 241.051 190.804 241.05 191.913Z" fill="#2A4068"/>
<path d="M250.134 175.368L241.052 191.913H223.983C223.981 191.041 224.115 190.174 224.381 189.343H237.744C238.218 189.343 238.684 189.218 239.093 188.982C239.503 188.746 239.842 188.407 240.076 187.999L247.503 174.113L250.134 175.368Z" fill="#2A4068"/>
<path d="M209.998 117.95L222.116 150.729L229.333 181.563C229.333 181.563 243.769 183.872 245.514 171.662L234.743 149.51C234.16 148.309 233.721 147.044 233.436 145.742C232.927 143.437 232.074 139.413 231.33 135.145C230.383 129.727 229.611 123.915 229.936 120.749L215.585 114.757L215.227 114.607L212.653 113.531L209.998 117.95Z" fill="#2C4DA2"/>
<path opacity="0.3" d="M209.999 117.949L222.116 150.729L229.332 181.562C229.332 181.562 243.768 183.872 245.515 171.662C234.294 180.236 226.518 166.064 225.641 156.867C224.989 150.04 229.146 139.965 231.328 135.146C230.382 129.725 229.609 123.915 229.935 120.749L212.653 113.528L209.999 117.949Z" fill="#060606"/>
<path d="M240.58 175.516L241.339 177.124L241.668 176.974L240.909 175.362L240.58 175.516ZM239.067 172.295L239.825 173.904L240.154 173.753L239.396 172.145L239.067 172.295ZM237.553 169.078L238.311 170.686L238.64 170.537L237.881 168.928L237.553 169.078ZM236.039 165.858L236.798 167.47L237.126 167.316L236.367 165.708L236.039 165.858ZM234.525 162.641L235.284 164.25L235.609 164.1L234.851 162.492L234.525 162.641ZM233.012 159.425L233.77 161.033L234.095 160.883L233.337 159.271L233.012 159.425ZM231.498 156.205L232.257 157.813L232.582 157.663L231.823 156.054L231.498 156.205ZM229.984 152.987L230.743 154.596L231.068 154.446L230.313 152.837L229.984 152.987ZM228.467 149.771L229.225 151.379L229.554 151.225L228.792 149.617L228.467 149.771ZM227.138 146.436C227.284 147.02 227.479 147.592 227.719 148.144L228.056 148.009C227.824 147.472 227.634 146.919 227.488 146.353L227.138 146.436ZM226.148 143.073L226.786 144.735L227.121 144.61L226.484 142.948L226.148 143.073ZM224.874 139.752L225.511 141.414L225.846 141.289L225.209 139.627L224.874 139.752ZM223.599 136.432L224.236 138.094L224.573 137.969L223.935 136.307L223.599 136.432ZM222.324 133.111L222.962 134.773L223.298 134.649L222.66 132.987L222.324 133.111ZM221.05 129.791L221.687 131.454L222.023 131.328L221.386 129.666L221.05 129.791ZM219.775 126.471L220.412 128.133L220.752 128.008L220.114 126.346L219.775 126.471ZM218.5 123.151L219.138 124.813L219.477 124.687L218.84 123.025L218.5 123.151ZM217.226 119.83L217.863 121.492L218.202 121.367L217.565 119.705L217.226 119.83ZM215.951 116.514L216.588 118.169L216.928 118.044L216.29 116.382L215.951 116.514ZM215.224 114.605L215.318 114.851L215.582 114.755L215.224 114.605Z" fill="#CDCDCD"/>
<path d="M226.662 191.825H196.882C196.889 191.824 196.896 191.822 196.901 191.818C196.907 191.814 196.912 191.809 196.915 191.803C197.501 190.948 198.137 190.127 198.82 189.344C201.176 186.654 204.078 184.535 207.576 183.558L211.046 182.589L225.127 179.486L226.353 189.348L226.662 191.825Z" fill="#243354"/>
<path d="M210.165 191.914H196.882C196.889 191.913 196.896 191.91 196.901 191.906C196.907 191.903 196.912 191.898 196.915 191.892C197.501 191.036 198.137 190.215 198.82 189.433C201.176 186.742 204.078 184.624 207.576 183.647C207.576 183.647 213.356 185.624 210.165 191.914Z" fill="#2A4068"/>
<path d="M226.662 191.914H196.882C196.889 191.913 196.896 191.91 196.901 191.906C196.907 191.903 196.912 191.897 196.915 191.891C197.501 191.036 198.137 190.215 198.82 189.433H226.353L226.662 191.914Z" fill="#2A4068"/>
<path d="M208.229 181.074C211.411 183.182 214.43 183.943 217.063 183.997C217.186 184.001 217.302 184.001 217.424 184.001C222.817 183.987 226.506 181.074 226.506 181.074L222.416 148.425C222.269 147.256 222.502 146.071 223.08 145.041L228.958 134.601C230.507 131.849 232.248 129.207 234.285 126.787C239.529 120.554 236.647 115.522 236.647 115.522L230.433 115.715L230.029 115.725L219.218 116.061L209.289 142.077L208.229 181.074Z" fill="#2C4DA2"/>
<path d="M217.045 183.218L217.063 183.997C217.186 184.001 217.302 184.001 217.424 184.001L217.406 183.213L217.045 183.218ZM216.965 179.633L217.005 181.427L217.366 181.417L217.326 179.626L216.965 179.633ZM216.885 176.052L216.925 177.842L217.286 177.835L217.246 176.045L216.885 176.052ZM216.806 172.467L216.846 174.261L217.206 174.251L217.167 172.46L216.806 172.467ZM216.726 168.885L216.766 170.676L217.128 170.669L217.088 168.878L216.726 168.885ZM216.646 165.305L216.686 167.095L217.047 167.088L217.007 165.297L216.646 165.305ZM216.567 161.719L216.607 163.51L216.968 163.503L216.928 161.712L216.567 161.719ZM216.487 158.138L216.527 159.929L216.888 159.922L216.848 158.131L216.487 158.138ZM216.407 154.553L216.447 156.347L216.808 156.336L216.768 154.546L216.407 154.553ZM216.328 150.972L216.368 152.763L216.728 152.756L216.689 150.964L216.328 150.972ZM216.248 147.391L216.288 149.181L216.65 149.174L216.61 147.38L216.248 147.391ZM216.349 145.571L216.707 145.625C216.796 145.045 216.943 144.475 217.144 143.924L216.801 143.802C216.597 144.377 216.448 144.969 216.355 145.571H216.349ZM217.538 142.151L217.867 142.301L218.633 140.678L218.307 140.528L217.538 142.151ZM219.073 138.902L219.401 139.06L220.168 137.437L219.839 137.28L219.073 138.902ZM220.608 135.656L220.933 135.81L221.699 134.184L221.374 134.034L220.608 135.656ZM222.14 132.411L222.469 132.561L223.234 130.939L222.905 130.788L222.14 132.411ZM223.675 129.166L224 129.316L224.769 127.693L224.44 127.536L223.675 129.166ZM225.206 125.917L225.535 126.075L226.301 124.448L225.976 124.298L225.206 125.917ZM226.741 122.671L227.07 122.822L227.836 121.199L227.507 121.049L226.741 122.671ZM228.276 119.427L228.601 119.576L229.371 117.954L229.042 117.796L228.276 119.427ZM229.808 116.177L230.137 116.335L230.425 115.721L230.021 115.731L229.808 116.177Z" fill="#CDCDCD"/>
<path d="M194.63 64.4661C194.162 61.4112 191.134 60.1302 189.31 59.6335C188.558 59.4328 187.776 59.364 186.999 59.4301C185.455 59.5531 184.065 59.5176 183.271 58.7585C183.271 58.7585 182.865 58.4762 182.583 58.9382C182.583 58.9382 181.09 57.5681 180.872 57.1975C180.82 57.11 180.615 57.0225 180.325 56.9784H180.321C179.383 56.8309 177.564 57.136 177.125 59.4159C176.55 62.399 183.553 67.5359 187.163 68.4362L194.762 65.5532C194.75 65.1878 194.706 64.824 194.63 64.4661Z" fill="#F5B0A6"/>
<path d="M187.167 68.4378L194.765 65.5548C194.752 65.1887 194.707 64.8245 194.63 64.4661C194.63 64.4661 190.145 63.7771 187.794 66.2659C185.444 68.7547 172.817 58.8223 180.318 56.9784C179.381 56.8309 177.562 57.136 177.123 59.4159C176.55 62.4006 183.556 67.5336 187.167 68.4378Z" fill="#F18A8B"/>
<path d="M186.11 60.1357C183.21 60.0443 182.583 58.9398 182.583 58.9398C182.87 60.1783 185.951 60.5678 185.193 60.522C184.434 60.4763 181.537 61.9103 181.513 62.5016C181.49 63.0928 185.675 65.4594 186.572 63.9805C187.468 62.5016 189.975 62.5244 190.481 61.9103C190.987 61.2962 189.009 60.2264 186.11 60.1357Z" fill="#F18A8B"/>
<path d="M197.583 67.8071L195.905 64.8216C195.905 64.8216 190.465 64.4274 186.113 69.1284L188.091 72.0642L197.583 67.8071Z" fill="white"/>
<path d="M187.006 72.3093C188.608 75.1088 194.869 86.0487 197.657 90.9277C198.044 91.6039 198.572 92.1911 199.205 92.6506C199.839 93.11 200.563 93.4313 201.331 93.5931C202.099 93.755 202.893 93.7537 203.661 93.5894C204.428 93.4251 205.152 93.1015 205.784 92.64C206.26 92.293 206.678 91.8721 207.019 91.3936C209.25 88.2671 212.601 81.0828 213.092 77.9641V67.2671C213.092 67.2671 209.015 72.5837 205.365 80.0872C205.315 80.19 205.247 80.283 205.164 80.3615H205.16C205.048 80.4642 204.914 80.5385 204.767 80.5782C204.62 80.6178 204.466 80.6215 204.317 80.589C204.169 80.5565 204.03 80.4888 203.914 80.3916C203.798 80.2944 203.707 80.1707 203.65 80.0312L198.595 67.7645C198.537 67.6168 198.442 67.4857 198.32 67.3829C198.198 67.2801 198.052 67.2089 197.895 67.1756C196.461 66.865 192.208 66.4866 187.202 71.1024C187.037 71.2525 186.928 71.4532 186.892 71.6722C186.857 71.8912 186.897 72.1156 187.006 72.3093Z" fill="#6FC183"/>
<path d="M199.048 92.5312C200.002 93.278 201.179 93.6936 202.395 93.7138C203.612 93.734 204.802 93.3578 205.781 92.6432C204.968 91.787 203.736 91.2415 202.36 91.2415C201.044 91.2383 199.861 91.7358 199.048 92.5312Z" fill="#2E6857"/>
<path opacity="0.34" d="M204.211 84.6478C204.199 84.5879 204.191 84.528 204.183 84.4688C203.966 82.684 205.161 80.3584 205.161 80.3584H205.157C205.046 80.4611 204.911 80.5354 204.764 80.5751C204.618 80.6147 204.463 80.6184 204.315 80.5859C204.166 80.5534 204.028 80.4857 203.912 80.3885C203.795 80.2913 203.705 80.1676 203.648 80.0281C202.939 83.4921 204.542 86.4547 204.211 84.6478Z" fill="#40947E"/>
<path d="M209.999 109.745L221.912 112.055L222.769 95.5672L222.942 92.2617L223.598 79.6568L226.466 64.1965C226.466 64.1965 221.741 67.0346 220.093 63.9301L214.422 75.6189L211.07 101.466L210.703 104.304L209.999 109.745Z" fill="white"/>
<path d="M209.999 109.745L221.912 112.055L222.769 95.5671C222.769 95.5671 217.871 102.931 211.07 101.466L210.703 104.304L209.999 109.745Z" fill="#D8D8D8"/>
<path d="M220.094 63.9301C220.094 63.9301 211.56 83.8469 211.4 118.547L206.756 116.17C206.756 116.17 205.796 110.446 208.998 92.4714C210.815 82.2773 211.215 75.6985 211.22 71.9129C211.221 70.6544 211.595 69.4238 212.296 68.3738C212.997 67.3238 213.994 66.5007 215.164 66.0066L220.094 63.9301Z" fill="#6FC183"/>
<path d="M219.114 65.5698C218.163 66.6467 217.122 67.685 216.246 68.8186C215.708 69.5116 216.237 70.6633 216.334 71.4438C216.449 72.3678 215.759 72.9693 215.205 73.607L213.362 75.7308C212.999 76.1502 212.974 76.5618 212.989 77.0766C213.038 78.8661 213.086 80.6562 213.135 82.4468C213.177 84.0009 213.22 85.555 213.263 87.1091C213.273 87.493 212.669 87.493 212.659 87.1091C212.571 83.8558 212.482 80.6023 212.393 77.3485C212.377 76.7715 212.304 76.1897 212.637 75.6741C213.036 75.0505 213.632 74.505 214.118 73.946L215.101 72.8132C215.28 72.6066 215.51 72.3953 215.637 72.1502C215.876 71.6898 215.662 71.0906 215.576 70.6137C215.507 70.2321 215.384 69.8127 215.398 69.4217C215.431 68.523 216.405 67.7323 216.96 67.1032L218.687 65.1473C218.943 64.8572 219.369 65.2813 219.114 65.5698Z" fill="#2E6857"/>
<path d="M217.893 119.092C218.351 119.25 218.802 119.391 219.248 119.518C233.374 123.684 239.324 115.93 239.324 115.93C238.294 114.787 236.052 106.583 234.41 100.123C234.269 99.5657 234.128 99.0241 234 98.4983C233.09 94.8822 232.45 92.1497 232.45 92.1497L232.684 89.5482L232.888 87.2423L234.464 69.6692L226.463 64.1934C221.895 75.2247 219.714 87.7066 218.695 97.9772C218.578 99.1243 218.482 100.248 218.393 101.335C218.039 105.731 217.899 109.59 217.85 112.581C217.786 116.643 217.893 119.092 217.893 119.092Z" fill="#6FC183"/>
<path d="M227.386 65.7811C227.611 67.4059 227.85 69.0299 228.061 70.6562C228.126 71.1537 228.066 71.6282 227.739 72.0335C227.433 72.4095 226.942 72.6539 226.544 72.9164C226.071 73.2254 225.838 73.6259 225.946 74.2006C226.019 74.5869 226.118 74.97 226.204 75.3532C226.409 76.2692 226.63 77.1829 226.819 78.1022C226.955 78.7636 226.747 79.2524 226.414 79.79L223.44 84.5887L220.811 88.8324C220.609 89.1595 220.086 88.86 220.29 88.5304C222.058 85.6766 223.826 82.8225 225.595 79.9682C225.889 79.4952 226.351 78.9512 226.259 78.3623C226.142 77.6102 225.924 76.8645 225.757 76.1179L225.438 74.6989C225.368 74.3835 225.279 74.0682 225.307 73.7418C225.362 73.1285 225.746 72.7241 226.238 72.4016C226.699 72.0997 227.37 71.8017 227.481 71.2088C227.543 70.8809 227.438 70.4993 227.394 70.1777C227.315 69.6116 227.237 69.0454 227.159 68.4788C227.041 67.6326 226.924 66.7867 226.806 65.9411C226.755 65.5651 227.336 65.4019 227.389 65.7834L227.386 65.7811Z" fill="#2E6857"/>
<path opacity="0.34" d="M218.394 101.338L218.74 101.693L232.682 89.5458L233.418 88.9041L232.887 87.2399L228.903 74.7501C228.903 74.7501 229.246 91.3259 218.689 97.9804C218.579 99.1274 218.483 100.251 218.394 101.338ZM217.893 119.092C218.351 119.25 218.802 119.391 219.248 119.518C229.865 117.225 234.412 100.125 234.412 100.125C234.271 99.5673 234.13 99.0257 234.002 98.4999L227.063 101.451L217.851 112.586C217.786 116.643 217.893 119.092 217.893 119.092Z" fill="#40947E"/>
<path d="M228.722 57.9962C228.722 57.9962 228.722 57.9962 228.715 57.9962C228.566 58.0955 228.417 58.1909 228.272 58.2705C227.918 58.4718 227.548 58.6438 227.165 58.7845C227.078 58.8159 227.002 58.8704 226.944 58.942C226.887 59.0137 226.85 59.0997 226.839 59.1905C226.718 60.0467 226.404 62.4961 226.465 64.1926C224.809 65.8946 223.564 66.6183 222.641 66.8335C221.474 67.1055 220.337 66.2762 220.215 65.0992L219.964 62.6821C215.154 62.9762 214.925 54.0394 214.925 54.0394L215.592 47.9621L221.654 45.9912L226.718 53.464C226.718 53.464 229.518 51.7178 230.239 54.8483C230.578 56.3194 229.677 57.3466 228.722 57.9962Z" fill="#F5B0A6"/>
<path d="M220.094 63.93C223.845 62.8263 223.599 60.3375 223.599 60.3375C222.32 62.4243 220.509 62.6592 219.969 62.6876L220.094 63.93ZM227.487 55.0848C227.327 54.6788 227.79 54.2885 228.172 54.5053C228.491 54.6851 228.758 55.0824 228.523 55.9567C228.065 57.6548 227.125 56.9256 227.188 56.41C227.251 55.8944 227.723 55.6674 227.493 55.1013L227.487 55.0848Z" fill="#F18A8B"/>
<path d="M219.956 53.877C219.992 53.7443 220.077 53.6299 220.195 53.5561C220.33 53.4677 220.492 53.4285 220.654 53.445C220.964 53.4671 221.379 53.7012 221.423 54.0244C221.442 54.1577 221.614 54.231 221.733 54.1987C221.878 54.1592 221.928 54.026 221.908 53.892C221.869 53.6098 221.659 53.389 221.435 53.2282C221.206 53.064 220.936 52.9665 220.654 52.9468C220.133 52.9105 219.61 53.2392 219.47 53.7446C219.384 54.0536 219.868 54.186 219.955 53.877H219.956ZM215.767 53.7288C215.842 53.4686 216.21 53.2558 216.477 53.2479C216.787 53.2424 217.046 53.5364 217.185 53.8187C217.219 53.8753 217.274 53.9164 217.339 53.933C217.403 53.9497 217.471 53.9406 217.529 53.9077C217.586 53.8735 217.627 53.8189 217.643 53.7554C217.66 53.6919 217.651 53.6245 217.619 53.5672C217.406 53.1344 216.964 52.7244 216.448 52.7512C215.96 52.7757 215.42 53.117 215.282 53.5971C215.271 53.6291 215.268 53.6628 215.271 53.6962C215.274 53.7297 215.284 53.7621 215.3 53.7916C215.316 53.8211 215.339 53.847 215.365 53.8679C215.392 53.8887 215.422 53.9041 215.455 53.9129C215.488 53.9218 215.522 53.9241 215.555 53.9195C215.589 53.915 215.621 53.9038 215.651 53.8866C215.68 53.8694 215.705 53.8466 215.725 53.8195C215.745 53.7923 215.759 53.7615 215.767 53.7288Z" fill="#222222"/>
<path d="M216.462 55.9598C216.709 55.9598 216.91 55.6432 216.91 55.2527C216.91 54.8621 216.709 54.5455 216.462 54.5455C216.214 54.5455 216.013 54.8621 216.013 55.2527C216.013 55.6432 216.214 55.9598 216.462 55.9598Z" fill="#222222"/>
<path d="M221.042 55.2526C221.042 55.6649 220.83 55.9984 220.57 55.9984C220.309 55.9984 220.097 55.6649 220.097 55.2526C220.097 54.8403 220.309 54.5068 220.57 54.5068C220.831 54.5068 221.042 54.8403 221.042 55.2526ZM217.524 58.719L220.466 58.3382C220.508 58.3324 220.551 58.3361 220.591 58.3491C220.632 58.3621 220.668 58.3839 220.699 58.4131C220.73 58.4422 220.753 58.4779 220.768 58.5173C220.783 58.5568 220.788 58.5991 220.784 58.6409C220.719 59.296 220.432 60.6567 219.185 60.7356C217.939 60.8144 217.453 59.6469 217.288 59.0706C217.277 59.032 217.274 58.9915 217.281 58.9519C217.287 58.9123 217.302 58.8746 217.325 58.8412C217.347 58.8078 217.377 58.7796 217.411 58.7586C217.445 58.7375 217.484 58.724 217.524 58.719Z" fill="#222222"/>
<path d="M228.272 58.2743C227.918 58.4757 227.548 58.6476 227.165 58.7884C227.165 58.7884 226.09 58.8798 225.917 57.8802C225.99 57.9716 226.771 58.9082 228.272 58.2743ZM226.581 53.7153C226.581 53.7153 224.444 55.6988 221.555 52.29C221.555 52.29 220.055 50.5075 219.627 49.299C219.287 48.3412 218.665 49.5939 218.734 50.0243C218.734 50.0243 217.902 47.6458 216.91 49.7523C216.91 49.7523 216.624 50.2253 215.962 52.9443L215.368 47.8492L218.253 45.4054L223.816 45.0995L226.312 47.1957L228.762 50.3901L226.581 53.7153Z" fill="#F18A8B"/>
<path d="M230.098 45.0727C230.082 45.0857 230.063 45.0941 230.043 45.0969C230.023 45.0997 230.003 45.0969 229.984 45.0886C229.966 45.0803 229.95 45.067 229.939 45.0502C229.928 45.0335 229.922 45.0139 229.922 44.9938C229.936 44.4341 230.034 43.023 230.66 42.7754C231.415 42.4766 231.54 43.8113 230.098 45.0727ZM230.416 45.4732C230.403 45.4682 230.39 45.4597 230.381 45.4484C230.372 45.4371 230.366 45.4236 230.364 45.4093C230.363 45.395 230.365 45.3804 230.371 45.3672C230.377 45.354 230.386 45.3427 230.398 45.3344C230.754 45.1239 231.677 44.632 232.076 44.9205C232.556 45.2682 231.771 45.861 230.416 45.4732Z" fill="#393939"/>
<path d="M230.224 53.0973C230.083 53.3283 229.926 53.5703 229.757 53.8068C229.757 53.8068 228.832 52.1142 226.702 53.6357C224.702 55.0618 220.633 51.586 220.13 48.9056C220.042 48.4232 219.51 48.1173 219.083 48.3719C218.887 48.487 218.701 48.7101 218.581 49.1004C218.581 49.1004 218.029 47.4835 216.882 49.1004C215.735 50.7173 216.568 53.6925 214.926 54.7434C213.618 55.5837 213.002 54.4532 212.886 52.7488C212.862 52.2884 212.866 51.8268 212.898 51.3669C213.063 48.9813 211.815 47.504 213.795 46.2095C213.795 46.2095 215.393 41.5299 218.734 43.6166C218.734 43.6166 221.62 41.004 225.443 41.9359C229.267 42.8677 229.758 45.7988 229.758 45.7988C229.758 45.7988 233.667 47.526 230.224 53.0973Z" fill="#393939"/>
<path d="M230.224 53.0973C230.083 53.3283 229.926 53.5703 229.757 53.8068C229.757 53.8068 228.832 52.1142 226.702 53.6357C224.702 55.0619 220.633 51.586 220.13 48.9057C220.042 48.4232 219.51 48.1173 219.083 48.372C218.887 48.487 218.701 48.7102 218.581 49.1004C218.581 49.1004 218.029 47.4835 216.882 49.1004C215.735 50.7173 216.568 53.6925 214.926 54.7434C213.618 55.5838 213.002 54.4533 212.886 52.7489V52.7441C212.886 52.7441 213.61 54.9113 214.745 53.7438C215.881 52.5762 215.731 45.2178 218.49 48.208C218.49 48.208 219.818 46.1583 220.679 48.6944C221.54 51.2305 224.728 53.3259 226.176 52.4856C227.625 51.6452 229.766 51.9999 230.145 52.9396C230.168 52.9937 230.195 53.0463 230.224 53.0973Z" fill="#1C1C1C"/>
<path d="M221.913 46.9931C221.913 46.9931 222.902 51.3353 227.584 51.2329C227.584 51.2329 224.2 50.1773 221.913 46.9931ZM229.843 46.7921C229.843 46.7921 231.721 48.0243 230.066 51.4702C230.062 51.4702 230.813 48.8181 229.843 46.7921ZM218.486 44.3356C218.486 44.3356 215.885 42.6273 214.443 46.4168C214.443 46.4168 215.531 44.0077 218.486 44.3356ZM228.879 45.6017C228.879 45.6017 226.344 41.4085 220.57 43.779C220.57 43.779 225.711 42.5673 228.879 45.6017Z" fill="#1C1C1C"/>
<path d="M206.865 100.226C205.198 100.311 196.681 100.518 191.968 96.2838C191.903 96.2255 191.82 96.1906 191.733 96.1846C191.646 96.1787 191.559 96.202 191.487 96.251C191.415 96.2999 191.361 96.3715 191.336 96.4541C191.31 96.5368 191.313 96.6256 191.344 96.7063L202.375 124.716C202.4 124.78 202.443 124.836 202.497 124.879C203.129 125.367 207.326 128.286 216.327 127.293C216.385 127.287 216.441 127.268 216.49 127.237C216.54 127.206 216.582 127.165 216.613 127.116C216.644 127.067 216.663 127.011 216.67 126.954C216.676 126.896 216.67 126.838 216.65 126.783L207.249 100.479C207.221 100.401 207.169 100.335 207.1 100.289C207.031 100.244 206.948 100.221 206.865 100.226Z" fill="white"/>
<path d="M219.749 116.287C218.952 118.306 214.49 120.748 214.49 120.748C212.633 121.536 211.039 121.501 209.701 120.96C204.643 118.91 203.248 109.629 205.16 110.577C207.578 111.774 211.047 111.107 211.047 111.107L209.841 107.733C211.089 106.686 212.651 106.665 212.651 106.665C221.399 108.442 219.749 116.287 219.749 116.287Z" fill="#F5B0A6"/>
<path d="M212.107 111.441C211.565 113.287 205.487 112.482 205.487 112.482C205.636 118.034 209.636 120.911 209.703 120.959C204.646 118.909 203.25 109.628 205.162 110.576C207.581 111.773 211.05 111.106 211.05 111.106L209.844 107.732C209.844 107.732 212.649 109.594 212.107 111.441Z" fill="#F18A8B"/>
<path d="M215.631 104.019L212.653 106.663C212.653 106.663 218.128 108.571 219.749 116.287L224.042 113.426C224.042 113.426 219.385 102.669 215.631 104.019Z" fill="white"/>
<path d="M214.651 104.102C220.407 107.316 221.771 113.369 222.069 115.389C222.08 115.464 222.11 115.536 222.156 115.598C222.203 115.659 222.263 115.708 222.333 115.741C222.403 115.774 222.481 115.789 222.558 115.785C222.635 115.781 222.71 115.758 222.777 115.719C229.628 111.684 234.038 99.9717 236.445 93.2968C236.791 92.3295 237.097 91.4655 237.362 90.7481C237.938 89.1911 238 86.953 237.777 84.5114C237.233 78.5137 234.984 71.2932 234.541 69.9112C234.52 69.8372 234.479 69.77 234.423 69.7163C234.367 69.6625 234.298 69.624 234.223 69.6046C229.643 68.3779 228.965 74.177 228.91 74.7501C228.906 74.7791 228.906 74.8086 228.91 74.8376C228.994 75.5747 230.008 85.1327 227.183 90.0393C224.639 94.4604 216.671 101.541 214.578 103.362C214.523 103.41 214.48 103.471 214.454 103.538C214.427 103.606 214.416 103.679 214.424 103.751C214.431 103.823 214.455 103.892 214.495 103.953C214.534 104.015 214.588 104.065 214.651 104.102Z" fill="#6FC183"/>
<path d="M236.441 93.2968H236.445C236.791 92.3295 237.097 91.4655 237.363 90.7481C237.938 89.1911 238 86.953 237.777 84.5115C237.777 84.5115 233.6 87.6499 236.441 93.2968Z" fill="#2E6857"/>
<path d="M58.3002 39.7671C56.2185 40.643 53.6484 42.3143 51.9076 45.4826C51.4484 46.3259 51.3107 47.3044 51.5195 48.2398C51.7283 49.1751 52.2698 50.0051 53.0453 50.5785L75.9372 67.5658C77.1561 68.4708 78.7471 67.0566 77.9679 65.7605L63.3368 41.4148C62.8402 40.5842 62.0565 39.9598 61.1306 39.6569C60.2047 39.354 59.1992 39.3931 58.3002 39.7671ZM40.3541 68.1855C39.0532 70.016 37.7617 72.7784 37.9752 76.3788C38.0348 77.3349 38.4397 78.2379 39.1162 78.9231C39.7926 79.6084 40.6954 80.0302 41.6599 80.1116L70.1644 82.5799C71.6781 82.7116 72.2788 80.68 70.926 79.9855L45.5119 66.9525C44.6468 66.5062 43.6476 66.3852 42.6993 66.6119C41.751 66.8386 40.9179 67.3976 40.3541 68.1855ZM39.2149 106.953C39.4905 109.175 40.4043 112.078 43.0023 114.61C43.6944 115.28 44.6067 115.681 45.5727 115.741C46.5388 115.801 47.4944 115.515 48.2652 114.935L71.0838 97.8518C72.2995 96.942 71.365 95.039 69.8887 95.4221L42.2024 102.617C41.259 102.861 40.4366 103.434 39.8873 104.231C39.3381 105.028 39.0992 105.995 39.2149 106.953Z" fill="#F3CE90"/>
</g>
<defs>
<clipPath id="clip0_80_1504">
<rect width="250" height="192" fill="white"/>
</clipPath>
</defs>
</svg>
