<svg width="295" height="77" viewBox="0 0 295 77" fill="none" xmlns="http://www.w3.org/2000/svg">
<g clip-path="url(#clip0_630_4085)">
<path d="M8.06548 44.3334C4.94321 45.0127 2.90694 47.1862 2.36393 50.3107C2.22818 51.1259 2.36393 52.4843 1.00643 52.0768C0.599174 51.9409 0.0562035 50.5825 0.191955 49.7674C0.734956 45.6919 3.44993 43.3825 7.1152 41.7523C7.1152 39.9862 7.25096 38.2202 7.1152 36.4542C7.1152 35.9108 6.3007 35.3674 5.75769 35.0957C2.90694 33.6014 1.00646 31.4278 0.191955 28.3034C0.0562035 27.7599 -0.0795141 27.2165 0.0562366 26.6731C0.191988 26.1297 0.734973 25.7222 1.14223 25.1788C1.54947 25.5863 2.22818 25.9938 2.36393 26.5374C2.77118 29.6618 4.40024 31.6995 7.25101 32.9222C7.52251 33.0581 7.79402 33.0581 8.20129 33.1939C10.6448 28.8468 14.4458 26.809 19.4686 26.809C20.0115 26.809 20.9619 25.8581 21.2334 25.043C24.2198 18.3864 27.6137 12.0015 32.365 6.56761C33.9939 4.66572 36.1658 2.89971 38.3378 1.54122C42.9534 -1.31159 47.9762 -0.0889561 51.0985 4.25818C56.9358 12.2732 56.9358 20.1524 50.5555 27.76C47.8404 31.0203 44.1752 33.7373 41.0529 36.5901C40.3741 37.2694 39.5597 37.6768 38.6093 38.492C40.3742 39.8504 42.1389 41.2089 43.7679 42.4315C48.3835 46.2353 52.5917 50.4466 54.628 56.2881C57.2073 63.488 52.5917 72.454 48.3835 75.3067C44.7182 77.8879 39.8312 77.6163 35.8944 73.8125C32.6363 70.688 29.6499 67.02 27.2064 63.2162C24.7628 59.6842 23.1339 55.4729 21.0976 51.6693C20.6903 50.99 19.8758 50.3107 19.3327 50.3107C14.1742 50.5825 10.3732 48.5447 8.06548 44.3334ZM30.4643 38.6277C31.5504 37.9486 32.5007 37.2694 33.3151 36.726C38.338 33.1938 43.4964 29.7976 47.2975 24.7713C51.7773 18.9298 51.7773 12.8166 47.2975 7.111C45.1255 4.39405 42.8176 3.98649 39.9669 5.75253C38.6093 6.56761 37.3876 7.65438 36.3016 8.87702C30.3286 15.5336 26.2561 23.4128 23.4052 31.8354C21.912 36.0467 21.7763 40.258 22.9981 44.4693C25.5773 52.8919 29.7855 60.4993 35.2156 67.2918C36.5731 69.0578 38.4736 70.5521 40.3741 71.7747C42.8176 73.405 44.854 73.1332 46.6187 70.9597C50.827 66.0692 52.1844 60.3635 48.7907 54.7938C46.3472 50.8541 42.9534 47.8655 39.2881 45.0127C36.4373 42.839 33.4509 40.8014 30.4643 38.6277ZM18.6541 45.6919C17.1607 41.073 17.1607 36.3183 18.6541 31.6995C13.9027 31.5637 11.1878 34.5523 11.3235 39.1712C11.595 43.3825 14.4457 45.9636 18.6541 45.6919Z" fill="#060626"/>
<path d="M44.1752 35.911C44.1752 37.8129 44.1752 39.443 44.1752 41.3449C42.9534 40.3939 41.8674 39.7146 40.5098 38.7638C41.8674 37.677 42.8176 36.9977 44.1752 35.911Z" fill="black"/>
<path d="M30.4645 38.6279C33.5868 40.8014 36.5734 42.8392 39.424 45.0127C43.0894 47.7297 46.4831 50.7184 48.9266 54.7938C52.3204 60.3636 50.9629 66.205 46.7546 70.9597C44.8541 73.1332 42.8179 73.405 40.5101 71.7749C38.6096 70.5522 36.8449 69.0578 35.3515 67.2918C29.9216 60.4993 25.7133 52.756 23.134 44.4693C21.7766 40.258 22.0479 36.0467 23.5413 31.8354C26.5277 23.4128 30.6002 15.6695 36.4376 8.87708C37.5235 7.65444 38.7454 6.70352 40.1028 5.75259C42.9537 3.8507 45.2613 4.3941 47.4333 7.11106C51.9131 12.8167 51.9131 18.9299 47.4333 24.7713C43.6323 29.6619 38.4739 33.1939 33.451 36.726C32.365 37.2694 31.4148 37.9486 30.4645 38.6279Z" fill="white"/>
<path d="M18.6539 45.6921C14.4457 46.0996 11.5949 43.3827 11.4592 39.0355C11.3235 34.5526 14.0385 31.564 18.7898 31.564C17.2965 36.3186 17.1607 41.0733 18.6539 45.6921Z" fill="#E6952A"/>
<path d="M109.969 40.656L109.824 36.646C111.301 36.7104 112.586 36.6298 113.677 36.4044C114.801 36.179 115.732 35.7763 116.471 35.1965C117.241 34.5846 117.819 33.7471 118.205 32.6842C118.59 31.6213 118.783 30.3169 118.783 28.7708C118.783 26.6772 118.59 25.0507 118.205 23.8911C117.851 22.6995 117.241 21.862 116.374 21.3788C115.54 20.8957 114.4 20.6541 112.955 20.6541C112.345 20.6541 111.654 20.6863 110.884 20.7507C110.113 20.8152 109.294 20.9118 108.428 21.0406L106.597 16.9823C107.24 16.9501 107.866 16.9178 108.476 16.8856C109.118 16.8212 109.728 16.789 110.306 16.789C110.916 16.7569 111.478 16.7407 111.992 16.7407C114.657 16.7407 116.84 17.0627 118.542 17.707C120.244 18.3189 121.496 19.4946 122.299 21.2339C123.133 22.941 123.551 25.405 123.551 28.6259C123.551 31.6213 122.989 34.0049 121.865 35.7763C120.773 37.5156 119.2 38.7718 117.145 39.5448C115.122 40.2856 112.73 40.656 109.969 40.656ZM106.646 51.6232C106.678 50.2704 106.71 48.6278 106.742 46.6952C106.774 44.7305 106.79 42.653 106.79 40.4627C106.822 38.2725 106.838 36.179 106.838 34.182C106.838 32.1528 106.822 30.0591 106.79 27.9012C106.79 25.7432 106.774 23.714 106.742 21.8136C106.71 19.8811 106.662 18.2706 106.597 16.9823L111.799 17.3688C111.767 18.174 111.735 19.1081 111.703 20.171C111.703 21.2339 111.687 22.3773 111.654 23.6013C111.622 24.7929 111.606 26.0008 111.606 27.2248C111.606 28.4488 111.59 29.6566 111.558 30.8483C111.558 32.0078 111.574 33.0869 111.606 34.0853C111.606 35.0838 111.606 36.3078 111.606 37.7572C111.638 39.1744 111.654 40.6882 111.654 42.2987C111.687 43.9092 111.703 45.4874 111.703 47.0334C111.735 48.5794 111.751 49.9967 111.751 51.285L106.646 51.6232ZM119.698 51.6232C118.863 49.4329 117.964 47.2428 117.001 45.0525C116.069 42.8301 115.042 40.5432 113.918 38.192L118.542 36.6943C119.505 39.0778 120.549 41.4935 121.672 43.9413C122.828 46.357 124.145 48.8693 125.622 51.4783L119.698 51.6232ZM139.021 51.9131C137.19 51.9131 135.73 51.4461 134.638 50.512C133.578 49.5779 132.775 48.3379 132.23 46.7918C131.844 45.6002 131.571 44.2957 131.411 42.8784C131.25 41.429 131.17 39.8991 131.17 38.2886C131.17 36.9358 131.234 35.6475 131.363 34.4235C131.523 33.1995 131.764 32.0723 132.085 31.0416C132.631 29.3344 133.482 27.9656 134.638 26.9349C135.826 25.9042 137.415 25.3889 139.406 25.3889C141.108 25.3889 142.44 25.7592 143.403 26.5001C144.399 27.2086 145.105 28.2072 145.523 29.4955C145.972 30.7838 146.197 32.2977 146.197 34.037C146.197 34.9067 146.149 35.8246 146.052 36.7909C145.956 37.725 145.828 38.6913 145.667 39.6897L141.525 36.646C141.589 36.0017 141.637 35.3898 141.67 34.81C141.734 34.2303 141.766 33.6827 141.766 33.1674C141.766 32.2977 141.686 31.5409 141.525 30.8966C141.365 30.2524 141.092 29.7533 140.706 29.3989C140.353 29.0124 139.823 28.8191 139.117 28.8191C138.282 28.8191 137.624 29.1412 137.142 29.7854C136.693 30.4296 136.356 31.2993 136.131 32.3944C135.938 33.1674 135.81 34.037 135.745 35.0033C135.713 35.9696 135.697 36.968 135.697 37.9987C135.697 38.8362 135.697 39.6576 135.697 40.4627C135.73 41.2679 135.762 42.0249 135.794 42.7335C135.826 43.4099 135.906 44.0541 136.034 44.666C136.227 45.7934 136.564 46.6952 137.046 47.3716C137.528 48.0158 138.234 48.3379 139.165 48.3379C139.872 48.3379 140.433 48.1929 140.851 47.9031C141.268 47.581 141.557 47.1622 141.718 46.6469C141.911 46.0993 142.007 45.5035 142.007 44.8593C142.007 44.5694 141.991 44.2634 141.959 43.9413C141.926 43.6193 141.862 43.2971 141.766 42.9751H146.052C146.117 43.3294 146.165 43.6676 146.197 43.9896C146.229 44.3117 146.245 44.6339 146.245 44.9559C146.245 46.3409 145.972 47.5649 145.426 48.6278C144.881 49.6585 144.078 50.4637 143.018 51.0434C141.959 51.6232 140.626 51.9131 139.021 51.9131ZM132.663 40.0762L132.519 36.4044L145.137 36.3078L145.667 39.6897C145.667 39.6897 145.378 39.6897 144.8 39.6897C144.254 39.6897 143.5 39.7059 142.537 39.738C141.605 39.7702 140.562 39.8025 139.406 39.8347C138.25 39.8347 137.078 39.8668 135.89 39.9313C134.734 39.9635 133.658 40.0118 132.663 40.0762ZM161.345 51.8648C159.484 51.8648 158.022 51.3816 156.963 50.4154C155.903 49.4491 155.117 48.1608 154.603 46.5503C154.282 45.4552 154.058 44.2634 153.928 42.9751C153.8 41.6544 153.736 40.2533 153.736 38.7718C153.736 37.2257 153.817 35.7763 153.976 34.4235C154.169 33.0386 154.475 31.7824 154.892 30.6551C155.277 29.5922 155.775 28.6742 156.385 27.9012C157.027 27.096 157.814 26.4839 158.745 26.0653C159.708 25.6143 160.816 25.3889 162.068 25.3889C163.835 25.3889 165.199 25.7432 166.162 26.4518C167.158 27.1603 167.847 28.1589 168.233 29.4472C168.651 30.7034 168.859 32.2173 168.859 33.9887C168.859 34.6329 168.827 35.3093 168.763 36.0179C168.731 36.6943 168.666 37.4028 168.57 38.1437L164.139 37.4673C164.204 36.7264 164.252 36.0179 164.283 35.3415C164.348 34.6329 164.38 33.9887 164.38 33.4089C164.38 32.4748 164.3 31.6696 164.139 30.9933C164.011 30.2847 163.754 29.7533 163.368 29.3989C162.983 29.0124 162.438 28.8191 161.731 28.8191C160.897 28.8191 160.238 29.1573 159.756 29.8337C159.308 30.478 158.97 31.3476 158.745 32.4427C158.552 33.2802 158.424 34.2303 158.359 35.2932C158.328 36.3239 158.311 37.4028 158.311 38.5302C158.311 39.3032 158.311 40.0441 158.311 40.7526C158.344 41.4612 158.376 42.1216 158.407 42.7335C158.441 43.3454 158.504 43.9252 158.6 44.4728C158.761 45.6645 159.067 46.6147 159.515 47.3233C159.997 47.9997 160.719 48.3379 161.683 48.3379C162.742 48.3379 163.481 48.0963 163.898 47.6132C164.348 47.13 164.572 46.502 164.572 45.7289C164.572 45.4391 164.557 45.1653 164.524 44.9076C164.493 44.6499 164.444 44.3762 164.38 44.0863L168.474 43.4582C168.538 43.7802 168.57 44.1024 168.57 44.4245C168.603 44.7465 168.618 45.0525 168.618 45.3424C168.618 46.6631 168.362 47.8226 167.847 48.821C167.334 49.7873 166.547 50.5442 165.487 51.0918C164.428 51.6071 163.048 51.8648 161.345 51.8648ZM185.889 39.9796C186.274 38.4014 186.563 36.9358 186.756 35.5831C186.949 34.1981 187.045 32.9903 187.045 31.9595C187.045 30.9288 186.901 30.1398 186.612 29.5922C186.323 29.0124 185.824 28.7225 185.119 28.7225C184.541 28.7225 183.978 29.0124 183.433 29.5922C182.886 30.1398 182.436 31.0094 182.084 32.2011C181.762 33.3928 181.603 34.955 181.603 36.8875L179.58 38.9167C179.58 37.5961 179.643 36.2595 179.772 34.9067C179.932 33.5539 180.158 32.2977 180.447 31.1382C180.767 29.9465 181.169 28.8996 181.651 27.9978C182.164 27.0637 182.79 26.339 183.529 25.8237C184.267 25.3084 185.134 25.0507 186.13 25.0507C187.349 25.0507 188.312 25.3405 189.02 25.9203C189.726 26.5001 190.239 27.3214 190.561 28.3843C190.882 29.4472 191.043 30.6551 191.043 32.0078C191.043 33.1674 190.946 34.4397 190.754 35.8246C190.561 37.1774 190.304 38.5624 189.983 39.9796H185.889ZM176.786 51.3333C176.849 50.4315 176.898 49.5457 176.931 48.6761C176.994 47.7743 177.042 46.8402 177.075 45.8739C177.107 44.8755 177.138 43.8125 177.172 42.6852C177.203 41.5256 177.22 40.2373 177.22 38.8201C177.251 37.3062 177.251 35.9051 177.22 34.6168C177.22 33.2962 177.187 32.0883 177.123 30.9933C177.09 29.8982 177.042 28.9158 176.979 28.0461C176.946 27.1443 176.898 26.3551 176.834 25.6787L181.362 25.4372C181.362 26.2747 181.362 27.2409 181.362 28.336C181.362 29.4311 181.377 30.6872 181.41 32.1045C181.473 33.4894 181.538 35.0838 181.603 36.8875C181.603 38.3369 181.603 39.738 181.603 41.0908C181.603 42.4436 181.618 43.7319 181.651 44.9559C181.682 46.1799 181.699 47.3233 181.699 48.3862C181.731 49.4491 181.762 50.4154 181.795 51.285L176.786 51.3333ZM202.575 51.8165C201.291 51.8165 200.279 51.5104 199.54 50.8985C198.835 50.2866 198.336 49.4169 198.047 48.2896C197.79 47.13 197.662 45.7611 197.662 44.1829C197.662 43.4743 197.662 42.653 197.662 41.7189C197.694 40.7526 197.694 39.7219 197.662 38.6268C197.662 37.5318 197.662 36.4044 197.662 35.2449C197.662 34.0853 197.646 32.942 197.614 31.8146C197.614 30.6872 197.614 29.5922 197.614 28.5293C197.646 27.4664 197.662 26.5001 197.662 25.6304L202.189 25.0507C202.158 26.0169 202.11 27.1926 202.045 28.5776C202.013 29.9625 201.98 31.4281 201.949 32.9741C201.917 34.5202 201.869 36.0179 201.804 37.4673C201.772 38.9167 201.739 40.2373 201.708 41.429C201.708 42.5886 201.708 43.4743 201.708 44.0863C201.708 44.9559 201.756 45.7128 201.852 46.357C201.98 47.0013 202.173 47.5004 202.43 47.8547C202.688 48.1768 203.073 48.3379 203.586 48.3379C204.388 48.3379 205.127 47.9192 205.802 47.0817C206.476 46.2442 207.022 45.0042 207.439 43.3616C207.856 41.6867 208.065 39.6414 208.065 37.2257C208.065 36.4205 208.049 35.5992 208.017 34.7617C208.017 33.9242 208.001 33.0546 207.969 32.1528C207.969 31.251 207.952 30.333 207.921 29.3989C207.921 28.4326 207.921 27.4502 207.921 26.4518L212.641 26.5001C212.576 28.4971 212.528 30.2524 212.496 31.7663C212.465 33.2802 212.432 34.7296 212.4 36.1145C212.4 37.4995 212.383 38.9489 212.352 40.4627C212.352 41.9766 212.352 43.7319 212.352 45.7289C212.352 46.502 212.383 47.1784 212.448 47.7581C212.544 48.3379 212.672 48.8532 212.833 49.3041C213.026 49.7551 213.25 50.19 213.508 50.6086L209.751 51.8165C209.397 51.3655 209.108 50.8019 208.884 50.1255C208.66 49.4169 208.499 48.4828 208.402 47.3233C207.825 48.7082 207.07 49.8034 206.139 50.6086C205.207 51.4138 204.02 51.8165 202.575 51.8165ZM226.613 51.3333L221.459 51.285C221.491 50.8985 221.522 50.3026 221.556 49.4974C221.619 48.6599 221.667 47.6615 221.7 46.502C221.732 45.3424 221.763 44.0541 221.796 42.6369C221.828 41.2196 221.845 39.7219 221.845 38.1437C221.845 35.9857 221.811 34.037 221.748 32.2977C221.683 30.5263 221.619 29.0769 221.556 27.9495C221.491 26.8221 221.459 26.0974 221.459 25.7754H226.468C226.435 26.0331 226.403 26.7416 226.372 27.9012C226.339 29.0607 226.307 30.5263 226.276 32.2977C226.242 34.0692 226.227 36.034 226.227 38.192C226.227 39.7059 226.242 41.1553 226.276 42.5402C226.307 43.9252 226.339 45.1975 226.372 46.357C226.435 47.5166 226.483 48.5311 226.516 49.4008C226.58 50.2383 226.613 50.8824 226.613 51.3333ZM226.372 21.6687L221.604 21.9586L221.507 17.1755L226.468 16.8856L226.372 21.6687ZM242.44 51.8165C241.156 51.8165 240.097 51.6394 239.262 51.285C238.426 50.8985 237.768 50.3671 237.287 49.6907C236.805 49.0143 236.468 48.2091 236.275 47.275C236.083 46.3409 235.986 45.2941 235.986 44.1346C235.986 43.5548 235.986 42.9429 235.986 42.2987C236.018 41.6223 236.035 40.9137 236.035 40.1729C236.066 39.3998 236.099 38.6107 236.131 37.8055C236.131 36.7747 236.148 35.728 236.179 34.6651C236.211 33.6022 236.244 32.5393 236.275 31.4764C236.34 30.4135 236.372 29.3506 236.372 28.2877C236.403 27.1926 236.436 26.1136 236.468 25.0507C236.5 23.9556 236.516 22.8927 236.516 21.862L241.573 21.1856C241.477 22.4096 241.381 23.73 241.284 25.1473C241.188 26.5645 241.092 28.03 240.995 29.5438C240.931 31.0254 240.868 32.5071 240.803 33.9887C240.738 35.4703 240.675 36.9197 240.61 38.3369C240.579 39.4643 240.545 40.5111 240.514 41.4773C240.514 42.4114 240.514 43.2166 240.514 43.893C240.514 44.8271 240.562 45.6323 240.658 46.3087C240.755 46.9851 240.964 47.5165 241.284 47.9031C241.605 48.2574 242.072 48.4345 242.681 48.4345C243.483 48.4345 244.061 48.2413 244.415 47.8547C244.8 47.4361 245.058 46.8723 245.186 46.1638C245.314 45.4552 245.378 44.6499 245.378 43.7481C245.378 43.426 245.362 43.0878 245.33 42.7335C245.33 42.3791 245.314 42.0249 245.282 41.6706C245.25 41.2841 245.202 40.8976 245.137 40.5111L249.328 39.4482C249.392 40.1245 249.441 40.7848 249.472 41.429C249.537 42.0409 249.569 42.6369 249.569 43.2166C249.569 45.0204 249.328 46.5664 248.846 47.8547C248.396 49.1109 247.642 50.0933 246.582 50.8019C245.554 51.4783 244.174 51.8165 242.44 51.8165ZM233.482 29.8337L233.819 25.872C233.884 25.872 234.188 25.872 234.734 25.872C235.281 25.872 235.907 25.8882 236.613 25.9203C237.352 25.9203 238.041 25.9203 238.684 25.9203C239.326 25.9203 239.743 25.9203 239.936 25.9203C240.449 25.9203 241.092 25.9203 241.862 25.9203C242.633 25.8882 243.452 25.872 244.319 25.872C245.186 25.8398 246.036 25.8237 246.871 25.8237C247.738 25.7915 248.525 25.7754 249.231 25.7754L248.991 29.3989C248.541 29.3989 248.027 29.4151 247.449 29.4472C246.871 29.4472 246.277 29.4472 245.667 29.4472C245.089 29.4472 244.495 29.4634 243.885 29.4955C243.276 29.4955 242.698 29.5117 242.151 29.5438C241.638 29.5438 241.172 29.5438 240.755 29.5438C240.08 29.5438 239.293 29.576 238.395 29.6405C237.496 29.6726 236.613 29.7049 235.746 29.7371C234.879 29.7693 234.125 29.8016 233.482 29.8337ZM264.546 51.9131C262.651 51.9131 261.158 51.4944 260.067 50.6569C258.974 49.8194 258.172 48.6439 257.658 47.13C257.273 46.0027 257.016 44.6982 256.888 43.2166C256.758 41.7027 256.695 40.0601 256.695 38.2886C256.695 36.9037 256.758 35.5992 256.888 34.3752C257.016 33.1191 257.24 31.9917 257.562 30.9933C257.914 29.8337 258.412 28.8353 259.055 27.9978C259.696 27.1603 260.5 26.5162 261.463 26.0653C262.427 25.6143 263.583 25.3889 264.931 25.3889C266.697 25.3889 268.077 25.7271 269.073 26.4035C270.1 27.0798 270.822 28.0461 271.24 29.3023C271.689 30.5584 271.915 32.0723 271.915 33.8438C271.915 34.5523 271.882 35.277 271.818 36.0179C271.785 36.7587 271.706 37.5318 271.578 38.3369C271.481 39.1421 271.368 39.9958 271.24 40.8976L267.05 38.0954C267.147 37.4511 267.226 36.8392 267.291 36.2595C267.354 35.6475 267.402 35.0838 267.436 34.5685C267.499 34.0209 267.532 33.5217 267.532 33.0707C267.532 31.6858 267.323 30.6389 266.906 29.9304C266.487 29.1895 265.75 28.8191 264.69 28.8191C263.759 28.8191 263.053 29.1895 262.571 29.9304C262.089 30.6389 261.752 31.6213 261.56 32.8775C261.495 33.3606 261.43 33.8921 261.367 34.4718C261.302 35.0194 261.254 35.5992 261.223 36.2111C261.223 36.7909 261.223 37.3868 261.223 37.9987C261.223 38.965 261.223 39.8991 261.223 40.8009C261.254 41.6706 261.286 42.4758 261.319 43.2166C261.382 43.9252 261.463 44.5694 261.56 45.1492C261.752 46.1799 262.089 46.9689 262.571 47.5165C263.053 48.0642 263.759 48.3379 264.69 48.3379C265.717 48.3379 266.439 48.0963 266.858 47.6132C267.275 47.13 267.484 46.4858 267.484 45.6806C267.484 45.4229 267.467 45.1653 267.436 44.9076C267.402 44.6177 267.339 44.3117 267.243 43.9896L271.529 44.3278C271.593 44.5856 271.626 44.8593 271.626 45.1492C271.657 45.4391 271.674 45.7289 271.674 46.0188C271.674 47.1783 271.4 48.2091 270.855 49.1109C270.34 49.9805 269.555 50.6731 268.495 51.1884C267.467 51.6715 266.15 51.9131 264.546 51.9131ZM258.188 41.2358L258.092 37.6122L270.663 37.5156L271.24 40.8976C271.24 40.8976 270.951 40.8976 270.374 40.8976C269.796 40.8976 269.025 40.9137 268.062 40.9459C267.13 40.9459 266.087 40.962 264.931 40.9942C263.775 41.0264 262.603 41.0587 261.415 41.0908C260.259 41.123 259.183 41.1713 258.188 41.2358ZM288.94 39.9796C289.326 38.4014 289.615 36.9358 289.807 35.5831C290 34.1981 290.096 32.9903 290.096 31.9595C290.096 30.9288 289.952 30.1398 289.663 29.5922C289.374 29.0124 288.877 28.7225 288.17 28.7225C287.592 28.7225 287.03 29.0124 286.484 29.5922C285.939 30.1398 285.489 31.0094 285.136 32.2011C284.815 33.3928 284.654 34.955 284.654 36.8875L282.631 38.9167C282.631 37.5961 282.696 36.2595 282.824 34.9067C282.985 33.5539 283.209 32.2977 283.498 31.1382C283.82 29.9465 284.22 28.8996 284.702 27.9978C285.217 27.0637 285.843 26.339 286.58 25.8237C287.319 25.3084 288.186 25.0507 289.181 25.0507C290.402 25.0507 291.365 25.3405 292.071 25.9203C292.778 26.5001 293.292 27.3214 293.612 28.3843C293.934 29.4472 294.094 30.6551 294.094 32.0078C294.094 33.1674 293.998 34.4397 293.805 35.8246C293.612 37.1774 293.356 38.5624 293.034 39.9796H288.94ZM279.838 51.3333C279.902 50.4315 279.951 49.5457 279.982 48.6761C280.047 47.7743 280.095 46.8402 280.127 45.8739C280.16 44.8755 280.191 43.8125 280.223 42.6852C280.256 41.5256 280.271 40.2373 280.271 38.8201C280.304 37.3062 280.304 35.9051 280.271 34.6168C280.271 33.2962 280.239 32.0883 280.175 30.9933C280.143 29.8982 280.095 28.9158 280.03 28.0461C279.999 27.1443 279.95 26.3551 279.886 25.6787L284.413 25.4372C284.413 26.2747 284.413 27.2409 284.413 28.336C284.413 29.4311 284.43 30.6872 284.461 32.1045C284.526 33.4894 284.591 35.0838 284.654 36.8875C284.654 38.3369 284.654 39.738 284.654 41.0908C284.654 42.4436 284.671 43.7319 284.702 44.9559C284.735 46.1799 284.75 47.3233 284.75 48.3862C284.783 49.4491 284.815 50.4154 284.847 51.285L279.838 51.3333Z" fill="#060626"/>
<path d="M80.9415 49.1958C79.72 49.2918 78.4929 49.1003 77.3588 48.6365C76.2245 48.1729 75.2149 47.4497 74.4106 46.5252C72.9749 44.6971 72.222 42.4253 72.2816 40.1016C70.3643 42.7087 67.9328 44.8949 65.1372 46.5252C62.6705 48.0013 59.857 48.7984 56.9826 48.8349C55.8292 48.9578 54.663 48.8277 53.5652 48.4534C52.4674 48.0792 51.4644 47.47 50.6262 46.6683C49.788 45.8666 49.1348 44.8918 48.712 43.8116C48.2892 42.7315 48.1071 41.5721 48.1783 40.4143C48.2268 38.0394 48.7804 35.7019 49.802 33.5575C50.9161 31.102 52.3741 28.8176 54.132 26.773C55.8299 24.7475 57.8397 23.0055 60.0856 21.6124C61.9998 20.365 64.2244 19.6776 66.5083 19.6276C67.592 19.6208 68.6554 19.9211 69.5754 20.4936C70.5136 21.0711 70.9827 22.25 70.9827 24.0303C70.9773 25.8755 70.4111 27.6753 69.359 29.1908C68.2117 30.8687 66.7689 32.3238 65.1012 33.4853C63.3165 34.7518 61.3761 35.7828 59.328 36.553C57.3236 37.326 55.2237 37.8238 53.0855 38.0324C52.9894 38.5136 52.9173 38.9708 52.8691 39.4038C52.8234 39.8033 52.7993 40.2047 52.7969 40.6068C52.7994 41.5791 52.9704 42.5437 53.3021 43.4577C53.6295 44.3867 54.2339 45.193 55.0341 45.7674C56.0637 46.4283 57.277 46.7443 58.498 46.6695C61.2482 46.6005 63.9038 45.6519 66.0753 43.9629C68.6171 42.1391 70.8402 39.9076 72.6544 37.3589C73.1276 35.2828 73.9058 33.2883 74.9639 31.4405C76.0599 29.4818 77.4062 27.6741 78.9689 26.0633C80.4549 24.5108 82.1709 23.1962 84.0566 22.1657C85.7553 21.2136 87.6663 20.7048 89.6135 20.6861C90.697 20.6793 91.7603 20.9796 92.6804 21.5523C93.6185 22.1296 94.0877 23.3085 94.0877 25.0889C94.1115 27.4808 93.2209 29.7916 91.5979 31.5487C89.823 33.4819 87.6419 34.9979 85.2113 35.9875C82.6608 37.0817 79.9606 37.7874 77.2009 38.0806C77.1047 38.5617 77.0325 39.0189 76.9845 39.4519C76.9387 39.8514 76.9146 40.2529 76.9122 40.6549C76.919 41.6593 77.077 42.6569 77.3814 43.6142C77.6726 44.5918 78.2509 45.4593 79.0412 46.1043C80.0368 46.8155 81.2481 47.1599 82.4691 47.0786C84.6671 47.0438 86.8135 46.4073 88.6752 45.2381C90.8356 43.9407 92.7829 42.3177 94.4485 40.4264C96.2024 38.4672 97.7053 36.2973 98.9228 33.9665L99.7887 34.6162C98.5496 37.4143 96.8547 39.9875 94.7733 42.2307C92.8726 44.3094 90.6263 46.0433 88.134 47.3553C85.9202 48.5405 83.4525 49.1719 80.9415 49.1958ZM53.4103 36.7092C56.6889 35.5556 59.7687 33.8999 62.5392 31.8013C63.978 30.7251 65.2435 29.435 66.2919 27.9759C67.238 26.7016 67.7559 25.1603 67.7713 23.5732C67.792 23.1528 67.6918 22.7354 67.4826 22.3703C67.3312 22.2074 67.1429 22.0831 66.9337 22.0078C66.7245 21.9325 66.5004 21.9083 66.2799 21.9371C64.9462 21.9992 63.6627 22.4648 62.5994 23.2724C61.1938 24.2615 59.9311 25.4394 58.8468 26.773C57.6149 28.2708 56.5276 29.8819 55.5994 31.5848C54.6721 33.2015 53.9373 34.9215 53.4103 36.7092ZM77.4655 36.7092C78.917 36.2145 80.3386 35.636 81.7233 34.977C83.2636 34.2549 84.7366 33.3975 86.1254 32.4147C87.4619 31.4861 88.6327 30.3394 89.5894 29.0225C90.4869 27.7984 90.9675 26.3181 90.9605 24.8002C90.9735 24.3294 90.8481 23.8652 90.5996 23.4649C90.4473 23.2714 90.248 23.1199 90.0206 23.0253C89.7932 22.9304 89.5454 22.8954 89.3007 22.9237C87.5557 23.0115 85.9017 23.7296 84.646 24.9445C82.966 26.4318 81.5293 28.1731 80.3882 30.1052C79.156 32.1723 78.2018 34.3927 77.5498 36.7092H77.4655Z" fill="#E6952A"/>
</g>
<defs>
<clipPath id="clip0_630_4085">
<rect width="295" height="77" fill="white"/>
</clipPath>
</defs>
</svg>
